<?xml version="1.0" encoding="utf-8"?>
<svg xmlns="http://www.w3.org/2000/svg" xmlns:xlink="http://www.w3.org/1999/xlink" width="425" height="350" viewBox="0 0 1700 1400">
<defs>
  <clipPath id="clip580">
    <rect x="0" y="0" width="1700" height="1400"/>
  </clipPath>
</defs>
<path clip-path="url(#clip580)" d="M0 1400 L1700 1400 L1700 0 L0 0  Z" fill="#ffffff" fill-rule="evenodd" fill-opacity="1"/>
<defs>
  <clipPath id="clip581">
    <rect x="340" y="0" width="1191" height="1191"/>
  </clipPath>
</defs>
<path clip-path="url(#clip580)" d="M193.424 1258.97 L1652.76 1258.97 L1652.76 47.2441 L193.424 47.2441  Z" fill="#ffffff" fill-rule="evenodd" fill-opacity="1"/>
<defs>
  <clipPath id="clip582">
    <rect x="193" y="47" width="1460" height="1213"/>
  </clipPath>
</defs>
<polyline clip-path="url(#clip582)" style="stroke:#000000; stroke-linecap:round; stroke-linejoin:round; stroke-width:2; stroke-opacity:0.1; fill:none" points="409.864,1258.97 409.864,47.2441 "/>
<polyline clip-path="url(#clip582)" style="stroke:#000000; stroke-linecap:round; stroke-linejoin:round; stroke-width:2; stroke-opacity:0.1; fill:none" points="923.09,1258.97 923.09,47.2441 "/>
<polyline clip-path="url(#clip582)" style="stroke:#000000; stroke-linecap:round; stroke-linejoin:round; stroke-width:2; stroke-opacity:0.1; fill:none" points="1436.32,1258.97 1436.32,47.2441 "/>
<polyline clip-path="url(#clip580)" style="stroke:#000000; stroke-linecap:round; stroke-linejoin:round; stroke-width:4; stroke-opacity:1; fill:none" points="193.424,1258.97 1652.76,1258.97 "/>
<polyline clip-path="url(#clip580)" style="stroke:#000000; stroke-linecap:round; stroke-linejoin:round; stroke-width:4; stroke-opacity:1; fill:none" points="193.424,47.2441 1652.76,47.2441 "/>
<polyline clip-path="url(#clip580)" style="stroke:#000000; stroke-linecap:round; stroke-linejoin:round; stroke-width:4; stroke-opacity:1; fill:none" points="409.864,1258.97 409.864,1240.07 "/>
<polyline clip-path="url(#clip580)" style="stroke:#000000; stroke-linecap:round; stroke-linejoin:round; stroke-width:4; stroke-opacity:1; fill:none" points="923.09,1258.97 923.09,1240.07 "/>
<polyline clip-path="url(#clip580)" style="stroke:#000000; stroke-linecap:round; stroke-linejoin:round; stroke-width:4; stroke-opacity:1; fill:none" points="1436.32,1258.97 1436.32,1240.07 "/>
<path clip-path="url(#clip580)" d="M357.023 1303.06 L358.469 1286.01 L404.824 1286.01 L406.27 1303.06 L404.38 1303.06 Q404.083 1299.65 403.787 1297.68 Q403.528 1295.72 402.861 1293.87 Q402.231 1291.98 401.415 1291.09 Q400.637 1290.16 399.118 1289.46 Q397.599 1288.72 395.635 1288.53 Q393.671 1288.35 390.707 1288.35 Q387.223 1288.35 386.371 1288.49 Q385.445 1288.72 385.222 1289.38 Q385 1290.01 385 1291.38 L385 1331.37 Q385 1332.89 385.296 1333.52 Q385.63 1334.11 387.372 1334.59 Q389.113 1335.04 392.967 1335.04 L396.005 1335.04 L396.005 1337.37 Q392.893 1337.15 381.591 1337.15 Q370.363 1337.15 367.251 1337.37 L367.251 1335.04 L370.289 1335.04 Q374.143 1335.04 375.884 1334.59 Q377.663 1334.11 377.96 1333.52 Q378.256 1332.89 378.256 1331.37 L378.256 1291.38 Q378.256 1290.31 378.182 1289.87 Q378.108 1289.42 377.774 1289.05 Q377.441 1288.64 376.663 1288.49 Q375.922 1288.35 372.587 1288.35 Q369.622 1288.35 367.621 1288.53 Q365.657 1288.72 364.138 1289.46 Q362.619 1290.16 361.804 1291.09 Q361.025 1291.98 360.358 1293.87 Q359.728 1295.72 359.469 1297.68 Q359.21 1299.65 358.913 1303.06 L357.023 1303.06 Z" fill="#000000" fill-rule="nonzero" fill-opacity="1" /><path clip-path="url(#clip580)" d="M411.717 1337.37 L411.717 1335.04 L413.532 1335.04 Q417.646 1335.04 418.572 1334.37 Q419.535 1333.66 419.535 1331.44 L419.535 1291.46 Q419.535 1289.27 418.572 1288.61 Q417.608 1287.9 413.532 1287.9 L411.717 1287.9 L411.717 1285.53 L439.471 1285.53 Q449.179 1285.53 455.923 1293.27 Q462.704 1301.02 462.704 1311.88 Q462.704 1322.51 455.886 1329.96 Q449.105 1337.37 439.471 1337.37 L411.717 1337.37 M426.057 1332 Q426.057 1333.96 426.613 1334.52 Q427.169 1335.04 429.763 1335.04 L437.433 1335.04 Q442.435 1335.04 445.807 1333 Q449.179 1330.92 450.921 1328.55 Q455.108 1322.84 455.108 1311.88 Q455.108 1300.35 451.18 1294.94 Q446.104 1287.9 437.359 1287.9 L429.763 1287.9 Q427.169 1287.9 426.613 1288.42 Q426.057 1288.94 426.057 1290.94 L426.057 1332 Z" fill="#000000" fill-rule="nonzero" fill-opacity="1" /><path clip-path="url(#clip580)" d="M700.247 1328.87 L700.247 1326.54 L702.063 1326.54 Q706.176 1326.54 707.102 1325.87 Q708.066 1325.17 708.066 1322.94 L708.066 1283.18 Q708.066 1281 707.102 1280.33 Q706.139 1279.62 702.063 1279.62 L700.247 1279.62 L700.247 1277.25 L741.897 1277.25 L744.009 1294.34 L742.119 1294.34 Q741.6 1290 740.896 1287.55 Q740.229 1285.07 738.673 1283.11 Q737.117 1281.14 734.486 1280.4 Q731.892 1279.62 727.631 1279.62 L718.515 1279.62 Q715.921 1279.62 715.365 1280.18 Q714.81 1280.7 714.81 1282.66 L714.81 1301.86 L721.331 1301.86 Q726.482 1301.86 727.927 1300 Q729.372 1298.15 729.372 1292.96 L731.262 1292.96 L731.262 1313.09 L729.372 1313.09 Q729.372 1307.86 727.927 1306.04 Q726.482 1304.19 721.331 1304.19 L714.81 1304.19 L714.81 1322.87 Q714.81 1324.46 715.069 1325.09 Q715.328 1325.68 716.922 1326.13 Q718.515 1326.54 721.998 1326.54 L724.518 1326.54 L724.518 1328.87 Q721.776 1328.65 711.771 1328.65 Q702.915 1328.65 700.247 1328.87 Z" fill="#000000" fill-rule="nonzero" fill-opacity="1" /><path clip-path="url(#clip580)" d="M750.012 1328.87 L750.012 1326.54 Q752.754 1326.54 754.496 1326.02 Q756.237 1325.46 756.867 1324.46 Q757.534 1323.42 757.682 1322.76 Q757.831 1322.05 757.831 1320.9 L757.831 1282.96 Q757.831 1280.77 756.867 1280.11 Q755.941 1279.4 751.828 1279.4 L750.012 1279.4 L750.012 1277.03 L762.833 1277.03 Q764.204 1277.03 764.575 1277.29 Q764.945 1277.51 765.501 1278.7 L781.953 1321.2 L798.554 1278.48 Q798.925 1277.4 799.258 1277.22 Q799.629 1277.03 801.074 1277.03 L813.895 1277.03 L813.895 1279.4 L812.079 1279.4 Q807.966 1279.4 807.003 1280.11 Q806.076 1280.77 806.076 1282.96 L806.076 1322.94 Q806.076 1325.13 807.003 1325.83 Q807.966 1326.54 812.079 1326.54 L813.895 1326.54 L813.895 1328.87 Q811.079 1328.65 803.038 1328.65 Q794.923 1328.65 792.106 1328.87 L792.106 1326.54 L793.959 1326.54 Q798.072 1326.54 798.999 1325.87 Q799.925 1325.17 799.925 1322.94 L799.925 1279.4 L799.851 1279.4 L781.212 1327.43 Q780.693 1328.87 779.841 1328.87 Q778.915 1328.87 778.322 1327.2 L760.017 1280 L759.943 1280 L759.943 1320.9 Q759.943 1322.05 760.091 1322.76 Q760.239 1323.42 760.869 1324.46 Q761.536 1325.46 763.278 1326.02 Q765.019 1326.54 767.761 1326.54 L767.761 1328.87 Q759.794 1328.65 758.868 1328.65 Q757.979 1328.65 750.012 1328.87 Z" fill="#000000" fill-rule="nonzero" fill-opacity="1" /><path clip-path="url(#clip580)" d="M824.27 1327.65 Q823.196 1326.43 823.196 1324.83 Q823.196 1323.24 824.233 1322.05 Q825.308 1320.83 827.235 1320.83 Q829.495 1320.83 830.792 1323.02 Q832.089 1325.17 832.089 1328.8 Q832.089 1332.72 830.495 1336.36 Q828.902 1340.02 827.346 1341.77 Q825.789 1343.51 825.16 1343.51 Q824.418 1343.51 824.418 1342.69 Q824.418 1342.4 824.937 1341.84 Q830.384 1335.99 830.421 1328.8 Q830.421 1327.65 830.273 1327.65 L830.088 1327.8 Q828.791 1328.87 827.235 1328.87 Q825.345 1328.87 824.27 1327.65 Z" fill="#000000" fill-rule="nonzero" fill-opacity="1" /><path clip-path="url(#clip580)" d="M900.652 1310 Q900.652 1313.55 898.825 1317.1 Q896.998 1320.65 894.012 1323.39 Q891.026 1326.1 886.95 1327.85 Q882.875 1329.61 878.623 1329.75 L875.883 1340.46 Q875.356 1343.06 875.075 1343.35 Q874.794 1343.63 874.372 1343.63 Q873.494 1343.63 873.494 1342.82 Q873.494 1342.57 875.075 1336.49 L876.761 1329.75 Q870.367 1329.4 866.643 1325.71 Q862.919 1322.02 862.919 1316.71 Q862.919 1313.13 864.746 1309.58 Q866.608 1306 869.594 1303.29 Q872.616 1300.59 876.691 1298.87 Q880.767 1297.15 884.947 1297 L889.128 1280.39 Q889.339 1279.44 889.515 1279.19 Q889.69 1278.95 890.217 1278.95 Q890.604 1278.95 890.815 1279.12 Q891.026 1279.3 891.026 1279.47 L891.061 1279.65 L890.85 1280.67 L886.81 1297 Q890.393 1297.25 893.169 1298.52 Q895.944 1299.78 897.525 1301.68 Q899.106 1303.54 899.879 1305.65 Q900.652 1307.76 900.652 1310 M884.526 1298.59 Q880.661 1298.94 877.394 1300.83 Q874.126 1302.73 872.018 1305.54 Q869.91 1308.32 868.751 1311.66 Q867.591 1314.96 867.591 1318.23 Q867.591 1320.79 868.435 1322.76 Q869.313 1324.73 870.753 1325.85 Q872.194 1326.94 873.775 1327.54 Q875.391 1328.1 877.113 1328.17 L884.526 1298.59 M895.944 1308.49 Q895.944 1303.93 893.309 1301.36 Q890.674 1298.8 886.388 1298.59 L878.975 1328.17 Q882.102 1327.92 884.842 1326.62 Q887.618 1325.29 889.62 1323.32 Q891.623 1321.32 893.063 1318.86 Q894.504 1316.36 895.206 1313.73 Q895.944 1311.06 895.944 1308.49 Z" fill="#000000" fill-rule="nonzero" fill-opacity="1" /><path clip-path="url(#clip580)" d="M934.941 1317.35 Q935.015 1316.42 936.461 1316.42 L982.965 1316.42 Q985.151 1316.42 985.188 1317.27 Q985.188 1318.2 983.113 1318.16 L936.979 1318.16 Q934.941 1318.2 934.941 1317.35 M934.941 1302.52 Q934.941 1301.6 936.535 1301.64 L982.891 1301.64 Q985.151 1301.64 985.188 1302.52 Q985.188 1303.38 983.261 1303.38 L936.461 1303.38 Q934.941 1303.38 934.941 1302.52 Z" fill="#000000" fill-rule="nonzero" fill-opacity="1" /><path clip-path="url(#clip580)" d="M1017.83 1304.6 Q1017.83 1293.45 1020.65 1287.37 Q1024.58 1278.33 1033.84 1278.33 Q1035.81 1278.33 1037.84 1278.88 Q1039.92 1279.4 1042.51 1281.44 Q1045.14 1283.48 1046.74 1286.81 Q1049.77 1293.26 1049.77 1304.6 Q1049.77 1315.68 1046.96 1321.72 Q1042.85 1330.54 1033.77 1330.54 Q1030.36 1330.54 1026.87 1328.8 Q1023.43 1327.06 1021.24 1322.87 Q1017.83 1316.61 1017.83 1304.6 M1024.13 1303.67 Q1024.13 1315.12 1024.95 1319.68 Q1025.87 1324.61 1028.39 1326.76 Q1030.95 1328.87 1033.77 1328.87 Q1036.81 1328.87 1039.33 1326.61 Q1041.88 1324.31 1042.66 1319.38 Q1043.51 1314.53 1043.48 1303.67 Q1043.48 1293.11 1042.73 1288.89 Q1041.73 1283.96 1039.07 1282 Q1036.44 1280 1033.77 1280 Q1032.77 1280 1031.69 1280.29 Q1030.65 1280.59 1029.14 1281.44 Q1027.62 1282.29 1026.43 1284.4 Q1025.28 1286.52 1024.73 1289.7 Q1024.13 1293.82 1024.13 1303.67 Z" fill="#000000" fill-rule="nonzero" fill-opacity="1" /><path clip-path="url(#clip580)" d="M1060.41 1327.65 Q1059.26 1326.43 1059.26 1324.83 Q1059.26 1323.24 1060.41 1322.09 Q1061.56 1320.9 1063.3 1320.9 Q1064.97 1320.9 1066.08 1322.02 Q1067.23 1323.09 1067.23 1324.87 Q1067.23 1326.61 1066 1327.76 Q1064.82 1328.87 1063.3 1328.87 Q1061.56 1328.87 1060.41 1327.65 Z" fill="#000000" fill-rule="nonzero" fill-opacity="1" /><path clip-path="url(#clip580)" d="M1076.86 1304.6 Q1076.86 1293.45 1079.68 1287.37 Q1083.61 1278.33 1092.87 1278.33 Q1094.83 1278.33 1096.87 1278.88 Q1098.95 1279.4 1101.54 1281.44 Q1104.17 1283.48 1105.77 1286.81 Q1108.8 1293.26 1108.8 1304.6 Q1108.8 1315.68 1105.99 1321.72 Q1101.87 1330.54 1092.8 1330.54 Q1089.39 1330.54 1085.9 1328.8 Q1082.46 1327.06 1080.27 1322.87 Q1076.86 1316.61 1076.86 1304.6 M1083.16 1303.67 Q1083.16 1315.12 1083.98 1319.68 Q1084.9 1324.61 1087.42 1326.76 Q1089.98 1328.87 1092.8 1328.87 Q1095.83 1328.87 1098.35 1326.61 Q1100.91 1324.31 1101.69 1319.38 Q1102.54 1314.53 1102.5 1303.67 Q1102.5 1293.11 1101.76 1288.89 Q1100.76 1283.96 1098.09 1282 Q1095.46 1280 1092.8 1280 Q1091.8 1280 1090.72 1280.29 Q1089.68 1280.59 1088.16 1281.44 Q1086.64 1282.29 1085.46 1284.4 Q1084.31 1286.52 1083.75 1289.7 Q1083.16 1293.82 1083.16 1303.67 Z" fill="#000000" fill-rule="nonzero" fill-opacity="1" /><path clip-path="url(#clip580)" d="M1115.62 1316.64 Q1115.62 1314.38 1116.84 1313.53 Q1118.07 1312.64 1119.36 1312.64 Q1121.11 1312.64 1122.11 1313.75 Q1123.14 1314.83 1123.14 1316.35 Q1123.14 1317.87 1122.11 1318.98 Q1121.11 1320.05 1119.36 1320.05 Q1118.51 1320.05 1118.07 1319.9 Q1119.07 1323.39 1122.11 1325.91 Q1125.18 1328.43 1129.22 1328.43 Q1134.3 1328.43 1137.34 1323.5 Q1139.15 1320.31 1139.15 1313.09 Q1139.15 1306.71 1137.78 1303.53 Q1135.67 1298.67 1131.33 1298.67 Q1125.18 1298.67 1121.55 1303.97 Q1121.11 1304.64 1120.59 1304.67 Q1119.85 1304.67 1119.66 1304.27 Q1119.51 1303.82 1119.51 1302.67 L1119.51 1280.22 Q1119.51 1278.4 1120.25 1278.4 Q1120.55 1278.4 1121.18 1278.62 Q1125.96 1280.74 1131.26 1280.77 Q1136.71 1280.77 1141.6 1278.55 Q1141.97 1278.33 1142.19 1278.33 Q1142.93 1278.33 1142.97 1279.18 Q1142.97 1279.48 1142.34 1280.37 Q1141.75 1281.22 1140.45 1282.37 Q1139.15 1283.48 1137.48 1284.55 Q1135.82 1285.63 1133.37 1286.37 Q1130.96 1287.07 1128.29 1287.07 Q1125.11 1287.07 1121.85 1286.07 L1121.85 1300.86 Q1125.77 1297 1131.48 1297 Q1137.56 1297 1141.75 1301.89 Q1145.93 1306.79 1145.93 1313.6 Q1145.93 1320.76 1140.97 1325.65 Q1136.04 1330.54 1129.37 1330.54 Q1123.29 1330.54 1119.44 1326.2 Q1115.62 1321.87 1115.62 1316.64 Z" fill="#000000" fill-rule="nonzero" fill-opacity="1" /><path clip-path="url(#clip580)" d="M1233.59 1328.87 L1233.59 1326.54 L1235.41 1326.54 Q1239.52 1326.54 1240.45 1325.87 Q1241.41 1325.17 1241.41 1322.94 L1241.41 1283.18 Q1241.41 1281 1240.45 1280.33 Q1239.49 1279.62 1235.41 1279.62 L1233.59 1279.62 L1233.59 1277.25 L1275.24 1277.25 L1277.36 1294.34 L1275.47 1294.34 Q1274.95 1290 1274.24 1287.55 Q1273.58 1285.07 1272.02 1283.11 Q1270.46 1281.14 1267.83 1280.4 Q1265.24 1279.62 1260.98 1279.62 L1251.86 1279.62 Q1249.27 1279.62 1248.71 1280.18 Q1248.16 1280.7 1248.16 1282.66 L1248.16 1301.86 L1254.68 1301.86 Q1259.83 1301.86 1261.27 1300 Q1262.72 1298.15 1262.72 1292.96 L1264.61 1292.96 L1264.61 1313.09 L1262.72 1313.09 Q1262.72 1307.86 1261.27 1306.04 Q1259.83 1304.19 1254.68 1304.19 L1248.16 1304.19 L1248.16 1322.87 Q1248.16 1324.46 1248.42 1325.09 Q1248.68 1325.68 1250.27 1326.13 Q1251.86 1326.54 1255.35 1326.54 L1257.86 1326.54 L1257.86 1328.87 Q1255.12 1328.65 1245.12 1328.65 Q1236.26 1328.65 1233.59 1328.87 Z" fill="#000000" fill-rule="nonzero" fill-opacity="1" /><path clip-path="url(#clip580)" d="M1283.36 1328.87 L1283.36 1326.54 Q1286.1 1326.54 1287.84 1326.02 Q1289.58 1325.46 1290.21 1324.46 Q1290.88 1323.42 1291.03 1322.76 Q1291.18 1322.05 1291.18 1320.9 L1291.18 1282.96 Q1291.18 1280.77 1290.21 1280.11 Q1289.29 1279.4 1285.17 1279.4 L1283.36 1279.4 L1283.36 1277.03 L1296.18 1277.03 Q1297.55 1277.03 1297.92 1277.29 Q1298.29 1277.51 1298.85 1278.7 L1315.3 1321.2 L1331.9 1278.48 Q1332.27 1277.4 1332.6 1277.22 Q1332.98 1277.03 1334.42 1277.03 L1347.24 1277.03 L1347.24 1279.4 L1345.43 1279.4 Q1341.31 1279.4 1340.35 1280.11 Q1339.42 1280.77 1339.42 1282.96 L1339.42 1322.94 Q1339.42 1325.13 1340.35 1325.83 Q1341.31 1326.54 1345.43 1326.54 L1347.24 1326.54 L1347.24 1328.87 Q1344.43 1328.65 1336.38 1328.65 Q1328.27 1328.65 1325.45 1328.87 L1325.45 1326.54 L1327.31 1326.54 Q1331.42 1326.54 1332.35 1325.87 Q1333.27 1325.17 1333.27 1322.94 L1333.27 1279.4 L1333.2 1279.4 L1314.56 1327.43 Q1314.04 1328.87 1313.19 1328.87 Q1312.26 1328.87 1311.67 1327.2 L1293.36 1280 L1293.29 1280 L1293.29 1320.9 Q1293.29 1322.05 1293.44 1322.76 Q1293.59 1323.42 1294.22 1324.46 Q1294.88 1325.46 1296.62 1326.02 Q1298.37 1326.54 1301.11 1326.54 L1301.11 1328.87 Q1293.14 1328.65 1292.21 1328.65 Q1291.33 1328.65 1283.36 1328.87 Z" fill="#000000" fill-rule="nonzero" fill-opacity="1" /><path clip-path="url(#clip580)" d="M1357.62 1327.65 Q1356.54 1326.43 1356.54 1324.83 Q1356.54 1323.24 1357.58 1322.05 Q1358.65 1320.83 1360.58 1320.83 Q1362.84 1320.83 1364.14 1323.02 Q1365.44 1325.17 1365.44 1328.8 Q1365.44 1332.72 1363.84 1336.36 Q1362.25 1340.02 1360.69 1341.77 Q1359.14 1343.51 1358.51 1343.51 Q1357.77 1343.51 1357.77 1342.69 Q1357.77 1342.4 1358.28 1341.84 Q1363.73 1335.99 1363.77 1328.8 Q1363.77 1327.65 1363.62 1327.65 L1363.43 1327.8 Q1362.14 1328.87 1360.58 1328.87 Q1358.69 1328.87 1357.62 1327.65 Z" fill="#000000" fill-rule="nonzero" fill-opacity="1" /><path clip-path="url(#clip580)" d="M1434 1310 Q1434 1313.55 1432.17 1317.1 Q1430.35 1320.65 1427.36 1323.39 Q1424.37 1326.1 1420.3 1327.85 Q1416.22 1329.61 1411.97 1329.75 L1409.23 1340.46 Q1408.7 1343.06 1408.42 1343.35 Q1408.14 1343.63 1407.72 1343.63 Q1406.84 1343.63 1406.84 1342.82 Q1406.84 1342.57 1408.42 1336.49 L1410.11 1329.75 Q1403.71 1329.4 1399.99 1325.71 Q1396.27 1322.02 1396.27 1316.71 Q1396.27 1313.13 1398.09 1309.58 Q1399.95 1306 1402.94 1303.29 Q1405.96 1300.59 1410.04 1298.87 Q1414.11 1297.15 1418.29 1297 L1422.48 1280.39 Q1422.69 1279.44 1422.86 1279.19 Q1423.04 1278.95 1423.56 1278.95 Q1423.95 1278.95 1424.16 1279.12 Q1424.37 1279.3 1424.37 1279.47 L1424.41 1279.65 L1424.2 1280.67 L1420.16 1297 Q1423.74 1297.25 1426.52 1298.52 Q1429.29 1299.78 1430.87 1301.68 Q1432.45 1303.54 1433.23 1305.65 Q1434 1307.76 1434 1310 M1417.87 1298.59 Q1414.01 1298.94 1410.74 1300.83 Q1407.47 1302.73 1405.36 1305.54 Q1403.26 1308.32 1402.1 1311.66 Q1400.94 1314.96 1400.94 1318.23 Q1400.94 1320.79 1401.78 1322.76 Q1402.66 1324.73 1404.1 1325.85 Q1405.54 1326.94 1407.12 1327.54 Q1408.74 1328.1 1410.46 1328.17 L1417.87 1298.59 M1429.29 1308.49 Q1429.29 1303.93 1426.66 1301.36 Q1424.02 1298.8 1419.73 1298.59 L1412.32 1328.17 Q1415.45 1327.92 1418.19 1326.62 Q1420.96 1325.29 1422.97 1323.32 Q1424.97 1321.32 1426.41 1318.86 Q1427.85 1316.36 1428.55 1313.73 Q1429.29 1311.06 1429.29 1308.49 Z" fill="#000000" fill-rule="nonzero" fill-opacity="1" /><path clip-path="url(#clip580)" d="M1468.29 1317.35 Q1468.36 1316.42 1469.81 1316.42 L1516.31 1316.42 Q1518.5 1316.42 1518.53 1317.27 Q1518.53 1318.2 1516.46 1318.16 L1470.33 1318.16 Q1468.29 1318.2 1468.29 1317.35 M1468.29 1302.52 Q1468.29 1301.6 1469.88 1301.64 L1516.24 1301.64 Q1518.5 1301.64 1518.53 1302.52 Q1518.53 1303.38 1516.61 1303.38 L1469.81 1303.38 Q1468.29 1303.38 1468.29 1302.52 Z" fill="#000000" fill-rule="nonzero" fill-opacity="1" /><path clip-path="url(#clip580)" d="M1551.18 1304.6 Q1551.18 1293.45 1554 1287.37 Q1557.92 1278.33 1567.19 1278.33 Q1569.15 1278.33 1571.19 1278.88 Q1573.26 1279.4 1575.86 1281.44 Q1578.49 1283.48 1580.08 1286.81 Q1583.12 1293.26 1583.12 1304.6 Q1583.12 1315.68 1580.31 1321.72 Q1576.19 1330.54 1567.11 1330.54 Q1563.7 1330.54 1560.22 1328.8 Q1556.78 1327.06 1554.59 1322.87 Q1551.18 1316.61 1551.18 1304.6 M1557.48 1303.67 Q1557.48 1315.12 1558.29 1319.68 Q1559.22 1324.61 1561.74 1326.76 Q1564.3 1328.87 1567.11 1328.87 Q1570.15 1328.87 1572.67 1326.61 Q1575.23 1324.31 1576.01 1319.38 Q1576.86 1314.53 1576.82 1303.67 Q1576.82 1293.11 1576.08 1288.89 Q1575.08 1283.96 1572.41 1282 Q1569.78 1280 1567.11 1280 Q1566.11 1280 1565.04 1280.29 Q1564 1280.59 1562.48 1281.44 Q1560.96 1282.29 1559.78 1284.4 Q1558.63 1286.52 1558.07 1289.7 Q1557.48 1293.82 1557.48 1303.67 Z" fill="#000000" fill-rule="nonzero" fill-opacity="1" /><path clip-path="url(#clip580)" d="M1593.76 1327.65 Q1592.61 1326.43 1592.61 1324.83 Q1592.61 1323.24 1593.76 1322.09 Q1594.91 1320.9 1596.65 1320.9 Q1598.31 1320.9 1599.43 1322.02 Q1600.57 1323.09 1600.57 1324.87 Q1600.57 1326.61 1599.35 1327.76 Q1598.17 1328.87 1596.65 1328.87 Q1594.91 1328.87 1593.76 1327.65 Z" fill="#000000" fill-rule="nonzero" fill-opacity="1" /><path clip-path="url(#clip580)" d="M1613.99 1285.55 L1613.99 1283.18 Q1623.1 1283.18 1627.81 1278.33 Q1629.11 1278.33 1629.33 1278.62 Q1629.55 1278.92 1629.55 1280.29 L1629.55 1322.87 Q1629.55 1325.13 1630.66 1325.83 Q1631.77 1326.54 1636.63 1326.54 L1639.04 1326.54 L1639.04 1328.87 Q1636.37 1328.65 1626.74 1328.65 Q1617.1 1328.65 1614.47 1328.87 L1614.47 1326.54 L1616.88 1326.54 Q1621.66 1326.54 1622.81 1325.87 Q1623.96 1325.17 1623.96 1322.87 L1623.96 1283.55 Q1619.99 1285.55 1613.99 1285.55 Z" fill="#000000" fill-rule="nonzero" fill-opacity="1" /><polyline clip-path="url(#clip582)" style="stroke:#000000; stroke-linecap:round; stroke-linejoin:round; stroke-width:2; stroke-opacity:0.1; fill:none" points="193.424,1258.97 1652.76,1258.97 "/>
<polyline clip-path="url(#clip582)" style="stroke:#000000; stroke-linecap:round; stroke-linejoin:round; stroke-width:2; stroke-opacity:0.1; fill:none" points="193.424,1016.63 1652.76,1016.63 "/>
<polyline clip-path="url(#clip582)" style="stroke:#000000; stroke-linecap:round; stroke-linejoin:round; stroke-width:2; stroke-opacity:0.1; fill:none" points="193.424,774.28 1652.76,774.28 "/>
<polyline clip-path="url(#clip582)" style="stroke:#000000; stroke-linecap:round; stroke-linejoin:round; stroke-width:2; stroke-opacity:0.1; fill:none" points="193.424,531.935 1652.76,531.935 "/>
<polyline clip-path="url(#clip582)" style="stroke:#000000; stroke-linecap:round; stroke-linejoin:round; stroke-width:2; stroke-opacity:0.1; fill:none" points="193.424,289.589 1652.76,289.589 "/>
<polyline clip-path="url(#clip582)" style="stroke:#000000; stroke-linecap:round; stroke-linejoin:round; stroke-width:2; stroke-opacity:0.1; fill:none" points="193.424,47.2441 1652.76,47.2441 "/>
<polyline clip-path="url(#clip580)" style="stroke:#000000; stroke-linecap:round; stroke-linejoin:round; stroke-width:4; stroke-opacity:1; fill:none" points="193.424,1258.97 193.424,47.2441 "/>
<polyline clip-path="url(#clip580)" style="stroke:#000000; stroke-linecap:round; stroke-linejoin:round; stroke-width:4; stroke-opacity:1; fill:none" points="1652.76,1258.97 1652.76,47.2441 "/>
<polyline clip-path="url(#clip580)" style="stroke:#000000; stroke-linecap:round; stroke-linejoin:round; stroke-width:4; stroke-opacity:1; fill:none" points="193.424,1258.97 212.321,1258.97 "/>
<polyline clip-path="url(#clip580)" style="stroke:#000000; stroke-linecap:round; stroke-linejoin:round; stroke-width:4; stroke-opacity:1; fill:none" points="193.424,1016.63 212.321,1016.63 "/>
<polyline clip-path="url(#clip580)" style="stroke:#000000; stroke-linecap:round; stroke-linejoin:round; stroke-width:4; stroke-opacity:1; fill:none" points="193.424,774.28 212.321,774.28 "/>
<polyline clip-path="url(#clip580)" style="stroke:#000000; stroke-linecap:round; stroke-linejoin:round; stroke-width:4; stroke-opacity:1; fill:none" points="193.424,531.935 212.321,531.935 "/>
<polyline clip-path="url(#clip580)" style="stroke:#000000; stroke-linecap:round; stroke-linejoin:round; stroke-width:4; stroke-opacity:1; fill:none" points="193.424,289.589 212.321,289.589 "/>
<polyline clip-path="url(#clip580)" style="stroke:#000000; stroke-linecap:round; stroke-linejoin:round; stroke-width:4; stroke-opacity:1; fill:none" points="193.424,47.2441 212.321,47.2441 "/>
<path clip-path="url(#clip580)" d="M135.982 1260.62 Q135.982 1249.47 138.799 1243.39 Q142.726 1234.35 151.99 1234.35 Q153.954 1234.35 155.992 1234.9 Q158.067 1235.42 160.661 1237.46 Q163.292 1239.5 164.885 1242.83 Q167.924 1249.28 167.924 1260.62 Q167.924 1271.7 165.108 1277.74 Q160.994 1286.56 151.916 1286.56 Q148.507 1286.56 145.024 1284.82 Q141.578 1283.07 139.391 1278.89 Q135.982 1272.63 135.982 1260.62 M142.282 1259.69 Q142.282 1271.14 143.097 1275.7 Q144.023 1280.63 146.543 1282.78 Q149.1 1284.89 151.916 1284.89 Q154.955 1284.89 157.474 1282.63 Q160.031 1280.33 160.809 1275.4 Q161.661 1270.55 161.624 1259.69 Q161.624 1249.13 160.883 1244.91 Q159.883 1239.98 157.215 1238.02 Q154.584 1236.01 151.916 1236.01 Q150.916 1236.01 149.841 1236.31 Q148.803 1236.61 147.284 1237.46 Q145.765 1238.31 144.579 1240.42 Q143.43 1242.54 142.875 1245.72 Q142.282 1249.84 142.282 1259.69 Z" fill="#000000" fill-rule="nonzero" fill-opacity="1" /><path clip-path="url(#clip580)" d="M142.875 999.228 L142.875 996.856 Q151.99 996.856 156.696 992.002 Q157.993 992.002 158.215 992.298 Q158.438 992.595 158.438 993.966 L158.438 1036.54 Q158.438 1038.8 159.549 1039.51 Q160.661 1040.21 165.515 1040.21 L167.924 1040.21 L167.924 1042.55 Q165.256 1042.32 155.622 1042.32 Q145.987 1042.32 143.356 1042.55 L143.356 1040.21 L145.765 1040.21 Q150.545 1040.21 151.694 1039.54 Q152.842 1038.84 152.842 1036.54 L152.842 997.227 Q148.877 999.228 142.875 999.228 Z" fill="#000000" fill-rule="nonzero" fill-opacity="1" /><path clip-path="url(#clip580)" d="M137.613 800.2 Q137.613 798.829 137.724 798.421 Q137.872 798.014 138.465 797.384 L153.028 781.153 Q160.994 772.186 160.994 764.368 Q160.994 759.291 158.327 755.66 Q155.696 752.028 150.841 752.028 Q147.506 752.028 144.69 754.066 Q141.874 756.104 140.577 759.736 Q140.799 759.662 141.578 759.662 Q143.467 759.662 144.505 760.847 Q145.58 762.033 145.58 763.626 Q145.58 765.664 144.246 766.665 Q142.949 767.628 141.652 767.628 Q141.133 767.628 140.429 767.517 Q139.762 767.406 138.687 766.369 Q137.613 765.294 137.613 763.404 Q137.613 758.105 141.615 753.881 Q145.654 749.657 151.805 749.657 Q158.771 749.657 163.329 753.807 Q167.924 757.92 167.924 764.368 Q167.924 766.628 167.22 768.703 Q166.553 770.741 165.626 772.334 Q164.737 773.928 162.291 776.485 Q159.846 779.041 157.882 780.857 Q155.918 782.673 151.508 786.526 L143.467 794.345 L157.141 794.345 Q163.811 794.345 164.329 793.752 Q165.071 792.678 165.997 787.008 L167.924 787.008 L165.775 800.2 L137.613 800.2 Z" fill="#000000" fill-rule="nonzero" fill-opacity="1" /><path clip-path="url(#clip580)" d="M136.427 547.627 Q136.427 545.367 137.724 544.292 Q139.021 543.218 140.688 543.218 Q142.43 543.218 143.653 544.367 Q144.913 545.478 144.913 547.442 Q144.913 549.554 143.43 550.74 Q141.985 551.926 139.91 551.629 Q141.726 554.668 145.061 556.039 Q148.433 557.41 151.545 557.41 Q154.806 557.41 157.437 554.594 Q160.105 551.778 160.105 544.885 Q160.105 539.031 157.808 535.659 Q155.547 532.287 151.064 532.287 L147.729 532.287 Q146.58 532.287 146.247 532.175 Q145.913 532.064 145.913 531.434 Q145.913 530.693 147.062 530.545 Q148.21 530.545 150.026 530.323 Q154.436 530.174 156.77 526.358 Q158.882 522.8 158.882 517.724 Q158.882 513.092 156.659 511.165 Q154.473 509.201 151.62 509.201 Q148.952 509.201 146.024 510.313 Q143.097 511.425 141.504 513.907 Q146.21 513.907 146.21 517.724 Q146.21 519.391 145.135 520.503 Q144.097 521.578 142.356 521.578 Q140.688 521.578 139.577 520.54 Q138.465 519.466 138.465 517.65 Q138.465 513.314 142.319 510.313 Q146.21 507.311 151.916 507.311 Q157.548 507.311 161.699 510.276 Q165.886 513.24 165.886 517.798 Q165.886 522.282 162.921 525.95 Q159.957 529.619 155.251 531.138 Q161.032 532.287 164.478 536.214 Q167.924 540.105 167.924 544.885 Q167.924 550.814 163.255 555.187 Q158.586 559.522 151.768 559.522 Q145.468 559.522 140.948 556.113 Q136.427 552.704 136.427 547.627 Z" fill="#000000" fill-rule="nonzero" fill-opacity="1" /><path clip-path="url(#clip580)" d="M134.278 302.985 L134.278 300.65 L157.585 265.04 Q158.178 264.114 159.105 264.151 Q159.957 264.151 160.142 264.485 Q160.327 264.818 160.327 266.115 L160.327 300.65 L167.924 300.65 L167.924 302.985 L160.327 302.985 L160.327 309.581 Q160.327 311.767 161.217 312.471 Q162.143 313.175 166.071 313.175 L167.664 313.175 L167.664 315.509 Q164.552 315.287 157.363 315.287 Q150.211 315.287 147.099 315.509 L147.099 313.175 L148.692 313.175 Q152.62 313.175 153.546 312.508 Q154.473 311.804 154.473 309.581 L154.473 302.985 L134.278 302.985 M136.427 300.65 L154.917 300.65 L154.917 272.34 L136.427 300.65 Z" fill="#000000" fill-rule="nonzero" fill-opacity="1" /><path clip-path="url(#clip580)" d="M137.613 60.9359 Q137.613 58.6756 138.836 57.8233 Q140.058 56.934 141.355 56.934 Q143.097 56.934 144.097 58.0456 Q145.135 59.1202 145.135 60.6395 Q145.135 62.1587 144.097 63.2704 Q143.097 64.345 141.355 64.345 Q140.503 64.345 140.058 64.1968 Q141.059 67.6799 144.097 70.1997 Q147.173 72.7194 151.212 72.7194 Q156.288 72.7194 159.327 67.7911 Q161.143 64.6044 161.143 57.3786 Q161.143 51.0052 159.772 47.8184 Q157.66 42.9642 153.324 42.9642 Q147.173 42.9642 143.542 48.2631 Q143.097 48.9301 142.578 48.9672 Q141.837 48.9672 141.652 48.5595 Q141.504 48.1149 141.504 46.9662 L141.504 24.5108 Q141.504 22.6951 142.245 22.6951 Q142.541 22.6951 143.171 22.9175 Q147.951 25.0296 153.25 25.0667 Q158.697 25.0667 163.588 22.8434 Q163.959 22.621 164.181 22.621 Q164.922 22.621 164.959 23.4733 Q164.959 23.7697 164.329 24.659 Q163.737 25.5113 162.44 26.66 Q161.143 27.7717 159.475 28.8463 Q157.808 29.9209 155.362 30.662 Q152.954 31.366 150.286 31.366 Q147.099 31.366 143.838 30.3655 L143.838 45.1505 Q147.766 41.2968 153.472 41.2968 Q159.549 41.2968 163.737 46.188 Q167.924 51.0793 167.924 57.8974 Q167.924 65.049 162.958 69.9403 Q158.03 74.8316 151.36 74.8316 Q145.283 74.8316 141.429 70.4961 Q137.613 66.1607 137.613 60.9359 Z" fill="#000000" fill-rule="nonzero" fill-opacity="1" /><path clip-path="url(#clip580)" d="M93.2258 1312.48 L90.8913 1312.48 Q90.8913 1309.74 90.3726 1308 Q89.8167 1306.26 88.8163 1305.63 Q87.7787 1304.96 87.1117 1304.81 Q86.4077 1304.66 85.259 1304.66 L47.3146 1304.66 Q45.1284 1304.66 44.4614 1305.63 Q43.7573 1306.55 43.7573 1310.67 L43.7573 1312.48 L41.3858 1312.48 L41.3858 1299.66 Q41.3858 1298.29 41.6452 1297.92 Q41.8675 1297.55 43.0533 1296.99 L85.5554 1280.54 L42.831 1263.94 Q41.7564 1263.57 41.5711 1263.24 Q41.3858 1262.87 41.3858 1261.42 L41.3858 1248.6 L43.7573 1248.6 L43.7573 1250.42 Q43.7573 1254.53 44.4614 1255.49 Q45.1284 1256.42 47.3146 1256.42 L87.297 1256.42 Q89.4832 1256.42 90.1873 1255.49 Q90.8913 1254.53 90.8913 1250.42 L90.8913 1248.6 L93.2258 1248.6 Q93.0035 1251.42 93.0035 1259.46 Q93.0035 1267.57 93.2258 1270.39 L90.8913 1270.39 L90.8913 1268.54 Q90.8913 1264.42 90.2243 1263.5 Q89.5203 1262.57 87.297 1262.57 L43.7573 1262.57 L43.7573 1262.64 L91.7807 1281.28 Q93.2258 1281.8 93.2258 1282.65 Q93.2258 1283.58 91.5583 1284.17 L44.3502 1302.48 L44.3502 1302.55 L85.259 1302.55 Q86.4077 1302.55 87.1117 1302.4 Q87.7787 1302.26 88.8163 1301.63 Q89.8167 1300.96 90.3726 1299.22 Q90.8913 1297.48 90.8913 1294.73 L93.2258 1294.73 Q93.0035 1302.7 93.0035 1303.63 Q93.0035 1304.52 93.2258 1312.48 Z" fill="#000000" fill-rule="nonzero" fill-opacity="1" /><path clip-path="url(#clip580)" d="M76.514 1243.71 Q69.3624 1243.71 64.2858 1239.11 Q59.2093 1234.52 59.2093 1227.92 Q59.2093 1221.25 63.5447 1217.81 Q67.8802 1214.32 74.1054 1214.32 Q75.2541 1214.32 75.4764 1214.62 Q75.6988 1214.92 75.6988 1216.21 L75.6988 1237.41 Q83.4433 1237.41 87.0747 1235.11 Q92.1512 1231.93 92.1512 1226.55 Q92.1512 1225.81 92.003 1224.92 Q91.8548 1224.03 91.2248 1222.22 Q90.5578 1220.4 88.8163 1218.81 Q87.0747 1217.21 84.3326 1216.29 Q83.258 1216.07 83.2951 1215.32 Q83.2951 1214.32 84.1844 1214.32 Q84.8514 1214.32 86.3706 1215.07 Q87.8528 1215.77 89.6315 1217.14 Q91.4101 1218.51 92.7441 1221.18 Q94.0781 1223.81 94.0781 1227 Q94.0781 1233.67 89.0386 1238.71 Q83.962 1243.71 76.514 1243.71 M74.1054 1237.34 L74.1054 1219.33 Q72.512 1219.33 70.7334 1219.62 Q68.9548 1219.88 66.5091 1220.7 Q64.0264 1221.48 62.4701 1223.33 Q60.9138 1225.18 60.9138 1227.92 Q60.9138 1229.15 61.4326 1230.48 Q61.9514 1231.78 63.2112 1233.37 Q64.4711 1234.96 67.3243 1236.08 Q70.1776 1237.19 74.1054 1237.34 Z" fill="#000000" fill-rule="nonzero" fill-opacity="1" /><path clip-path="url(#clip580)" d="M86.0001 1208.95 Q79.5525 1208.95 76.1434 1201.35 Q73.9572 1196.8 73.4014 1187.39 L70.6222 1187.39 Q65.9162 1187.39 63.4336 1189.87 Q60.9138 1192.31 60.9138 1195.43 Q60.9138 1200.98 64.397 1203.65 Q64.4711 1201.39 65.6198 1200.58 Q66.7315 1199.76 67.8802 1199.76 Q69.3994 1199.76 70.3999 1200.73 Q71.3633 1201.65 71.3633 1203.24 Q71.3633 1204.76 70.437 1205.76 Q69.4735 1206.77 67.806 1206.77 Q64.1005 1206.77 61.6549 1203.43 Q59.2093 1200.06 59.2093 1195.28 Q59.2093 1189.05 63.3965 1184.9 Q64.6934 1183.61 66.3609 1182.98 Q68.0284 1182.31 69.14 1182.23 Q70.2146 1182.16 72.3638 1182.16 L87.5193 1182.16 Q87.964 1182.16 88.7051 1182.01 Q89.4462 1181.86 90.4096 1181.2 Q91.336 1180.49 91.336 1179.34 Q91.336 1176.6 86.4818 1176.64 L82.2205 1176.64 L82.2205 1174.71 L86.4818 1174.71 Q90.5208 1174.71 92.1142 1176.86 Q93.6705 1178.97 93.6705 1180.94 Q93.6705 1183.46 91.8177 1185.05 Q89.965 1186.64 87.4452 1186.87 Q90.3355 1188.02 92.2253 1190.65 Q94.0781 1193.24 94.0781 1196.8 Q94.0781 1199.54 93.374 1202.13 Q92.707 1204.69 90.8172 1206.84 Q88.8904 1208.95 86.0001 1208.95 M85.926 1203.1 Q88.7421 1203.1 90.5578 1201.1 Q92.3735 1199.09 92.3735 1196.28 Q92.3735 1193.09 89.9279 1190.24 Q87.4452 1187.39 82.591 1187.39 L74.9947 1187.39 Q75.2912 1195.8 78.6632 1199.47 Q81.9981 1203.1 85.926 1203.1 Z" fill="#000000" fill-rule="nonzero" fill-opacity="1" /><path clip-path="url(#clip580)" d="M93.2258 1171.75 L90.8913 1171.75 Q90.8913 1167.71 90.4096 1166.78 Q89.8909 1165.86 87.4452 1165.86 L67.102 1165.86 Q64.2858 1165.86 63.5818 1166.86 Q62.8777 1167.82 62.8777 1171.75 L60.5062 1171.75 L59.691 1161.08 L67.6578 1161.08 Q59.691 1157.52 59.691 1149.85 Q59.691 1144.14 62.5072 1141.88 Q64.397 1140.21 66.5091 1139.88 Q68.6213 1139.51 74.1054 1139.51 L88.5939 1139.51 Q90.1873 1139.44 90.5578 1138.21 Q90.8913 1136.99 90.8913 1133.58 L93.2258 1133.58 Q93.0035 1141.33 93.0035 1142.1 Q93.0035 1142.7 93.2258 1150.66 L90.8913 1150.66 Q90.8913 1146.62 90.4096 1145.7 Q89.8909 1144.73 87.4452 1144.73 L69.77 1144.73 Q65.9162 1144.73 63.6559 1145.92 Q61.3585 1147.11 61.3585 1150.37 Q61.3585 1154.3 64.6564 1157.44 Q67.9543 1160.59 73.5125 1160.59 L87.4452 1160.59 Q89.8909 1160.59 90.4096 1159.67 Q90.8913 1158.7 90.8913 1154.7 L93.2258 1154.7 Q93.0035 1162.45 93.0035 1163.19 Q93.0035 1163.78 93.2258 1171.75 Z" fill="#000000" fill-rule="nonzero" fill-opacity="1" /><path clip-path="url(#clip580)" d="M93.2258 1104.42 L90.8913 1104.42 Q90.8913 1100.38 90.4096 1099.45 Q89.8909 1098.53 87.4452 1098.53 L67.102 1098.53 Q64.2858 1098.53 63.5818 1099.53 Q62.8777 1100.49 62.8777 1104.42 L60.5062 1104.42 L59.691 1093.75 L67.6578 1093.75 Q59.691 1090.19 59.691 1082.52 Q59.691 1076.81 62.5072 1074.55 Q64.397 1072.89 66.5091 1072.55 Q68.6213 1072.18 74.1054 1072.18 L88.5939 1072.18 Q90.1873 1072.11 90.5578 1070.88 Q90.8913 1069.66 90.8913 1066.25 L93.2258 1066.25 Q93.0035 1074 93.0035 1074.77 Q93.0035 1075.37 93.2258 1083.33 L90.8913 1083.33 Q90.8913 1079.3 90.4096 1078.37 Q89.8909 1077.41 87.4452 1077.41 L69.77 1077.41 Q65.9162 1077.41 63.6559 1078.59 Q61.3585 1079.78 61.3585 1083.04 Q61.3585 1086.97 64.6564 1090.12 Q67.9543 1093.27 73.5125 1093.27 L87.4452 1093.27 Q89.8909 1093.27 90.4096 1092.34 Q90.8913 1091.38 90.8913 1087.37 L93.2258 1087.37 Q93.0035 1095.12 93.0035 1095.86 Q93.0035 1096.45 93.2258 1104.42 Z" fill="#000000" fill-rule="nonzero" fill-opacity="1" /><path clip-path="url(#clip580)" d="M62.8777 1064.44 L60.5062 1064.44 L59.691 1053.28 L84.8884 1053.28 Q86.7041 1053.28 87.7787 1053.13 Q88.8163 1052.99 90.0391 1052.39 Q91.2619 1051.76 91.8177 1050.36 Q92.3735 1048.91 92.3735 1046.61 Q92.3735 1042.5 89.0015 1039.98 Q85.6295 1037.42 80.6271 1037.42 L67.102 1037.42 Q64.2858 1037.42 63.5818 1038.42 Q62.8777 1039.42 62.8777 1043.35 L60.5062 1043.35 L59.691 1032.2 L86.63 1032.2 Q89.4462 1032.2 90.1873 1031.24 Q90.8913 1030.23 90.8913 1026.27 L93.2258 1026.27 L94.0781 1037.2 L87.2229 1037.2 Q94.041 1040.39 94.0781 1046.98 Q94.0781 1050.32 93.2258 1052.62 Q92.3735 1054.88 91.336 1056.03 Q90.2614 1057.17 88.2234 1057.8 Q86.1853 1058.4 84.9255 1058.47 Q83.6656 1058.54 81.22 1058.54 L69.8441 1058.54 Q64.6934 1058.54 63.8041 1059.29 Q62.8777 1060.03 62.8777 1064.44 Z" fill="#000000" fill-rule="nonzero" fill-opacity="1" /><path clip-path="url(#clip580)" d="M93.2258 1022.34 L90.8913 1022.34 Q90.8913 1018.3 90.4096 1017.38 Q89.8909 1016.45 87.4452 1016.45 L67.102 1016.45 Q64.2858 1016.45 63.5818 1017.45 Q62.8777 1018.41 62.8777 1022.34 L60.5062 1022.34 L59.691 1011.67 L67.6578 1011.67 Q59.691 1008.11 59.691 1000.44 Q59.691 991.549 67.102 990.327 Q64.2117 989.03 61.9514 986.325 Q59.691 983.583 59.691 979.321 Q59.691 973.615 62.5072 971.354 Q64.397 969.687 66.5091 969.353 Q68.6213 969.02 74.1054 969.02 L88.5939 969.02 Q90.1873 968.946 90.5578 967.723 Q90.8913 966.5 90.8913 963.091 L93.2258 963.091 Q93.0035 970.836 93.0035 971.577 Q93.0035 972.17 93.2258 980.173 L90.8913 980.173 Q90.8913 976.134 90.4096 975.208 Q89.8909 974.245 87.4452 974.245 L69.77 974.245 Q65.9162 974.245 63.6559 975.43 Q61.3585 976.616 61.3585 979.877 Q61.3585 983.805 64.6564 986.955 Q67.9543 990.104 73.5125 990.104 L87.4452 990.104 Q89.8909 990.104 90.4096 989.178 Q90.8913 988.214 90.8913 984.175 L93.2258 984.175 Q93.0035 991.92 93.0035 992.698 Q93.0035 993.291 93.2258 1001.26 L90.8913 1001.26 Q90.8913 997.219 90.4096 996.292 Q89.8909 995.329 87.4452 995.329 L69.77 995.329 Q65.9162 995.329 63.6559 996.515 Q61.3585 997.7 61.3585 1000.96 Q61.3585 1004.89 64.6564 1008.04 Q67.9543 1011.19 73.5125 1011.19 L87.4452 1011.19 Q89.8909 1011.19 90.4096 1010.26 Q90.8913 1009.3 90.8913 1005.3 L93.2258 1005.3 Q93.0035 1013.04 93.0035 1013.78 Q93.0035 1014.38 93.2258 1022.34 Z" fill="#000000" fill-rule="nonzero" fill-opacity="1" /><path clip-path="url(#clip580)" d="M43.7573 961.609 L41.3858 961.609 L40.5706 950.678 L64.6193 950.678 Q59.691 946.268 59.691 940.265 Q59.691 933.744 64.6934 928.963 Q69.6959 924.183 76.8475 924.183 Q84.0732 924.183 89.0756 929.186 Q94.0781 934.188 94.0781 941.117 Q94.0781 947.417 88.5198 951.048 Q93.1517 953.716 93.2258 953.79 L93.2258 955.68 L47.9816 955.68 Q45.1654 955.68 44.4614 956.681 Q43.7573 957.681 43.7573 961.609 M84.592 950.455 Q86.1853 950.455 87.7787 949.381 Q92.3735 946.379 92.3735 941.488 Q92.3735 941.451 92.3735 941.414 Q92.3735 936.115 87.5193 932.817 Q83.8879 930.483 76.7734 930.483 Q69.7329 930.483 66.2127 932.669 Q61.3585 935.707 61.3585 940.636 Q61.3585 946.194 66.2127 949.603 Q67.4355 950.455 68.9548 950.455 L84.592 950.455 Z" fill="#000000" fill-rule="nonzero" fill-opacity="1" /><path clip-path="url(#clip580)" d="M76.514 917.402 Q69.3624 917.402 64.2858 912.807 Q59.2093 908.213 59.2093 901.617 Q59.2093 894.947 63.5447 891.501 Q67.8802 888.018 74.1054 888.018 Q75.2541 888.018 75.4764 888.314 Q75.6988 888.61 75.6988 889.907 L75.6988 911.103 Q83.4433 911.103 87.0747 908.805 Q92.1512 905.619 92.1512 900.246 Q92.1512 899.505 92.003 898.615 Q91.8548 897.726 91.2248 895.91 Q90.5578 894.095 88.8163 892.501 Q87.0747 890.908 84.3326 889.981 Q83.258 889.759 83.2951 889.018 Q83.2951 888.018 84.1844 888.018 Q84.8514 888.018 86.3706 888.759 Q87.8528 889.463 89.6315 890.834 Q91.4101 892.205 92.7441 894.873 Q94.0781 897.504 94.0781 900.69 Q94.0781 907.36 89.0386 912.4 Q83.962 917.402 76.514 917.402 M74.1054 911.029 L74.1054 893.02 Q72.512 893.02 70.7334 893.316 Q68.9548 893.576 66.5091 894.391 Q64.0264 895.169 62.4701 897.022 Q60.9138 898.875 60.9138 901.617 Q60.9138 902.84 61.4326 904.174 Q61.9514 905.471 63.2112 907.064 Q64.4711 908.657 67.3243 909.769 Q70.1776 910.881 74.1054 911.029 Z" fill="#000000" fill-rule="nonzero" fill-opacity="1" /><path clip-path="url(#clip580)" d="M93.2258 883.719 L90.8913 883.719 Q90.8913 879.68 90.4096 878.754 Q89.8909 877.79 87.4452 877.79 L67.102 877.79 Q64.2858 877.79 63.5818 878.791 Q62.8777 879.754 62.8777 883.719 L60.5062 883.719 L59.691 873.159 L68.0284 873.159 Q64.7675 872.084 62.2478 869.824 Q59.691 867.526 59.691 863.821 Q59.691 861.375 61.062 859.819 Q62.4331 858.225 64.3229 858.225 Q65.9904 858.225 66.8426 859.263 Q67.6578 860.263 67.6578 861.486 Q67.6578 862.857 66.8056 863.821 Q65.9162 864.747 64.397 864.747 Q63.4706 864.747 62.7666 864.339 Q62.0255 863.895 61.7661 863.561 Q61.5067 863.228 61.4326 863.005 Q61.3585 863.154 61.3585 863.821 Q61.3585 868.008 65.5457 870.416 Q69.6959 872.788 75.6247 872.788 L87.297 872.788 Q89.4832 872.788 90.1873 871.899 Q90.8913 870.972 90.8913 867.007 L90.8913 865.414 L93.2258 865.414 Q93.0035 868.453 93.0035 875.048 Q93.0035 875.975 93.0405 877.42 Q93.0776 878.865 93.1517 880.755 Q93.2258 882.645 93.2258 883.719 Z" fill="#000000" fill-rule="nonzero" fill-opacity="1" /><path clip-path="url(#clip580)" d="M89.1498 823.838 Q84.1844 828.841 76.9957 828.841 Q69.77 828.841 64.5081 823.949 Q59.2093 819.021 59.2093 811.981 Q59.2093 805.088 64.4711 800.16 Q69.6959 795.195 76.9957 795.195 Q84.1473 795.195 89.1127 800.197 Q94.0781 805.163 94.0781 812.055 Q94.0781 818.799 89.1498 823.838 M76.3658 822.541 Q83.7397 822.541 87.0747 820.614 Q92.1512 817.65 92.1512 811.981 Q92.1512 809.164 90.632 806.83 Q89.1127 804.458 86.5559 803.162 Q83.2209 801.494 76.3658 801.494 Q69.0659 801.494 65.8421 803.495 Q60.9138 806.459 60.9138 812.055 Q60.9138 814.5 62.2107 816.909 Q63.4706 819.28 65.9904 820.726 Q69.3253 822.541 76.3658 822.541 Z" fill="#000000" fill-rule="nonzero" fill-opacity="1" /><path clip-path="url(#clip580)" d="M62.8777 790.489 L60.5062 790.489 L60.5062 784.523 L51.7983 784.523 Q46.1659 784.523 42.9421 780.891 Q39.7183 777.223 39.7183 772.739 Q39.7183 769.775 41.3117 767.848 Q42.9051 765.921 45.0543 765.921 Q46.4994 765.921 47.4628 766.811 Q48.3892 767.663 48.3892 769.256 Q48.3892 770.775 47.4258 771.665 Q46.4623 772.517 45.1284 772.517 Q42.6827 772.517 41.9416 770.257 Q41.4229 771.405 41.3858 772.739 Q41.3858 775.481 44.202 777.631 Q47.0182 779.743 51.7242 779.743 L60.5062 779.743 L60.5062 770.85 L62.8777 770.85 L62.8777 779.483 L87.297 779.483 Q89.4832 779.483 90.1873 778.594 Q90.8913 777.668 90.8913 773.74 L90.8913 772.146 L93.2258 772.146 Q93.0035 775.185 93.0035 781.781 Q93.0035 782.707 93.0405 784.152 Q93.0776 785.56 93.1517 787.487 Q93.2258 789.377 93.2258 790.415 L90.8913 790.415 Q90.8913 786.376 90.4096 785.449 Q89.8909 784.523 87.4452 784.523 L62.8777 784.523 L62.8777 790.489 Z" fill="#000000" fill-rule="nonzero" fill-opacity="1" /><path clip-path="url(#clip580)" d="M89.0756 737.241 Q84.0362 742.058 76.8475 742.058 Q69.6217 742.058 64.434 737.315 Q59.2093 732.572 59.2093 725.605 Q59.2093 720.973 61.4326 717.49 Q63.6188 714.007 67.3614 714.007 Q69.0289 714.007 69.9923 715.008 Q70.9187 715.971 70.9187 717.49 Q70.9187 719.084 69.9552 720.047 Q68.9548 720.973 67.4355 720.973 Q66.7685 720.973 66.1015 720.751 Q65.4345 720.529 64.7305 719.714 Q64.0264 718.861 63.9153 717.416 Q61.1361 720.121 61.1361 725.383 Q61.1361 725.457 61.1361 725.531 Q61.1361 729.385 64.7675 732.572 Q68.3989 735.758 76.6993 735.758 Q81.0347 735.758 84.2214 734.721 Q87.3711 733.646 89.0015 731.905 Q90.632 730.163 91.4101 728.459 Q92.1512 726.754 92.1512 725.087 Q92.1512 717.639 84.1844 715.119 Q83.4433 714.896 83.4433 714.155 Q83.4433 713.155 84.1844 713.155 Q84.5549 713.155 85.5184 713.451 Q86.4818 713.748 88.001 714.674 Q89.5203 715.6 90.8543 716.934 Q92.1512 718.231 93.1146 720.566 Q94.0781 722.863 94.0781 725.754 Q94.0781 732.423 89.0756 737.241 Z" fill="#000000" fill-rule="nonzero" fill-opacity="1" /><path clip-path="url(#clip580)" d="M89.1498 703.854 Q84.1844 708.856 76.9957 708.856 Q69.77 708.856 64.5081 703.965 Q59.2093 699.037 59.2093 691.996 Q59.2093 685.104 64.4711 680.176 Q69.6959 675.21 76.9957 675.21 Q84.1473 675.21 89.1127 680.213 Q94.0781 685.178 94.0781 692.071 Q94.0781 698.815 89.1498 703.854 M76.3658 702.557 Q83.7397 702.557 87.0747 700.63 Q92.1512 697.666 92.1512 691.996 Q92.1512 689.18 90.632 686.846 Q89.1127 684.474 86.5559 683.177 Q83.2209 681.51 76.3658 681.51 Q69.0659 681.51 65.8421 683.511 Q60.9138 686.475 60.9138 692.071 Q60.9138 694.516 62.2107 696.925 Q63.4706 699.296 65.9904 700.741 Q69.3253 702.557 76.3658 702.557 Z" fill="#000000" fill-rule="nonzero" fill-opacity="1" /><path clip-path="url(#clip580)" d="M93.2258 670.579 L90.8913 670.579 Q90.8913 666.54 90.4096 665.613 Q89.8909 664.687 87.4452 664.687 L67.102 664.687 Q64.2858 664.687 63.5818 665.687 Q62.8777 666.651 62.8777 670.579 L60.5062 670.579 L59.691 659.907 L67.6578 659.907 Q59.691 656.349 59.691 648.679 Q59.691 642.973 62.5072 640.712 Q64.397 639.045 66.5091 638.711 Q68.6213 638.341 74.1054 638.341 L88.5939 638.341 Q90.1873 638.267 90.5578 637.044 Q90.8913 635.821 90.8913 632.412 L93.2258 632.412 Q93.0035 640.156 93.0035 640.935 Q93.0035 641.527 93.2258 649.494 L90.8913 649.494 Q90.8913 645.455 90.4096 644.529 Q89.8909 643.565 87.4452 643.565 L69.77 643.565 Q65.9162 643.565 63.6559 644.751 Q61.3585 645.937 61.3585 649.198 Q61.3585 653.126 64.6564 656.275 Q67.9543 659.425 73.5125 659.425 L87.4452 659.425 Q89.8909 659.425 90.4096 658.499 Q90.8913 657.535 90.8913 653.533 L93.2258 653.533 Q93.0035 661.278 93.0035 662.019 Q93.0035 662.612 93.2258 670.579 Z" fill="#000000" fill-rule="nonzero" fill-opacity="1" /><path clip-path="url(#clip580)" d="M92.2253 628.41 L82.2205 628.41 Q81.3682 628.41 81.0718 628.373 Q80.7753 628.336 80.553 628.114 Q80.3307 627.891 80.3307 627.447 Q80.3307 626.928 80.553 626.743 Q80.7753 626.52 81.6276 626.372 Q86.8523 625.223 89.6315 622.778 Q92.3735 620.295 92.3735 615.811 Q92.3735 611.55 90.4837 609.401 Q88.5939 607.252 85.4813 607.252 Q79.923 607.252 78.515 615.144 Q77.5886 619.702 76.9957 621.592 Q76.3658 623.482 74.9947 625.149 Q72.3268 628.41 68.5471 628.41 Q64.7675 628.41 61.9884 625.557 Q59.2093 622.666 59.2093 616.293 Q59.2093 612.032 61.3585 609.141 Q60.6915 608.289 60.1357 607.844 Q59.2093 606.844 59.2093 606.325 Q59.2093 605.732 59.6169 605.621 Q59.9874 605.51 61.062 605.51 L68.6954 605.51 Q69.5476 605.51 69.8441 605.547 Q70.1405 605.584 70.3628 605.806 Q70.5481 606.029 70.5481 606.51 Q70.5481 607.363 69.8441 607.4 Q60.6544 607.993 60.6544 616.293 Q60.6544 620.777 62.396 622.778 Q64.1005 624.779 66.435 624.779 Q67.7319 624.779 68.7324 624.186 Q69.6959 623.556 70.2887 622.778 Q70.8446 621.962 71.4004 620.48 Q71.9192 618.998 72.1044 618.109 Q72.2897 617.182 72.6603 615.441 Q73.809 609.364 76.2917 606.807 Q79.4784 603.62 83.5174 603.62 Q88.001 603.62 91.0396 606.659 Q94.0781 609.697 94.0781 615.811 Q94.0781 620.74 90.7802 624.186 Q91.2248 624.63 91.6324 624.964 Q92.003 625.297 92.1512 625.446 Q92.2994 625.557 92.4106 625.594 Q92.4847 625.631 92.5588 625.705 Q94.0781 627.224 94.0781 627.595 Q94.0781 628.188 93.6705 628.299 Q93.2999 628.41 92.2253 628.41 Z" fill="#000000" fill-rule="nonzero" fill-opacity="1" /><path clip-path="url(#clip580)" d="M62.8777 599.618 L61.2103 599.618 Q61.062 596.135 58.6164 593.838 Q56.1337 591.503 53.0952 590.725 Q50.0567 589.91 46.5365 589.836 L46.5365 587.946 L60.5062 587.946 L60.5062 577.089 L62.8777 577.089 L62.8777 587.946 L83.962 587.946 Q92.1512 587.946 92.1512 582.832 Q92.1512 580.646 89.9279 579.201 Q87.6675 577.756 83.6656 577.756 L79.4784 577.756 L79.4784 575.866 L83.8138 575.866 Q87.9269 575.866 91.0025 577.756 Q94.0781 579.646 94.0781 583.388 Q94.0781 584.759 93.7075 586.13 Q93.374 587.464 92.4847 589.243 Q91.5583 590.984 89.335 592.096 Q87.0747 593.171 83.8138 593.171 L62.8777 593.171 L62.8777 599.618 Z" fill="#000000" fill-rule="nonzero" fill-opacity="1" /><path clip-path="url(#clip580)" d="M86.0001 568.455 Q79.5525 568.455 76.1434 560.859 Q73.9572 556.301 73.4014 546.889 L70.6222 546.889 Q65.9162 546.889 63.4336 549.372 Q60.9138 551.817 60.9138 554.93 Q60.9138 560.488 64.397 563.156 Q64.4711 560.896 65.6198 560.08 Q66.7315 559.265 67.8802 559.265 Q69.3994 559.265 70.3999 560.229 Q71.3633 561.155 71.3633 562.748 Q71.3633 564.268 70.437 565.268 Q69.4735 566.269 67.806 566.269 Q64.1005 566.269 61.6549 562.934 Q59.2093 559.562 59.2093 554.782 Q59.2093 548.556 63.3965 544.406 Q64.6934 543.109 66.3609 542.479 Q68.0284 541.812 69.14 541.738 Q70.2146 541.664 72.3638 541.664 L87.5193 541.664 Q87.964 541.664 88.7051 541.516 Q89.4462 541.368 90.4096 540.701 Q91.336 539.997 91.336 538.848 Q91.336 536.106 86.4818 536.143 L82.2205 536.143 L82.2205 534.216 L86.4818 534.216 Q90.5208 534.216 92.1142 536.365 Q93.6705 538.477 93.6705 540.441 Q93.6705 542.961 91.8177 544.554 Q89.965 546.148 87.4452 546.37 Q90.3355 547.519 92.2253 550.15 Q94.0781 552.744 94.0781 556.301 Q94.0781 559.043 93.374 561.637 Q92.707 564.194 90.8172 566.343 Q88.8904 568.455 86.0001 568.455 M85.926 562.6 Q88.7421 562.6 90.5578 560.599 Q92.3735 558.598 92.3735 555.782 Q92.3735 552.595 89.9279 549.742 Q87.4452 546.889 82.591 546.889 L74.9947 546.889 Q75.2912 555.3 78.6632 558.969 Q81.9981 562.6 85.926 562.6 Z" fill="#000000" fill-rule="nonzero" fill-opacity="1" /><path clip-path="url(#clip580)" d="M93.2258 531.252 L90.8913 531.252 Q90.8913 527.213 90.4096 526.286 Q89.8909 525.36 87.4452 525.36 L67.102 525.36 Q64.2858 525.36 63.5818 526.36 Q62.8777 527.324 62.8777 531.252 L60.5062 531.252 L59.691 520.58 L67.6578 520.58 Q59.691 517.023 59.691 509.352 Q59.691 503.646 62.5072 501.385 Q64.397 499.718 66.5091 499.384 Q68.6213 499.014 74.1054 499.014 L88.5939 499.014 Q90.1873 498.94 90.5578 497.717 Q90.8913 496.494 90.8913 493.085 L93.2258 493.085 Q93.0035 500.829 93.0035 501.608 Q93.0035 502.201 93.2258 510.167 L90.8913 510.167 Q90.8913 506.128 90.4096 505.202 Q89.8909 504.239 87.4452 504.239 L69.77 504.239 Q65.9162 504.239 63.6559 505.424 Q61.3585 506.61 61.3585 509.871 Q61.3585 513.799 64.6564 516.948 Q67.9543 520.098 73.5125 520.098 L87.4452 520.098 Q89.8909 520.098 90.4096 519.172 Q90.8913 518.208 90.8913 514.206 L93.2258 514.206 Q93.0035 521.951 93.0035 522.692 Q93.0035 523.285 93.2258 531.252 Z" fill="#000000" fill-rule="nonzero" fill-opacity="1" /><path clip-path="url(#clip580)" d="M62.8777 492.27 L61.2103 492.27 Q61.062 488.787 58.6164 486.489 Q56.1337 484.155 53.0952 483.377 Q50.0567 482.561 46.5365 482.487 L46.5365 480.597 L60.5062 480.597 L60.5062 469.74 L62.8777 469.74 L62.8777 480.597 L83.962 480.597 Q92.1512 480.597 92.1512 475.484 Q92.1512 473.298 89.9279 471.852 Q87.6675 470.407 83.6656 470.407 L79.4784 470.407 L79.4784 468.517 L83.8138 468.517 Q87.9269 468.517 91.0025 470.407 Q94.0781 472.297 94.0781 476.04 Q94.0781 477.411 93.7075 478.782 Q93.374 480.116 92.4847 481.894 Q91.5583 483.636 89.335 484.748 Q87.0747 485.822 83.8138 485.822 L62.8777 485.822 L62.8777 492.27 Z" fill="#000000" fill-rule="nonzero" fill-opacity="1" /><path clip-path="url(#clip580)" d="M92.2253 461.773 L82.2205 461.773 Q81.3682 461.773 81.0718 461.736 Q80.7753 461.699 80.553 461.477 Q80.3307 461.255 80.3307 460.81 Q80.3307 460.291 80.553 460.106 Q80.7753 459.884 81.6276 459.735 Q86.8523 458.587 89.6315 456.141 Q92.3735 453.658 92.3735 449.175 Q92.3735 444.913 90.4837 442.764 Q88.5939 440.615 85.4813 440.615 Q79.923 440.615 78.515 448.508 Q77.5886 453.066 76.9957 454.955 Q76.3658 456.845 74.9947 458.513 Q72.3268 461.773 68.5471 461.773 Q64.7675 461.773 61.9884 458.92 Q59.2093 456.03 59.2093 449.656 Q59.2093 445.395 61.3585 442.505 Q60.6915 441.653 60.1357 441.208 Q59.2093 440.207 59.2093 439.689 Q59.2093 439.096 59.6169 438.985 Q59.9874 438.873 61.062 438.873 L68.6954 438.873 Q69.5476 438.873 69.8441 438.911 Q70.1405 438.948 70.3628 439.17 Q70.5481 439.392 70.5481 439.874 Q70.5481 440.726 69.8441 440.763 Q60.6544 441.356 60.6544 449.656 Q60.6544 454.14 62.396 456.141 Q64.1005 458.142 66.435 458.142 Q67.7319 458.142 68.7324 457.549 Q69.6959 456.919 70.2887 456.141 Q70.8446 455.326 71.4004 453.844 Q71.9192 452.361 72.1044 451.472 Q72.2897 450.546 72.6603 448.804 Q73.809 442.727 76.2917 440.17 Q79.4784 436.984 83.5174 436.984 Q88.001 436.984 91.0396 440.022 Q94.0781 443.061 94.0781 449.175 Q94.0781 454.103 90.7802 457.549 Q91.2248 457.994 91.6324 458.327 Q92.003 458.661 92.1512 458.809 Q92.2994 458.92 92.4106 458.957 Q92.4847 458.994 92.5588 459.068 Q94.0781 460.588 94.0781 460.958 Q94.0781 461.551 93.6705 461.662 Q93.2999 461.773 92.2253 461.773 Z" fill="#000000" fill-rule="nonzero" fill-opacity="1" /><path clip-path="url(#clip580)" d="M105.602 407.08 Q105.602 403.041 105.083 402.115 Q104.602 401.151 102.193 401.151 L66.6573 401.151 Q64.1376 401.151 63.5077 402.115 Q62.8777 403.041 62.8777 407.08 L60.5062 407.08 L59.691 396.149 L64.6934 396.149 Q59.691 391.591 59.691 385.514 Q59.691 379.067 64.6934 374.361 Q69.6959 369.655 76.8475 369.655 Q84.0732 369.655 89.0756 374.657 Q94.0781 379.659 94.0781 386.589 Q94.0781 390.368 92.1512 392.925 Q90.1873 395.445 88.7421 395.927 L89.4462 395.927 L102.193 395.927 Q104.639 395.927 105.12 394.963 Q105.602 394 105.602 389.998 L107.937 389.998 Q107.714 397.965 107.714 398.558 Q107.714 399.299 107.937 407.08 L105.602 407.08 M84.592 395.927 Q85.7407 395.927 86.1483 395.778 Q86.5559 395.593 87.7787 394.852 Q92.3735 391.851 92.3735 386.959 Q92.3735 386.922 92.3735 386.885 Q92.3735 382.55 87.964 379.252 Q83.5174 375.954 76.8475 375.954 Q70.474 375.954 66.0274 378.955 Q61.5808 381.957 61.5808 386.107 Q61.5808 389.071 63.1742 391.665 Q64.7675 394.259 67.6578 395.927 L84.592 395.927 Z" fill="#000000" fill-rule="nonzero" fill-opacity="1" /><path clip-path="url(#clip580)" d="M76.514 362.874 Q69.3624 362.874 64.2858 358.279 Q59.2093 353.684 59.2093 347.088 Q59.2093 340.418 63.5447 336.972 Q67.8802 333.489 74.1054 333.489 Q75.2541 333.489 75.4764 333.785 Q75.6988 334.082 75.6988 335.379 L75.6988 356.574 Q83.4433 356.574 87.0747 354.277 Q92.1512 351.09 92.1512 345.717 Q92.1512 344.976 92.003 344.087 Q91.8548 343.197 91.2248 341.382 Q90.5578 339.566 88.8163 337.973 Q87.0747 336.379 84.3326 335.453 Q83.258 335.231 83.2951 334.489 Q83.2951 333.489 84.1844 333.489 Q84.8514 333.489 86.3706 334.23 Q87.8528 334.934 89.6315 336.305 Q91.4101 337.676 92.7441 340.344 Q94.0781 342.975 94.0781 346.162 Q94.0781 352.832 89.0386 357.871 Q83.962 362.874 76.514 362.874 M74.1054 356.5 L74.1054 338.491 Q72.512 338.491 70.7334 338.788 Q68.9548 339.047 66.5091 339.862 Q64.0264 340.641 62.4701 342.493 Q60.9138 344.346 60.9138 347.088 Q60.9138 348.311 61.4326 349.645 Q61.9514 350.942 63.2112 352.535 Q64.4711 354.129 67.3243 355.24 Q70.1776 356.352 74.1054 356.5 Z" fill="#000000" fill-rule="nonzero" fill-opacity="1" /><path clip-path="url(#clip580)" d="M93.2258 329.191 L90.8913 329.191 Q90.8913 325.152 90.4096 324.225 Q89.8909 323.262 87.4452 323.262 L67.102 323.262 Q64.2858 323.262 63.5818 324.262 Q62.8777 325.226 62.8777 329.191 L60.5062 329.191 L59.691 318.63 L68.0284 318.63 Q64.7675 317.555 62.2478 315.295 Q59.691 312.997 59.691 309.292 Q59.691 306.846 61.062 305.29 Q62.4331 303.697 64.3229 303.697 Q65.9904 303.697 66.8426 304.734 Q67.6578 305.735 67.6578 306.958 Q67.6578 308.329 66.8056 309.292 Q65.9162 310.218 64.397 310.218 Q63.4706 310.218 62.7666 309.811 Q62.0255 309.366 61.7661 309.033 Q61.5067 308.699 61.4326 308.477 Q61.3585 308.625 61.3585 309.292 Q61.3585 313.479 65.5457 315.888 Q69.6959 318.259 75.6247 318.259 L87.297 318.259 Q89.4832 318.259 90.1873 317.37 Q90.8913 316.444 90.8913 312.479 L90.8913 310.885 L93.2258 310.885 Q93.0035 313.924 93.0035 320.52 Q93.0035 321.446 93.0405 322.891 Q93.0776 324.336 93.1517 326.226 Q93.2258 328.116 93.2258 329.191 Z" fill="#000000" fill-rule="nonzero" fill-opacity="1" /><path clip-path="url(#clip580)" d="M76.514 274.312 Q69.3624 274.312 64.2858 269.717 Q59.2093 265.122 59.2093 258.527 Q59.2093 251.857 63.5447 248.411 Q67.8802 244.927 74.1054 244.927 Q75.2541 244.927 75.4764 245.224 Q75.6988 245.52 75.6988 246.817 L75.6988 268.013 Q83.4433 268.013 87.0747 265.715 Q92.1512 262.529 92.1512 257.156 Q92.1512 256.414 92.003 255.525 Q91.8548 254.636 91.2248 252.82 Q90.5578 251.004 88.8163 249.411 Q87.0747 247.818 84.3326 246.891 Q83.258 246.669 83.2951 245.928 Q83.2951 244.927 84.1844 244.927 Q84.8514 244.927 86.3706 245.668 Q87.8528 246.373 89.6315 247.744 Q91.4101 249.115 92.7441 251.783 Q94.0781 254.413 94.0781 257.6 Q94.0781 264.27 89.0386 269.31 Q83.962 274.312 76.514 274.312 M74.1054 267.939 L74.1054 249.93 Q72.512 249.93 70.7334 250.226 Q68.9548 250.486 66.5091 251.301 Q64.0264 252.079 62.4701 253.932 Q60.9138 255.785 60.9138 258.527 Q60.9138 259.749 61.4326 261.083 Q61.9514 262.38 63.2112 263.974 Q64.4711 265.567 67.3243 266.679 Q70.1776 267.79 74.1054 267.939 Z" fill="#000000" fill-rule="nonzero" fill-opacity="1" /><path clip-path="url(#clip580)" d="M76.9216 240.147 Q69.6217 240.147 64.6564 235.145 Q59.691 230.142 59.691 223.398 Q59.691 220.582 61.062 218.285 Q62.4331 215.95 63.8041 214.95 Q65.1381 213.912 66.5832 213.208 L59.691 210.355 L59.691 208.65 L102.193 208.65 Q104.639 208.65 105.12 207.724 Q105.602 206.761 105.602 202.759 L107.937 202.759 Q107.714 210.726 107.714 211.318 Q107.714 212.06 107.937 219.841 L105.602 219.841 Q105.602 215.802 105.083 214.876 Q104.602 213.912 102.193 213.912 L88.5939 213.912 Q94.041 218.1 94.0781 223.991 Q94.0781 230.587 89.0386 235.367 Q83.962 240.147 76.9216 240.147 M76.9216 233.848 Q83.4433 233.848 87.9269 230.884 Q92.3735 227.882 92.3735 223.695 Q92.3735 219.582 89.298 216.728 Q85.963 213.69 82.8874 213.69 L72.2156 213.69 Q68.6583 213.69 65.1381 216.247 Q61.5808 218.767 61.5808 222.917 Q61.5808 227.252 65.9533 230.55 Q70.3258 233.848 76.9216 233.848 Z" fill="#000000" fill-rule="nonzero" fill-opacity="1" /><path clip-path="url(#clip580)" d="M62.8777 200.313 L60.5062 200.313 L59.691 189.16 L84.8884 189.16 Q86.7041 189.16 87.7787 189.011 Q88.8163 188.863 90.0391 188.27 Q91.2619 187.64 91.8177 186.232 Q92.3735 184.787 92.3735 182.49 Q92.3735 178.377 89.0015 175.857 Q85.6295 173.3 80.6271 173.3 L67.102 173.3 Q64.2858 173.3 63.5818 174.3 Q62.8777 175.301 62.8777 179.229 L60.5062 179.229 L59.691 168.075 L86.63 168.075 Q89.4462 168.075 90.1873 167.112 Q90.8913 166.111 90.8913 162.146 L93.2258 162.146 L94.0781 173.078 L87.2229 173.078 Q94.041 176.264 94.0781 182.86 Q94.0781 186.195 93.2258 188.493 Q92.3735 190.753 91.336 191.902 Q90.2614 193.05 88.2234 193.68 Q86.1853 194.273 84.9255 194.347 Q83.6656 194.421 81.22 194.421 L69.8441 194.421 Q64.6934 194.421 63.8041 195.162 Q62.8777 195.904 62.8777 200.313 Z" fill="#000000" fill-rule="nonzero" fill-opacity="1" /><path clip-path="url(#clip580)" d="M86.0001 157.477 Q79.5525 157.477 76.1434 149.881 Q73.9572 145.323 73.4014 135.911 L70.6222 135.911 Q65.9162 135.911 63.4336 138.394 Q60.9138 140.84 60.9138 143.952 Q60.9138 149.511 64.397 152.179 Q64.4711 149.918 65.6198 149.103 Q66.7315 148.288 67.8802 148.288 Q69.3994 148.288 70.3999 149.251 Q71.3633 150.178 71.3633 151.771 Q71.3633 153.29 70.437 154.291 Q69.4735 155.291 67.806 155.291 Q64.1005 155.291 61.6549 151.956 Q59.2093 148.584 59.2093 143.804 Q59.2093 137.579 63.3965 133.429 Q64.6934 132.132 66.3609 131.502 Q68.0284 130.835 69.14 130.761 Q70.2146 130.687 72.3638 130.687 L87.5193 130.687 Q87.964 130.687 88.7051 130.538 Q89.4462 130.39 90.4096 129.723 Q91.336 129.019 91.336 127.871 Q91.336 125.128 86.4818 125.165 L82.2205 125.165 L82.2205 123.239 L86.4818 123.239 Q90.5208 123.239 92.1142 125.388 Q93.6705 127.5 93.6705 129.464 Q93.6705 131.984 91.8177 133.577 Q89.965 135.17 87.4452 135.393 Q90.3355 136.541 92.2253 139.172 Q94.0781 141.766 94.0781 145.323 Q94.0781 148.066 93.374 150.659 Q92.707 153.216 90.8172 155.365 Q88.8904 157.477 86.0001 157.477 M85.926 151.623 Q88.7421 151.623 90.5578 149.622 Q92.3735 147.621 92.3735 144.805 Q92.3735 141.618 89.9279 138.765 Q87.4452 135.911 82.591 135.911 L74.9947 135.911 Q75.2912 144.323 78.6632 147.991 Q81.9981 151.623 85.926 151.623 Z" fill="#000000" fill-rule="nonzero" fill-opacity="1" /><path clip-path="url(#clip580)" d="M62.8777 121.275 L61.2103 121.275 Q61.062 117.792 58.6164 115.494 Q56.1337 113.16 53.0952 112.381 Q50.0567 111.566 46.5365 111.492 L46.5365 109.602 L60.5062 109.602 L60.5062 98.7452 L62.8777 98.7452 L62.8777 109.602 L83.962 109.602 Q92.1512 109.602 92.1512 104.489 Q92.1512 102.303 89.9279 100.857 Q87.6675 99.4122 83.6656 99.4122 L79.4784 99.4122 L79.4784 97.5224 L83.8138 97.5224 Q87.9269 97.5224 91.0025 99.4122 Q94.0781 101.302 94.0781 105.045 Q94.0781 106.416 93.7075 107.787 Q93.374 109.121 92.4847 110.899 Q91.5583 112.641 89.335 113.753 Q87.0747 114.827 83.8138 114.827 L62.8777 114.827 L62.8777 121.275 Z" fill="#000000" fill-rule="nonzero" fill-opacity="1" /><path clip-path="url(#clip580)" d="M93.2258 90.7784 L90.8913 90.7784 Q90.8913 86.7394 90.4096 85.813 Q89.8909 84.8867 87.4452 84.8867 L67.0279 84.8867 Q64.2117 84.8867 63.5447 85.8501 Q62.8777 86.7765 62.8777 90.482 L60.5062 90.482 L59.691 79.8842 L87.5193 79.8842 Q89.7797 79.8842 90.3355 79.069 Q90.8913 78.2538 90.8913 74.5483 L93.2258 74.5483 Q93.0035 82.2928 93.0035 82.441 Q93.0035 83.4786 93.2258 90.7784 M46.4623 87.5917 Q44.9431 87.5917 43.7203 86.443 Q42.4604 85.2572 42.4604 83.5897 Q42.4604 81.9223 43.6091 80.7365 Q44.7208 79.5507 46.4994 79.5507 Q48.241 79.5507 49.3897 80.7365 Q50.5013 81.9223 50.5013 83.5897 Q50.5013 85.3313 49.2785 86.48 Q48.0557 87.5917 46.4623 87.5917 Z" fill="#000000" fill-rule="nonzero" fill-opacity="1" /><path clip-path="url(#clip580)" d="M89.1498 65.1734 Q84.1844 70.1758 76.9957 70.1758 Q69.77 70.1758 64.5081 65.2845 Q59.2093 60.3562 59.2093 53.3158 Q59.2093 46.4235 64.4711 41.4952 Q69.6959 36.5298 76.9957 36.5298 Q84.1473 36.5298 89.1127 41.5323 Q94.0781 46.4976 94.0781 53.3899 Q94.0781 60.1339 89.1498 65.1734 M76.3658 63.8765 Q83.7397 63.8765 87.0747 61.9496 Q92.1512 58.9852 92.1512 53.3158 Q92.1512 50.4996 90.632 48.1651 Q89.1127 45.7936 86.5559 44.4967 Q83.2209 42.8292 76.3658 42.8292 Q69.0659 42.8292 65.8421 44.8302 Q60.9138 47.7946 60.9138 53.3899 Q60.9138 55.8355 62.2107 58.2441 Q63.4706 60.6156 65.9904 62.0608 Q69.3253 63.8765 76.3658 63.8765 Z" fill="#000000" fill-rule="nonzero" fill-opacity="1" /><path clip-path="url(#clip580)" d="M93.2258 31.898 L90.8913 31.898 Q90.8913 27.859 90.4096 26.9326 Q89.8909 26.0062 87.4452 26.0062 L67.102 26.0062 Q64.2858 26.0062 63.5818 27.0067 Q62.8777 27.9701 62.8777 31.898 L60.5062 31.898 L59.691 21.2261 L67.6578 21.2261 Q59.691 17.6688 59.691 9.99843 Q59.691 4.29195 62.5072 2.03159 Q64.397 0.364116 66.5091 0.0306203 Q68.6213 -0.33993 74.1054 -0.33993 L88.5939 -0.33993 Q90.1873 -0.41404 90.5578 -1.63686 Q90.8913 -2.85967 90.8913 -6.26874 L93.2258 -6.26874 Q93.0035 1.47577 93.0035 2.25392 Q93.0035 2.8468 93.2258 10.8136 L90.8913 10.8136 Q90.8913 6.77464 90.4096 5.84826 Q89.8909 4.88483 87.4452 4.88483 L69.77 4.88483 Q65.9162 4.88483 63.6559 6.07059 Q61.3585 7.25635 61.3585 10.5172 Q61.3585 14.445 64.6564 17.5947 Q67.9543 20.7444 73.5125 20.7444 L87.4452 20.7444 Q89.8909 20.7444 90.4096 19.818 Q90.8913 18.8546 90.8913 14.8526 L93.2258 14.8526 Q93.0035 22.5971 93.0035 23.3382 Q93.0035 23.9311 93.2258 31.898 Z" fill="#000000" fill-rule="nonzero" fill-opacity="1" /><path clip-path="url(#clip582)" d="M275.142 647.839 L254.934 647.839 L295.35 647.839 L275.142 647.839 L275.142 605.692 L275.142 647.839  Z" fill="#eff8e8" fill-rule="evenodd" fill-opacity="1"/>
<polyline clip-path="url(#clip582)" style="stroke:#000000; stroke-linecap:round; stroke-linejoin:round; stroke-width:4; stroke-opacity:1; fill:none" points="275.142,647.839 254.934,647.839 295.35,647.839 275.142,647.839 275.142,605.692 275.142,647.839 "/>
<path clip-path="url(#clip582)" d="M315.559 605.692 L315.559 564.982 L234.726 564.982 L234.726 605.692 L315.559 605.692 L315.559 564.982 L315.559 605.692  Z" fill="#eff8e8" fill-rule="evenodd" fill-opacity="1"/>
<polyline clip-path="url(#clip582)" style="stroke:#000000; stroke-linecap:round; stroke-linejoin:round; stroke-width:4; stroke-opacity:1; fill:none" points="315.559,605.692 315.559,564.982 234.726,564.982 234.726,605.692 315.559,605.692 315.559,564.982 315.559,605.692 "/>
<path clip-path="url(#clip582)" d="M315.559 541.083 L234.726 541.083 L234.726 564.982 L315.559 564.982 L315.559 541.083 L275.142 541.083 L315.559 541.083  Z" fill="#eff8e8" fill-rule="evenodd" fill-opacity="1"/>
<polyline clip-path="url(#clip582)" style="stroke:#000000; stroke-linecap:round; stroke-linejoin:round; stroke-width:4; stroke-opacity:1; fill:none" points="315.559,541.083 234.726,541.083 234.726,564.982 315.559,564.982 315.559,541.083 275.142,541.083 315.559,541.083 "/>
<path clip-path="url(#clip582)" d="M275.142 502.853 L254.934 502.853 L295.35 502.853 L275.142 502.853 L275.142 541.083 L275.142 502.853  Z" fill="#eff8e8" fill-rule="evenodd" fill-opacity="1"/>
<polyline clip-path="url(#clip582)" style="stroke:#000000; stroke-linecap:round; stroke-linejoin:round; stroke-width:4; stroke-opacity:1; fill:none" points="275.142,502.853 254.934,502.853 295.35,502.853 275.142,502.853 275.142,541.083 275.142,502.853 "/>
<path clip-path="url(#clip582)" d="M788.368 683.4 L768.16 683.4 L808.576 683.4 L788.368 683.4 L788.368 645.879 L788.368 683.4  Z" fill="#eff8e8" fill-rule="evenodd" fill-opacity="1"/>
<polyline clip-path="url(#clip582)" style="stroke:#000000; stroke-linecap:round; stroke-linejoin:round; stroke-width:4; stroke-opacity:1; fill:none" points="788.368,683.4 768.16,683.4 808.576,683.4 788.368,683.4 788.368,645.879 788.368,683.4 "/>
<path clip-path="url(#clip582)" d="M828.785 645.879 L828.785 621.22 L747.952 621.22 L747.952 645.879 L828.785 645.879 L828.785 621.22 L828.785 645.879  Z" fill="#eff8e8" fill-rule="evenodd" fill-opacity="1"/>
<polyline clip-path="url(#clip582)" style="stroke:#000000; stroke-linecap:round; stroke-linejoin:round; stroke-width:4; stroke-opacity:1; fill:none" points="828.785,645.879 828.785,621.22 747.952,621.22 747.952,645.879 828.785,645.879 828.785,621.22 828.785,645.879 "/>
<path clip-path="url(#clip582)" d="M828.785 564.885 L747.952 564.885 L747.952 621.22 L828.785 621.22 L828.785 564.885 L788.368 564.885 L828.785 564.885  Z" fill="#eff8e8" fill-rule="evenodd" fill-opacity="1"/>
<polyline clip-path="url(#clip582)" style="stroke:#000000; stroke-linecap:round; stroke-linejoin:round; stroke-width:4; stroke-opacity:1; fill:none" points="828.785,564.885 747.952,564.885 747.952,621.22 828.785,621.22 828.785,564.885 788.368,564.885 828.785,564.885 "/>
<path clip-path="url(#clip582)" d="M788.368 495.583 L768.16 495.583 L808.576 495.583 L788.368 495.583 L788.368 564.885 L788.368 495.583  Z" fill="#eff8e8" fill-rule="evenodd" fill-opacity="1"/>
<polyline clip-path="url(#clip582)" style="stroke:#000000; stroke-linecap:round; stroke-linejoin:round; stroke-width:4; stroke-opacity:1; fill:none" points="788.368,495.583 768.16,495.583 808.576,495.583 788.368,495.583 788.368,564.885 788.368,495.583 "/>
<path clip-path="url(#clip582)" d="M1301.59 814.671 L1281.39 814.671 L1321.8 814.671 L1301.59 814.671 L1301.59 703.002 L1301.59 814.671  Z" fill="#eff8e8" fill-rule="evenodd" fill-opacity="1"/>
<polyline clip-path="url(#clip582)" style="stroke:#000000; stroke-linecap:round; stroke-linejoin:round; stroke-width:4; stroke-opacity:1; fill:none" points="1301.59,814.671 1281.39,814.671 1321.8,814.671 1301.59,814.671 1301.59,703.002 1301.59,814.671 "/>
<path clip-path="url(#clip582)" d="M1342.01 703.002 L1342.01 660.235 L1261.18 660.235 L1261.18 703.002 L1342.01 703.002 L1342.01 660.235 L1342.01 703.002  Z" fill="#eff8e8" fill-rule="evenodd" fill-opacity="1"/>
<polyline clip-path="url(#clip582)" style="stroke:#000000; stroke-linecap:round; stroke-linejoin:round; stroke-width:4; stroke-opacity:1; fill:none" points="1342.01,703.002 1342.01,660.235 1261.18,660.235 1261.18,703.002 1342.01,703.002 1342.01,660.235 1342.01,703.002 "/>
<path clip-path="url(#clip582)" d="M1342.01 623.502 L1261.18 623.502 L1261.18 660.235 L1342.01 660.235 L1342.01 623.502 L1301.59 623.502 L1342.01 623.502  Z" fill="#eff8e8" fill-rule="evenodd" fill-opacity="1"/>
<polyline clip-path="url(#clip582)" style="stroke:#000000; stroke-linecap:round; stroke-linejoin:round; stroke-width:4; stroke-opacity:1; fill:none" points="1342.01,623.502 1261.18,623.502 1261.18,660.235 1342.01,660.235 1342.01,623.502 1301.59,623.502 1342.01,623.502 "/>
<path clip-path="url(#clip582)" d="M1301.59 520.394 L1281.39 520.394 L1321.8 520.394 L1301.59 520.394 L1301.59 623.502 L1301.59 520.394  Z" fill="#eff8e8" fill-rule="evenodd" fill-opacity="1"/>
<polyline clip-path="url(#clip582)" style="stroke:#000000; stroke-linecap:round; stroke-linejoin:round; stroke-width:4; stroke-opacity:1; fill:none" points="1301.59,520.394 1281.39,520.394 1321.8,520.394 1301.59,520.394 1301.59,623.502 1301.59,520.394 "/>
<circle clip-path="url(#clip582)" cx="1301.59" cy="489.788" r="14.4" fill="#eff8e8" fill-rule="evenodd" fill-opacity="1" stroke="#000000" stroke-opacity="1" stroke-width="2.8"/>
<polyline clip-path="url(#clip582)" style="stroke:#eff8e8; stroke-linecap:round; stroke-linejoin:round; stroke-width:0; stroke-opacity:1; fill:none" points="275.142,647.839 254.934,647.839 295.35,647.839 275.142,647.839 275.142,605.692 "/>
<polyline clip-path="url(#clip582)" style="stroke:#eff8e8; stroke-linecap:round; stroke-linejoin:round; stroke-width:0; stroke-opacity:1; fill:none" points="315.559,605.692 315.559,564.982 234.726,564.982 234.726,605.692 315.559,605.692 315.559,564.982 "/>
<polyline clip-path="url(#clip582)" style="stroke:#eff8e8; stroke-linecap:round; stroke-linejoin:round; stroke-width:0; stroke-opacity:1; fill:none" points="315.559,541.083 234.726,541.083 234.726,564.982 315.559,564.982 315.559,541.083 275.142,541.083 "/>
<polyline clip-path="url(#clip582)" style="stroke:#eff8e8; stroke-linecap:round; stroke-linejoin:round; stroke-width:0; stroke-opacity:1; fill:none" points="275.142,502.853 254.934,502.853 295.35,502.853 275.142,502.853 275.142,541.083 "/>
<polyline clip-path="url(#clip582)" style="stroke:#eff8e8; stroke-linecap:round; stroke-linejoin:round; stroke-width:0; stroke-opacity:1; fill:none" points="788.368,683.4 768.16,683.4 808.576,683.4 788.368,683.4 788.368,645.879 "/>
<polyline clip-path="url(#clip582)" style="stroke:#eff8e8; stroke-linecap:round; stroke-linejoin:round; stroke-width:0; stroke-opacity:1; fill:none" points="828.785,645.879 828.785,621.22 747.952,621.22 747.952,645.879 828.785,645.879 828.785,621.22 "/>
<polyline clip-path="url(#clip582)" style="stroke:#eff8e8; stroke-linecap:round; stroke-linejoin:round; stroke-width:0; stroke-opacity:1; fill:none" points="828.785,564.885 747.952,564.885 747.952,621.22 828.785,621.22 828.785,564.885 788.368,564.885 "/>
<polyline clip-path="url(#clip582)" style="stroke:#eff8e8; stroke-linecap:round; stroke-linejoin:round; stroke-width:0; stroke-opacity:1; fill:none" points="788.368,495.583 768.16,495.583 808.576,495.583 788.368,495.583 788.368,564.885 "/>
<polyline clip-path="url(#clip582)" style="stroke:#eff8e8; stroke-linecap:round; stroke-linejoin:round; stroke-width:0; stroke-opacity:1; fill:none" points="1301.59,814.671 1281.39,814.671 1321.8,814.671 1301.59,814.671 1301.59,703.002 "/>
<polyline clip-path="url(#clip582)" style="stroke:#eff8e8; stroke-linecap:round; stroke-linejoin:round; stroke-width:0; stroke-opacity:1; fill:none" points="1342.01,703.002 1342.01,660.235 1261.18,660.235 1261.18,703.002 1342.01,703.002 1342.01,660.235 "/>
<polyline clip-path="url(#clip582)" style="stroke:#eff8e8; stroke-linecap:round; stroke-linejoin:round; stroke-width:0; stroke-opacity:1; fill:none" points="1342.01,623.502 1261.18,623.502 1261.18,660.235 1342.01,660.235 1342.01,623.502 1301.59,623.502 "/>
<polyline clip-path="url(#clip582)" style="stroke:#eff8e8; stroke-linecap:round; stroke-linejoin:round; stroke-width:0; stroke-opacity:1; fill:none" points="1301.59,520.394 1281.39,520.394 1321.8,520.394 1301.59,520.394 1301.59,623.502 "/>
<path clip-path="url(#clip582)" d="M364.957 506.425 L344.748 506.425 L385.165 506.425 L364.957 506.425 L364.957 445.383 L364.957 506.425  Z" fill="#b9e3bb" fill-rule="evenodd" fill-opacity="1"/>
<polyline clip-path="url(#clip582)" style="stroke:#000000; stroke-linecap:round; stroke-linejoin:round; stroke-width:4; stroke-opacity:1; fill:none" points="364.957,506.425 344.748,506.425 385.165,506.425 364.957,506.425 364.957,445.383 364.957,506.425 "/>
<path clip-path="url(#clip582)" d="M405.373 445.383 L405.373 422.879 L324.54 422.879 L324.54 445.383 L405.373 445.383 L405.373 422.879 L405.373 445.383  Z" fill="#b9e3bb" fill-rule="evenodd" fill-opacity="1"/>
<polyline clip-path="url(#clip582)" style="stroke:#000000; stroke-linecap:round; stroke-linejoin:round; stroke-width:4; stroke-opacity:1; fill:none" points="405.373,445.383 405.373,422.879 324.54,422.879 324.54,445.383 405.373,445.383 405.373,422.879 405.373,445.383 "/>
<path clip-path="url(#clip582)" d="M405.373 402.369 L324.54 402.369 L324.54 422.879 L405.373 422.879 L405.373 402.369 L364.957 402.369 L405.373 402.369  Z" fill="#b9e3bb" fill-rule="evenodd" fill-opacity="1"/>
<polyline clip-path="url(#clip582)" style="stroke:#000000; stroke-linecap:round; stroke-linejoin:round; stroke-width:4; stroke-opacity:1; fill:none" points="405.373,402.369 324.54,402.369 324.54,422.879 405.373,422.879 405.373,402.369 364.957,402.369 405.373,402.369 "/>
<path clip-path="url(#clip582)" d="M364.957 378.874 L344.748 378.874 L385.165 378.874 L364.957 378.874 L364.957 402.369 L364.957 378.874  Z" fill="#b9e3bb" fill-rule="evenodd" fill-opacity="1"/>
<polyline clip-path="url(#clip582)" style="stroke:#000000; stroke-linecap:round; stroke-linejoin:round; stroke-width:4; stroke-opacity:1; fill:none" points="364.957,378.874 344.748,378.874 385.165,378.874 364.957,378.874 364.957,402.369 364.957,378.874 "/>
<path clip-path="url(#clip582)" d="M878.183 661.185 L857.974 661.185 L898.391 661.185 L878.183 661.185 L878.183 570.628 L878.183 661.185  Z" fill="#b9e3bb" fill-rule="evenodd" fill-opacity="1"/>
<polyline clip-path="url(#clip582)" style="stroke:#000000; stroke-linecap:round; stroke-linejoin:round; stroke-width:4; stroke-opacity:1; fill:none" points="878.183,661.185 857.974,661.185 898.391,661.185 878.183,661.185 878.183,570.628 878.183,661.185 "/>
<path clip-path="url(#clip582)" d="M918.599 570.628 L918.599 531.935 L837.766 531.935 L837.766 570.628 L918.599 570.628 L918.599 531.935 L918.599 570.628  Z" fill="#b9e3bb" fill-rule="evenodd" fill-opacity="1"/>
<polyline clip-path="url(#clip582)" style="stroke:#000000; stroke-linecap:round; stroke-linejoin:round; stroke-width:4; stroke-opacity:1; fill:none" points="918.599,570.628 918.599,531.935 837.766,531.935 837.766,570.628 918.599,570.628 918.599,531.935 918.599,570.628 "/>
<path clip-path="url(#clip582)" d="M918.599 504.215 L837.766 504.215 L837.766 531.935 L918.599 531.935 L918.599 504.215 L878.183 504.215 L918.599 504.215  Z" fill="#b9e3bb" fill-rule="evenodd" fill-opacity="1"/>
<polyline clip-path="url(#clip582)" style="stroke:#000000; stroke-linecap:round; stroke-linejoin:round; stroke-width:4; stroke-opacity:1; fill:none" points="918.599,504.215 837.766,504.215 837.766,531.935 918.599,531.935 918.599,504.215 878.183,504.215 918.599,504.215 "/>
<path clip-path="url(#clip582)" d="M878.183 422.879 L857.974 422.879 L898.391 422.879 L878.183 422.879 L878.183 504.215 L878.183 422.879  Z" fill="#b9e3bb" fill-rule="evenodd" fill-opacity="1"/>
<polyline clip-path="url(#clip582)" style="stroke:#000000; stroke-linecap:round; stroke-linejoin:round; stroke-width:4; stroke-opacity:1; fill:none" points="878.183,422.879 857.974,422.879 898.391,422.879 878.183,422.879 878.183,504.215 878.183,422.879 "/>
<path clip-path="url(#clip582)" d="M1391.41 709.654 L1371.2 709.654 L1411.62 709.654 L1391.41 709.654 L1391.41 649.543 L1391.41 709.654  Z" fill="#b9e3bb" fill-rule="evenodd" fill-opacity="1"/>
<polyline clip-path="url(#clip582)" style="stroke:#000000; stroke-linecap:round; stroke-linejoin:round; stroke-width:4; stroke-opacity:1; fill:none" points="1391.41,709.654 1371.2,709.654 1411.62,709.654 1391.41,709.654 1391.41,649.543 1391.41,709.654 "/>
<path clip-path="url(#clip582)" d="M1431.82 649.543 L1431.82 626.18 L1350.99 626.18 L1350.99 649.543 L1431.82 649.543 L1431.82 626.18 L1431.82 649.543  Z" fill="#b9e3bb" fill-rule="evenodd" fill-opacity="1"/>
<polyline clip-path="url(#clip582)" style="stroke:#000000; stroke-linecap:round; stroke-linejoin:round; stroke-width:4; stroke-opacity:1; fill:none" points="1431.82,649.543 1431.82,626.18 1350.99,626.18 1350.99,649.543 1431.82,649.543 1431.82,626.18 1431.82,649.543 "/>
<path clip-path="url(#clip582)" d="M1431.82 587.373 L1350.99 587.373 L1350.99 626.18 L1431.82 626.18 L1431.82 587.373 L1391.41 587.373 L1431.82 587.373  Z" fill="#b9e3bb" fill-rule="evenodd" fill-opacity="1"/>
<polyline clip-path="url(#clip582)" style="stroke:#000000; stroke-linecap:round; stroke-linejoin:round; stroke-width:4; stroke-opacity:1; fill:none" points="1431.82,587.373 1350.99,587.373 1350.99,626.18 1431.82,626.18 1431.82,587.373 1391.41,587.373 1431.82,587.373 "/>
<path clip-path="url(#clip582)" d="M1391.41 531.935 L1371.2 531.935 L1411.62 531.935 L1391.41 531.935 L1391.41 587.373 L1391.41 531.935  Z" fill="#b9e3bb" fill-rule="evenodd" fill-opacity="1"/>
<polyline clip-path="url(#clip582)" style="stroke:#000000; stroke-linecap:round; stroke-linejoin:round; stroke-width:4; stroke-opacity:1; fill:none" points="1391.41,531.935 1371.2,531.935 1411.62,531.935 1391.41,531.935 1391.41,587.373 1391.41,531.935 "/>
<circle clip-path="url(#clip582)" cx="1391.41" cy="485.774" r="14.4" fill="#b9e3bb" fill-rule="evenodd" fill-opacity="1" stroke="#000000" stroke-opacity="1" stroke-width="2.8"/>
<circle clip-path="url(#clip582)" cx="1391.41" cy="794.475" r="14.4" fill="#b9e3bb" fill-rule="evenodd" fill-opacity="1" stroke="#000000" stroke-opacity="1" stroke-width="2.8"/>
<circle clip-path="url(#clip582)" cx="1391.41" cy="476.856" r="14.4" fill="#b9e3bb" fill-rule="evenodd" fill-opacity="1" stroke="#000000" stroke-opacity="1" stroke-width="2.8"/>
<polyline clip-path="url(#clip582)" style="stroke:#b9e3bb; stroke-linecap:round; stroke-linejoin:round; stroke-width:0; stroke-opacity:1; fill:none" points="364.957,506.425 344.748,506.425 385.165,506.425 364.957,506.425 364.957,445.383 "/>
<polyline clip-path="url(#clip582)" style="stroke:#b9e3bb; stroke-linecap:round; stroke-linejoin:round; stroke-width:0; stroke-opacity:1; fill:none" points="405.373,445.383 405.373,422.879 324.54,422.879 324.54,445.383 405.373,445.383 405.373,422.879 "/>
<polyline clip-path="url(#clip582)" style="stroke:#b9e3bb; stroke-linecap:round; stroke-linejoin:round; stroke-width:0; stroke-opacity:1; fill:none" points="405.373,402.369 324.54,402.369 324.54,422.879 405.373,422.879 405.373,402.369 364.957,402.369 "/>
<polyline clip-path="url(#clip582)" style="stroke:#b9e3bb; stroke-linecap:round; stroke-linejoin:round; stroke-width:0; stroke-opacity:1; fill:none" points="364.957,378.874 344.748,378.874 385.165,378.874 364.957,378.874 364.957,402.369 "/>
<polyline clip-path="url(#clip582)" style="stroke:#b9e3bb; stroke-linecap:round; stroke-linejoin:round; stroke-width:0; stroke-opacity:1; fill:none" points="878.183,661.185 857.974,661.185 898.391,661.185 878.183,661.185 878.183,570.628 "/>
<polyline clip-path="url(#clip582)" style="stroke:#b9e3bb; stroke-linecap:round; stroke-linejoin:round; stroke-width:0; stroke-opacity:1; fill:none" points="918.599,570.628 918.599,531.935 837.766,531.935 837.766,570.628 918.599,570.628 918.599,531.935 "/>
<polyline clip-path="url(#clip582)" style="stroke:#b9e3bb; stroke-linecap:round; stroke-linejoin:round; stroke-width:0; stroke-opacity:1; fill:none" points="918.599,504.215 837.766,504.215 837.766,531.935 918.599,531.935 918.599,504.215 878.183,504.215 "/>
<polyline clip-path="url(#clip582)" style="stroke:#b9e3bb; stroke-linecap:round; stroke-linejoin:round; stroke-width:0; stroke-opacity:1; fill:none" points="878.183,422.879 857.974,422.879 898.391,422.879 878.183,422.879 878.183,504.215 "/>
<polyline clip-path="url(#clip582)" style="stroke:#b9e3bb; stroke-linecap:round; stroke-linejoin:round; stroke-width:0; stroke-opacity:1; fill:none" points="1391.41,709.654 1371.2,709.654 1411.62,709.654 1391.41,709.654 1391.41,649.543 "/>
<polyline clip-path="url(#clip582)" style="stroke:#b9e3bb; stroke-linecap:round; stroke-linejoin:round; stroke-width:0; stroke-opacity:1; fill:none" points="1431.82,649.543 1431.82,626.18 1350.99,626.18 1350.99,649.543 1431.82,649.543 1431.82,626.18 "/>
<polyline clip-path="url(#clip582)" style="stroke:#b9e3bb; stroke-linecap:round; stroke-linejoin:round; stroke-width:0; stroke-opacity:1; fill:none" points="1431.82,587.373 1350.99,587.373 1350.99,626.18 1431.82,626.18 1431.82,587.373 1391.41,587.373 "/>
<polyline clip-path="url(#clip582)" style="stroke:#b9e3bb; stroke-linecap:round; stroke-linejoin:round; stroke-width:0; stroke-opacity:1; fill:none" points="1391.41,531.935 1371.2,531.935 1411.62,531.935 1391.41,531.935 1391.41,587.373 "/>
<path clip-path="url(#clip582)" d="M454.771 657.954 L434.563 657.954 L474.979 657.954 L454.771 657.954 L454.771 568.008 L454.771 657.954  Z" fill="#7accc4" fill-rule="evenodd" fill-opacity="1"/>
<polyline clip-path="url(#clip582)" style="stroke:#000000; stroke-linecap:round; stroke-linejoin:round; stroke-width:4; stroke-opacity:1; fill:none" points="454.771,657.954 434.563,657.954 474.979,657.954 454.771,657.954 454.771,568.008 454.771,657.954 "/>
<path clip-path="url(#clip582)" d="M495.188 568.008 L495.188 539.752 L414.355 539.752 L414.355 568.008 L495.188 568.008 L495.188 539.752 L495.188 568.008  Z" fill="#7accc4" fill-rule="evenodd" fill-opacity="1"/>
<polyline clip-path="url(#clip582)" style="stroke:#000000; stroke-linecap:round; stroke-linejoin:round; stroke-width:4; stroke-opacity:1; fill:none" points="495.188,568.008 495.188,539.752 414.355,539.752 414.355,568.008 495.188,568.008 495.188,539.752 495.188,568.008 "/>
<path clip-path="url(#clip582)" d="M495.188 498.712 L414.355 498.712 L414.355 539.752 L495.188 539.752 L495.188 498.712 L454.771 498.712 L495.188 498.712  Z" fill="#7accc4" fill-rule="evenodd" fill-opacity="1"/>
<polyline clip-path="url(#clip582)" style="stroke:#000000; stroke-linecap:round; stroke-linejoin:round; stroke-width:4; stroke-opacity:1; fill:none" points="495.188,498.712 414.355,498.712 414.355,539.752 495.188,539.752 495.188,498.712 454.771,498.712 495.188,498.712 "/>
<path clip-path="url(#clip582)" d="M454.771 401.441 L434.563 401.441 L474.979 401.441 L454.771 401.441 L454.771 498.712 L454.771 401.441  Z" fill="#7accc4" fill-rule="evenodd" fill-opacity="1"/>
<polyline clip-path="url(#clip582)" style="stroke:#000000; stroke-linecap:round; stroke-linejoin:round; stroke-width:4; stroke-opacity:1; fill:none" points="454.771,401.441 434.563,401.441 474.979,401.441 454.771,401.441 454.771,498.712 454.771,401.441 "/>
<path clip-path="url(#clip582)" d="M967.997 708.186 L947.789 708.186 L988.205 708.186 L967.997 708.186 L967.997 603.925 L967.997 708.186  Z" fill="#7accc4" fill-rule="evenodd" fill-opacity="1"/>
<polyline clip-path="url(#clip582)" style="stroke:#000000; stroke-linecap:round; stroke-linejoin:round; stroke-width:4; stroke-opacity:1; fill:none" points="967.997,708.186 947.789,708.186 988.205,708.186 967.997,708.186 967.997,603.925 967.997,708.186 "/>
<path clip-path="url(#clip582)" d="M1008.41 603.925 L1008.41 544.052 L927.581 544.052 L927.581 603.925 L1008.41 603.925 L1008.41 544.052 L1008.41 603.925  Z" fill="#7accc4" fill-rule="evenodd" fill-opacity="1"/>
<polyline clip-path="url(#clip582)" style="stroke:#000000; stroke-linecap:round; stroke-linejoin:round; stroke-width:4; stroke-opacity:1; fill:none" points="1008.41,603.925 1008.41,544.052 927.581,544.052 927.581,603.925 1008.41,603.925 1008.41,544.052 1008.41,603.925 "/>
<path clip-path="url(#clip582)" d="M1008.41 504.489 L927.581 504.489 L927.581 544.052 L1008.41 544.052 L1008.41 504.489 L967.997 504.489 L1008.41 504.489  Z" fill="#7accc4" fill-rule="evenodd" fill-opacity="1"/>
<polyline clip-path="url(#clip582)" style="stroke:#000000; stroke-linecap:round; stroke-linejoin:round; stroke-width:4; stroke-opacity:1; fill:none" points="1008.41,504.489 927.581,504.489 927.581,544.052 1008.41,544.052 1008.41,504.489 967.997,504.489 1008.41,504.489 "/>
<path clip-path="url(#clip582)" d="M967.997 402.107 L947.789 402.107 L988.205 402.107 L967.997 402.107 L967.997 504.489 L967.997 402.107  Z" fill="#7accc4" fill-rule="evenodd" fill-opacity="1"/>
<polyline clip-path="url(#clip582)" style="stroke:#000000; stroke-linecap:round; stroke-linejoin:round; stroke-width:4; stroke-opacity:1; fill:none" points="967.997,402.107 947.789,402.107 988.205,402.107 967.997,402.107 967.997,504.489 967.997,402.107 "/>
<path clip-path="url(#clip582)" d="M1481.22 751.199 L1461.01 751.199 L1501.43 751.199 L1481.22 751.199 L1481.22 620.427 L1481.22 751.199  Z" fill="#7accc4" fill-rule="evenodd" fill-opacity="1"/>
<polyline clip-path="url(#clip582)" style="stroke:#000000; stroke-linecap:round; stroke-linejoin:round; stroke-width:4; stroke-opacity:1; fill:none" points="1481.22,751.199 1461.01,751.199 1501.43,751.199 1481.22,751.199 1481.22,620.427 1481.22,751.199 "/>
<path clip-path="url(#clip582)" d="M1521.64 620.427 L1521.64 582.423 L1440.81 582.423 L1440.81 620.427 L1521.64 620.427 L1521.64 582.423 L1521.64 620.427  Z" fill="#7accc4" fill-rule="evenodd" fill-opacity="1"/>
<polyline clip-path="url(#clip582)" style="stroke:#000000; stroke-linecap:round; stroke-linejoin:round; stroke-width:4; stroke-opacity:1; fill:none" points="1521.64,620.427 1521.64,582.423 1440.81,582.423 1440.81,620.427 1521.64,620.427 1521.64,582.423 1521.64,620.427 "/>
<path clip-path="url(#clip582)" d="M1521.64 531.935 L1440.81 531.935 L1440.81 582.423 L1521.64 582.423 L1521.64 531.935 L1481.22 531.935 L1521.64 531.935  Z" fill="#7accc4" fill-rule="evenodd" fill-opacity="1"/>
<polyline clip-path="url(#clip582)" style="stroke:#000000; stroke-linecap:round; stroke-linejoin:round; stroke-width:4; stroke-opacity:1; fill:none" points="1521.64,531.935 1440.81,531.935 1440.81,582.423 1521.64,582.423 1521.64,531.935 1481.22,531.935 1521.64,531.935 "/>
<path clip-path="url(#clip582)" d="M1481.22 410.762 L1461.01 410.762 L1501.43 410.762 L1481.22 410.762 L1481.22 531.935 L1481.22 410.762  Z" fill="#7accc4" fill-rule="evenodd" fill-opacity="1"/>
<polyline clip-path="url(#clip582)" style="stroke:#000000; stroke-linecap:round; stroke-linejoin:round; stroke-width:4; stroke-opacity:1; fill:none" points="1481.22,410.762 1461.01,410.762 1501.43,410.762 1481.22,410.762 1481.22,531.935 1481.22,410.762 "/>
<polyline clip-path="url(#clip582)" style="stroke:#7accc4; stroke-linecap:round; stroke-linejoin:round; stroke-width:0; stroke-opacity:1; fill:none" points="454.771,657.954 434.563,657.954 474.979,657.954 454.771,657.954 454.771,568.008 "/>
<polyline clip-path="url(#clip582)" style="stroke:#7accc4; stroke-linecap:round; stroke-linejoin:round; stroke-width:0; stroke-opacity:1; fill:none" points="495.188,568.008 495.188,539.752 414.355,539.752 414.355,568.008 495.188,568.008 495.188,539.752 "/>
<polyline clip-path="url(#clip582)" style="stroke:#7accc4; stroke-linecap:round; stroke-linejoin:round; stroke-width:0; stroke-opacity:1; fill:none" points="495.188,498.712 414.355,498.712 414.355,539.752 495.188,539.752 495.188,498.712 454.771,498.712 "/>
<polyline clip-path="url(#clip582)" style="stroke:#7accc4; stroke-linecap:round; stroke-linejoin:round; stroke-width:0; stroke-opacity:1; fill:none" points="454.771,401.441 434.563,401.441 474.979,401.441 454.771,401.441 454.771,498.712 "/>
<polyline clip-path="url(#clip582)" style="stroke:#7accc4; stroke-linecap:round; stroke-linejoin:round; stroke-width:0; stroke-opacity:1; fill:none" points="967.997,708.186 947.789,708.186 988.205,708.186 967.997,708.186 967.997,603.925 "/>
<polyline clip-path="url(#clip582)" style="stroke:#7accc4; stroke-linecap:round; stroke-linejoin:round; stroke-width:0; stroke-opacity:1; fill:none" points="1008.41,603.925 1008.41,544.052 927.581,544.052 927.581,603.925 1008.41,603.925 1008.41,544.052 "/>
<polyline clip-path="url(#clip582)" style="stroke:#7accc4; stroke-linecap:round; stroke-linejoin:round; stroke-width:0; stroke-opacity:1; fill:none" points="1008.41,504.489 927.581,504.489 927.581,544.052 1008.41,544.052 1008.41,504.489 967.997,504.489 "/>
<polyline clip-path="url(#clip582)" style="stroke:#7accc4; stroke-linecap:round; stroke-linejoin:round; stroke-width:0; stroke-opacity:1; fill:none" points="967.997,402.107 947.789,402.107 988.205,402.107 967.997,402.107 967.997,504.489 "/>
<polyline clip-path="url(#clip582)" style="stroke:#7accc4; stroke-linecap:round; stroke-linejoin:round; stroke-width:0; stroke-opacity:1; fill:none" points="1481.22,751.199 1461.01,751.199 1501.43,751.199 1481.22,751.199 1481.22,620.427 "/>
<polyline clip-path="url(#clip582)" style="stroke:#7accc4; stroke-linecap:round; stroke-linejoin:round; stroke-width:0; stroke-opacity:1; fill:none" points="1521.64,620.427 1521.64,582.423 1440.81,582.423 1440.81,620.427 1521.64,620.427 1521.64,582.423 "/>
<polyline clip-path="url(#clip582)" style="stroke:#7accc4; stroke-linecap:round; stroke-linejoin:round; stroke-width:0; stroke-opacity:1; fill:none" points="1521.64,531.935 1440.81,531.935 1440.81,582.423 1521.64,582.423 1521.64,531.935 1481.22,531.935 "/>
<polyline clip-path="url(#clip582)" style="stroke:#7accc4; stroke-linecap:round; stroke-linejoin:round; stroke-width:0; stroke-opacity:1; fill:none" points="1481.22,410.762 1461.01,410.762 1501.43,410.762 1481.22,410.762 1481.22,531.935 "/>
<path clip-path="url(#clip582)" d="M544.586 542.032 L524.377 542.032 L564.794 542.032 L544.586 542.032 L544.586 483.388 L544.586 542.032  Z" fill="#43a1c9" fill-rule="evenodd" fill-opacity="1"/>
<polyline clip-path="url(#clip582)" style="stroke:#000000; stroke-linecap:round; stroke-linejoin:round; stroke-width:4; stroke-opacity:1; fill:none" points="544.586,542.032 524.377,542.032 564.794,542.032 544.586,542.032 544.586,483.388 544.586,542.032 "/>
<path clip-path="url(#clip582)" d="M585.002 483.388 L585.002 444.69 L504.169 444.69 L504.169 483.388 L585.002 483.388 L585.002 444.69 L585.002 483.388  Z" fill="#43a1c9" fill-rule="evenodd" fill-opacity="1"/>
<polyline clip-path="url(#clip582)" style="stroke:#000000; stroke-linecap:round; stroke-linejoin:round; stroke-width:4; stroke-opacity:1; fill:none" points="585.002,483.388 585.002,444.69 504.169,444.69 504.169,483.388 585.002,483.388 585.002,444.69 585.002,483.388 "/>
<path clip-path="url(#clip582)" d="M585.002 413.185 L504.169 413.185 L504.169 444.69 L585.002 444.69 L585.002 413.185 L544.586 413.185 L585.002 413.185  Z" fill="#43a1c9" fill-rule="evenodd" fill-opacity="1"/>
<polyline clip-path="url(#clip582)" style="stroke:#000000; stroke-linecap:round; stroke-linejoin:round; stroke-width:4; stroke-opacity:1; fill:none" points="585.002,413.185 504.169,413.185 504.169,444.69 585.002,444.69 585.002,413.185 544.586,413.185 585.002,413.185 "/>
<path clip-path="url(#clip582)" d="M544.586 315.555 L524.377 315.555 L564.794 315.555 L544.586 315.555 L544.586 413.185 L544.586 315.555  Z" fill="#43a1c9" fill-rule="evenodd" fill-opacity="1"/>
<polyline clip-path="url(#clip582)" style="stroke:#000000; stroke-linecap:round; stroke-linejoin:round; stroke-width:4; stroke-opacity:1; fill:none" points="544.586,315.555 524.377,315.555 564.794,315.555 544.586,315.555 544.586,413.185 544.586,315.555 "/>
<path clip-path="url(#clip582)" d="M1057.81 717.257 L1037.6 717.257 L1078.02 717.257 L1057.81 717.257 L1057.81 617.322 L1057.81 717.257  Z" fill="#43a1c9" fill-rule="evenodd" fill-opacity="1"/>
<polyline clip-path="url(#clip582)" style="stroke:#000000; stroke-linecap:round; stroke-linejoin:round; stroke-width:4; stroke-opacity:1; fill:none" points="1057.81,717.257 1037.6,717.257 1078.02,717.257 1057.81,717.257 1057.81,617.322 1057.81,717.257 "/>
<path clip-path="url(#clip582)" d="M1098.23 617.322 L1098.23 574.701 L1017.4 574.701 L1017.4 617.322 L1098.23 617.322 L1098.23 574.701 L1098.23 617.322  Z" fill="#43a1c9" fill-rule="evenodd" fill-opacity="1"/>
<polyline clip-path="url(#clip582)" style="stroke:#000000; stroke-linecap:round; stroke-linejoin:round; stroke-width:4; stroke-opacity:1; fill:none" points="1098.23,617.322 1098.23,574.701 1017.4,574.701 1017.4,617.322 1098.23,617.322 1098.23,574.701 1098.23,617.322 "/>
<path clip-path="url(#clip582)" d="M1098.23 537.993 L1017.4 537.993 L1017.4 574.701 L1098.23 574.701 L1098.23 537.993 L1057.81 537.993 L1098.23 537.993  Z" fill="#43a1c9" fill-rule="evenodd" fill-opacity="1"/>
<polyline clip-path="url(#clip582)" style="stroke:#000000; stroke-linecap:round; stroke-linejoin:round; stroke-width:4; stroke-opacity:1; fill:none" points="1098.23,537.993 1017.4,537.993 1017.4,574.701 1098.23,574.701 1098.23,537.993 1057.81,537.993 1098.23,537.993 "/>
<path clip-path="url(#clip582)" d="M1057.81 460.657 L1037.6 460.657 L1078.02 460.657 L1057.81 460.657 L1057.81 537.993 L1057.81 460.657  Z" fill="#43a1c9" fill-rule="evenodd" fill-opacity="1"/>
<polyline clip-path="url(#clip582)" style="stroke:#000000; stroke-linecap:round; stroke-linejoin:round; stroke-width:4; stroke-opacity:1; fill:none" points="1057.81,460.657 1037.6,460.657 1078.02,460.657 1057.81,460.657 1057.81,537.993 1057.81,460.657 "/>
<path clip-path="url(#clip582)" d="M1571.04 666.571 L1550.83 666.571 L1591.25 666.571 L1571.04 666.571 L1571.04 627.526 L1571.04 666.571  Z" fill="#43a1c9" fill-rule="evenodd" fill-opacity="1"/>
<polyline clip-path="url(#clip582)" style="stroke:#000000; stroke-linecap:round; stroke-linejoin:round; stroke-width:4; stroke-opacity:1; fill:none" points="1571.04,666.571 1550.83,666.571 1591.25,666.571 1571.04,666.571 1571.04,627.526 1571.04,666.571 "/>
<path clip-path="url(#clip582)" d="M1611.45 627.526 L1611.45 603.213 L1530.62 603.213 L1530.62 627.526 L1611.45 627.526 L1611.45 603.213 L1611.45 627.526  Z" fill="#43a1c9" fill-rule="evenodd" fill-opacity="1"/>
<polyline clip-path="url(#clip582)" style="stroke:#000000; stroke-linecap:round; stroke-linejoin:round; stroke-width:4; stroke-opacity:1; fill:none" points="1611.45,627.526 1611.45,603.213 1530.62,603.213 1530.62,627.526 1611.45,627.526 1611.45,603.213 1611.45,627.526 "/>
<path clip-path="url(#clip582)" d="M1611.45 569.243 L1530.62 569.243 L1530.62 603.213 L1611.45 603.213 L1611.45 569.243 L1571.04 569.243 L1611.45 569.243  Z" fill="#43a1c9" fill-rule="evenodd" fill-opacity="1"/>
<polyline clip-path="url(#clip582)" style="stroke:#000000; stroke-linecap:round; stroke-linejoin:round; stroke-width:4; stroke-opacity:1; fill:none" points="1611.45,569.243 1530.62,569.243 1530.62,603.213 1611.45,603.213 1611.45,569.243 1571.04,569.243 1611.45,569.243 "/>
<path clip-path="url(#clip582)" d="M1571.04 544.69 L1550.83 544.69 L1591.25 544.69 L1571.04 544.69 L1571.04 569.243 L1571.04 544.69  Z" fill="#43a1c9" fill-rule="evenodd" fill-opacity="1"/>
<polyline clip-path="url(#clip582)" style="stroke:#000000; stroke-linecap:round; stroke-linejoin:round; stroke-width:4; stroke-opacity:1; fill:none" points="1571.04,544.69 1550.83,544.69 1591.25,544.69 1571.04,544.69 1571.04,569.243 1571.04,544.69 "/>
<circle clip-path="url(#clip582)" cx="1057.81" cy="758.123" r="14.4" fill="#43a1c9" fill-rule="evenodd" fill-opacity="1" stroke="#000000" stroke-opacity="1" stroke-width="2.8"/>
<polyline clip-path="url(#clip582)" style="stroke:#43a1c9; stroke-linecap:round; stroke-linejoin:round; stroke-width:0; stroke-opacity:1; fill:none" points="544.586,542.032 524.377,542.032 564.794,542.032 544.586,542.032 544.586,483.388 "/>
<polyline clip-path="url(#clip582)" style="stroke:#43a1c9; stroke-linecap:round; stroke-linejoin:round; stroke-width:0; stroke-opacity:1; fill:none" points="585.002,483.388 585.002,444.69 504.169,444.69 504.169,483.388 585.002,483.388 585.002,444.69 "/>
<polyline clip-path="url(#clip582)" style="stroke:#43a1c9; stroke-linecap:round; stroke-linejoin:round; stroke-width:0; stroke-opacity:1; fill:none" points="585.002,413.185 504.169,413.185 504.169,444.69 585.002,444.69 585.002,413.185 544.586,413.185 "/>
<polyline clip-path="url(#clip582)" style="stroke:#43a1c9; stroke-linecap:round; stroke-linejoin:round; stroke-width:0; stroke-opacity:1; fill:none" points="544.586,315.555 524.377,315.555 564.794,315.555 544.586,315.555 544.586,413.185 "/>
<polyline clip-path="url(#clip582)" style="stroke:#43a1c9; stroke-linecap:round; stroke-linejoin:round; stroke-width:0; stroke-opacity:1; fill:none" points="1057.81,717.257 1037.6,717.257 1078.02,717.257 1057.81,717.257 1057.81,617.322 "/>
<polyline clip-path="url(#clip582)" style="stroke:#43a1c9; stroke-linecap:round; stroke-linejoin:round; stroke-width:0; stroke-opacity:1; fill:none" points="1098.23,617.322 1098.23,574.701 1017.4,574.701 1017.4,617.322 1098.23,617.322 1098.23,574.701 "/>
<polyline clip-path="url(#clip582)" style="stroke:#43a1c9; stroke-linecap:round; stroke-linejoin:round; stroke-width:0; stroke-opacity:1; fill:none" points="1098.23,537.993 1017.4,537.993 1017.4,574.701 1098.23,574.701 1098.23,537.993 1057.81,537.993 "/>
<polyline clip-path="url(#clip582)" style="stroke:#43a1c9; stroke-linecap:round; stroke-linejoin:round; stroke-width:0; stroke-opacity:1; fill:none" points="1057.81,460.657 1037.6,460.657 1078.02,460.657 1057.81,460.657 1057.81,537.993 "/>
<polyline clip-path="url(#clip582)" style="stroke:#43a1c9; stroke-linecap:round; stroke-linejoin:round; stroke-width:0; stroke-opacity:1; fill:none" points="1571.04,666.571 1550.83,666.571 1591.25,666.571 1571.04,666.571 1571.04,627.526 "/>
<polyline clip-path="url(#clip582)" style="stroke:#43a1c9; stroke-linecap:round; stroke-linejoin:round; stroke-width:0; stroke-opacity:1; fill:none" points="1611.45,627.526 1611.45,603.213 1530.62,603.213 1530.62,627.526 1611.45,627.526 1611.45,603.213 "/>
<polyline clip-path="url(#clip582)" style="stroke:#43a1c9; stroke-linecap:round; stroke-linejoin:round; stroke-width:0; stroke-opacity:1; fill:none" points="1611.45,569.243 1530.62,569.243 1530.62,603.213 1611.45,603.213 1611.45,569.243 1571.04,569.243 "/>
<polyline clip-path="url(#clip582)" style="stroke:#43a1c9; stroke-linecap:round; stroke-linejoin:round; stroke-width:0; stroke-opacity:1; fill:none" points="1571.04,544.69 1550.83,544.69 1591.25,544.69 1571.04,544.69 1571.04,569.243 "/>
</svg>
