<?xml version="1.0" encoding="utf-8"?>
<svg xmlns="http://www.w3.org/2000/svg" xmlns:xlink="http://www.w3.org/1999/xlink" width="425" height="350" viewBox="0 0 1700 1400">
<defs>
  <clipPath id="clip710">
    <rect x="0" y="0" width="1700" height="1400"/>
  </clipPath>
</defs>
<path clip-path="url(#clip710)" d="M0 1400 L1700 1400 L1700 0 L0 0  Z" fill="#ffffff" fill-rule="evenodd" fill-opacity="1"/>
<defs>
  <clipPath id="clip711">
    <rect x="340" y="0" width="1191" height="1191"/>
  </clipPath>
</defs>
<path clip-path="url(#clip710)" d="M249.933 1258.97 L1652.76 1258.97 L1652.76 47.2441 L249.933 47.2441  Z" fill="#ffffff" fill-rule="evenodd" fill-opacity="1"/>
<defs>
  <clipPath id="clip712">
    <rect x="249" y="47" width="1404" height="1213"/>
  </clipPath>
</defs>
<polyline clip-path="url(#clip712)" style="stroke:#000000; stroke-linecap:round; stroke-linejoin:round; stroke-width:2; stroke-opacity:0.1; fill:none" points="457.992,1258.97 457.992,47.2441 "/>
<polyline clip-path="url(#clip712)" style="stroke:#000000; stroke-linecap:round; stroke-linejoin:round; stroke-width:2; stroke-opacity:0.1; fill:none" points="951.344,1258.97 951.344,47.2441 "/>
<polyline clip-path="url(#clip712)" style="stroke:#000000; stroke-linecap:round; stroke-linejoin:round; stroke-width:2; stroke-opacity:0.1; fill:none" points="1444.7,1258.97 1444.7,47.2441 "/>
<polyline clip-path="url(#clip710)" style="stroke:#000000; stroke-linecap:round; stroke-linejoin:round; stroke-width:4; stroke-opacity:1; fill:none" points="249.933,1258.97 1652.76,1258.97 "/>
<polyline clip-path="url(#clip710)" style="stroke:#000000; stroke-linecap:round; stroke-linejoin:round; stroke-width:4; stroke-opacity:1; fill:none" points="249.933,47.2441 1652.76,47.2441 "/>
<polyline clip-path="url(#clip710)" style="stroke:#000000; stroke-linecap:round; stroke-linejoin:round; stroke-width:4; stroke-opacity:1; fill:none" points="457.992,1258.97 457.992,1240.07 "/>
<polyline clip-path="url(#clip710)" style="stroke:#000000; stroke-linecap:round; stroke-linejoin:round; stroke-width:4; stroke-opacity:1; fill:none" points="951.344,1258.97 951.344,1240.07 "/>
<polyline clip-path="url(#clip710)" style="stroke:#000000; stroke-linecap:round; stroke-linejoin:round; stroke-width:4; stroke-opacity:1; fill:none" points="1444.7,1258.97 1444.7,1240.07 "/>
<path clip-path="url(#clip710)" d="M405.151 1303.06 L406.596 1286.01 L452.952 1286.01 L454.397 1303.06 L452.508 1303.06 Q452.211 1299.65 451.915 1297.68 Q451.655 1295.72 450.988 1293.87 Q450.358 1291.98 449.543 1291.09 Q448.765 1290.16 447.246 1289.46 Q445.727 1288.72 443.763 1288.53 Q441.799 1288.35 438.834 1288.35 Q435.351 1288.35 434.499 1288.49 Q433.573 1288.72 433.35 1289.38 Q433.128 1290.01 433.128 1291.38 L433.128 1331.37 Q433.128 1332.89 433.424 1333.52 Q433.758 1334.11 435.499 1334.59 Q437.241 1335.04 441.095 1335.04 L444.133 1335.04 L444.133 1337.37 Q441.021 1337.15 429.719 1337.15 Q418.491 1337.15 415.379 1337.37 L415.379 1335.04 L418.417 1335.04 Q422.271 1335.04 424.012 1334.59 Q425.791 1334.11 426.087 1333.52 Q426.384 1332.89 426.384 1331.37 L426.384 1291.38 Q426.384 1290.31 426.31 1289.87 Q426.236 1289.42 425.902 1289.05 Q425.569 1288.64 424.79 1288.49 Q424.049 1288.35 420.714 1288.35 Q417.75 1288.35 415.749 1288.53 Q413.785 1288.72 412.266 1289.46 Q410.747 1290.16 409.931 1291.09 Q409.153 1291.98 408.486 1293.87 Q407.856 1295.72 407.597 1297.68 Q407.338 1299.65 407.041 1303.06 L405.151 1303.06 Z" fill="#000000" fill-rule="nonzero" fill-opacity="1" /><path clip-path="url(#clip710)" d="M459.845 1337.37 L459.845 1335.04 L461.66 1335.04 Q465.773 1335.04 466.7 1334.37 Q467.663 1333.66 467.663 1331.44 L467.663 1291.46 Q467.663 1289.27 466.7 1288.61 Q465.736 1287.9 461.66 1287.9 L459.845 1287.9 L459.845 1285.53 L487.599 1285.53 Q497.307 1285.53 504.051 1293.27 Q510.832 1301.02 510.832 1311.88 Q510.832 1322.51 504.014 1329.96 Q497.233 1337.37 487.599 1337.37 L459.845 1337.37 M474.185 1332 Q474.185 1333.96 474.741 1334.52 Q475.297 1335.04 477.89 1335.04 L485.561 1335.04 Q490.563 1335.04 493.935 1333 Q497.307 1330.92 499.049 1328.55 Q503.236 1322.84 503.236 1311.88 Q503.236 1300.35 499.308 1294.94 Q494.232 1287.9 485.487 1287.9 L477.89 1287.9 Q475.297 1287.9 474.741 1288.42 Q474.185 1288.94 474.185 1290.94 L474.185 1332 Z" fill="#000000" fill-rule="nonzero" fill-opacity="1" /><path clip-path="url(#clip710)" d="M728.501 1328.87 L728.501 1326.54 L730.317 1326.54 Q734.43 1326.54 735.357 1325.87 Q736.32 1325.17 736.32 1322.94 L736.32 1283.18 Q736.32 1281 735.357 1280.33 Q734.393 1279.62 730.317 1279.62 L728.501 1279.62 L728.501 1277.25 L770.151 1277.25 L772.263 1294.34 L770.374 1294.34 Q769.855 1290 769.151 1287.55 Q768.484 1285.07 766.928 1283.11 Q765.371 1281.14 762.74 1280.4 Q760.146 1279.62 755.885 1279.62 L746.77 1279.62 Q744.176 1279.62 743.62 1280.18 Q743.064 1280.7 743.064 1282.66 L743.064 1301.86 L749.586 1301.86 Q754.736 1301.86 756.182 1300 Q757.627 1298.15 757.627 1292.96 L759.517 1292.96 L759.517 1313.09 L757.627 1313.09 Q757.627 1307.86 756.182 1306.04 Q754.736 1304.19 749.586 1304.19 L743.064 1304.19 L743.064 1322.87 Q743.064 1324.46 743.323 1325.09 Q743.583 1325.68 745.176 1326.13 Q746.77 1326.54 750.253 1326.54 L752.773 1326.54 L752.773 1328.87 Q750.03 1328.65 740.026 1328.65 Q731.169 1328.65 728.501 1328.87 Z" fill="#000000" fill-rule="nonzero" fill-opacity="1" /><path clip-path="url(#clip710)" d="M778.266 1328.87 L778.266 1326.54 Q781.008 1326.54 782.75 1326.02 Q784.492 1325.46 785.122 1324.46 Q785.789 1323.42 785.937 1322.76 Q786.085 1322.05 786.085 1320.9 L786.085 1282.96 Q786.085 1280.77 785.122 1280.11 Q784.195 1279.4 780.082 1279.4 L778.266 1279.4 L778.266 1277.03 L791.087 1277.03 Q792.458 1277.03 792.829 1277.29 Q793.2 1277.51 793.755 1278.7 L810.208 1321.2 L826.808 1278.48 Q827.179 1277.4 827.513 1277.22 Q827.883 1277.03 829.328 1277.03 L842.149 1277.03 L842.149 1279.4 L840.334 1279.4 Q836.22 1279.4 835.257 1280.11 Q834.331 1280.77 834.331 1282.96 L834.331 1322.94 Q834.331 1325.13 835.257 1325.83 Q836.22 1326.54 840.334 1326.54 L842.149 1326.54 L842.149 1328.87 Q839.333 1328.65 831.292 1328.65 Q823.177 1328.65 820.361 1328.87 L820.361 1326.54 L822.214 1326.54 Q826.327 1326.54 827.253 1325.87 Q828.18 1325.17 828.18 1322.94 L828.18 1279.4 L828.105 1279.4 L809.467 1327.43 Q808.948 1328.87 808.096 1328.87 Q807.169 1328.87 806.576 1327.2 L788.271 1280 L788.197 1280 L788.197 1320.9 Q788.197 1322.05 788.345 1322.76 Q788.494 1323.42 789.124 1324.46 Q789.79 1325.46 791.532 1326.02 Q793.274 1326.54 796.016 1326.54 L796.016 1328.87 Q788.049 1328.65 787.123 1328.65 Q786.233 1328.65 778.266 1328.87 Z" fill="#000000" fill-rule="nonzero" fill-opacity="1" /><path clip-path="url(#clip710)" d="M852.525 1327.65 Q851.45 1326.43 851.45 1324.83 Q851.45 1323.24 852.488 1322.05 Q853.562 1320.83 855.489 1320.83 Q857.749 1320.83 859.046 1323.02 Q860.343 1325.17 860.343 1328.8 Q860.343 1332.72 858.75 1336.36 Q857.157 1340.02 855.6 1341.77 Q854.044 1343.51 853.414 1343.51 Q852.673 1343.51 852.673 1342.69 Q852.673 1342.4 853.192 1341.84 Q858.639 1335.99 858.676 1328.8 Q858.676 1327.65 858.528 1327.65 L858.342 1327.8 Q857.045 1328.87 855.489 1328.87 Q853.599 1328.87 852.525 1327.65 Z" fill="#000000" fill-rule="nonzero" fill-opacity="1" /><path clip-path="url(#clip710)" d="M928.907 1310 Q928.907 1313.55 927.08 1317.1 Q925.253 1320.65 922.266 1323.39 Q919.28 1326.1 915.205 1327.85 Q911.129 1329.61 906.878 1329.75 L904.137 1340.46 Q903.61 1343.06 903.329 1343.35 Q903.048 1343.63 902.627 1343.63 Q901.748 1343.63 901.748 1342.82 Q901.748 1342.57 903.329 1336.49 L905.016 1329.75 Q898.621 1329.4 894.897 1325.71 Q891.173 1322.02 891.173 1316.71 Q891.173 1313.13 893 1309.58 Q894.862 1306 897.848 1303.29 Q900.87 1300.59 904.945 1298.87 Q909.021 1297.15 913.202 1297 L917.383 1280.39 Q917.594 1279.44 917.769 1279.19 Q917.945 1278.95 918.472 1278.95 Q918.858 1278.95 919.069 1279.12 Q919.28 1279.3 919.28 1279.47 L919.315 1279.65 L919.104 1280.67 L915.064 1297 Q918.648 1297.25 921.423 1298.52 Q924.199 1299.78 925.78 1301.68 Q927.361 1303.54 928.134 1305.65 Q928.907 1307.76 928.907 1310 M912.78 1298.59 Q908.916 1298.94 905.648 1300.83 Q902.381 1302.73 900.273 1305.54 Q898.165 1308.32 897.005 1311.66 Q895.846 1314.96 895.846 1318.23 Q895.846 1320.79 896.689 1322.76 Q897.567 1324.73 899.008 1325.85 Q900.448 1326.94 902.029 1327.54 Q903.646 1328.1 905.367 1328.17 L912.78 1298.59 M924.199 1308.49 Q924.199 1303.93 921.564 1301.36 Q918.929 1298.8 914.642 1298.59 L907.229 1328.17 Q910.356 1327.92 913.096 1326.62 Q915.872 1325.29 917.875 1323.32 Q919.877 1321.32 921.318 1318.86 Q922.758 1316.36 923.461 1313.73 Q924.199 1311.06 924.199 1308.49 Z" fill="#000000" fill-rule="nonzero" fill-opacity="1" /><path clip-path="url(#clip710)" d="M963.196 1317.35 Q963.27 1316.42 964.715 1316.42 L1011.22 1316.42 Q1013.41 1316.42 1013.44 1317.27 Q1013.44 1318.2 1011.37 1318.16 L965.234 1318.16 Q963.196 1318.2 963.196 1317.35 M963.196 1302.52 Q963.196 1301.6 964.789 1301.64 L1011.14 1301.64 Q1013.41 1301.64 1013.44 1302.52 Q1013.44 1303.38 1011.52 1303.38 L964.715 1303.38 Q963.196 1303.38 963.196 1302.52 Z" fill="#000000" fill-rule="nonzero" fill-opacity="1" /><path clip-path="url(#clip710)" d="M1046.09 1304.6 Q1046.09 1293.45 1048.9 1287.37 Q1052.83 1278.33 1062.1 1278.33 Q1064.06 1278.33 1066.1 1278.88 Q1068.17 1279.4 1070.77 1281.44 Q1073.4 1283.48 1074.99 1286.81 Q1078.03 1293.26 1078.03 1304.6 Q1078.03 1315.68 1075.21 1321.72 Q1071.1 1330.54 1062.02 1330.54 Q1058.61 1330.54 1055.13 1328.8 Q1051.68 1327.06 1049.5 1322.87 Q1046.09 1316.61 1046.09 1304.6 M1052.39 1303.67 Q1052.39 1315.12 1053.2 1319.68 Q1054.13 1324.61 1056.65 1326.76 Q1059.21 1328.87 1062.02 1328.87 Q1065.06 1328.87 1067.58 1326.61 Q1070.14 1324.31 1070.91 1319.38 Q1071.77 1314.53 1071.73 1303.67 Q1071.73 1293.11 1070.99 1288.89 Q1069.99 1283.96 1067.32 1282 Q1064.69 1280 1062.02 1280 Q1061.02 1280 1059.95 1280.29 Q1058.91 1280.59 1057.39 1281.44 Q1055.87 1282.29 1054.68 1284.4 Q1053.54 1286.52 1052.98 1289.7 Q1052.39 1293.82 1052.39 1303.67 Z" fill="#000000" fill-rule="nonzero" fill-opacity="1" /><path clip-path="url(#clip710)" d="M1088.66 1327.65 Q1087.52 1326.43 1087.52 1324.83 Q1087.52 1323.24 1088.66 1322.09 Q1089.81 1320.9 1091.55 1320.9 Q1093.22 1320.9 1094.33 1322.02 Q1095.48 1323.09 1095.48 1324.87 Q1095.48 1326.61 1094.26 1327.76 Q1093.07 1328.87 1091.55 1328.87 Q1089.81 1328.87 1088.66 1327.65 Z" fill="#000000" fill-rule="nonzero" fill-opacity="1" /><path clip-path="url(#clip710)" d="M1105.12 1304.6 Q1105.12 1293.45 1107.93 1287.37 Q1111.86 1278.33 1121.12 1278.33 Q1123.09 1278.33 1125.13 1278.88 Q1127.2 1279.4 1129.8 1281.44 Q1132.43 1283.48 1134.02 1286.81 Q1137.06 1293.26 1137.06 1304.6 Q1137.06 1315.68 1134.24 1321.72 Q1130.13 1330.54 1121.05 1330.54 Q1117.64 1330.54 1114.16 1328.8 Q1110.71 1327.06 1108.53 1322.87 Q1105.12 1316.61 1105.12 1304.6 M1111.42 1303.67 Q1111.42 1315.12 1112.23 1319.68 Q1113.16 1324.61 1115.68 1326.76 Q1118.23 1328.87 1121.05 1328.87 Q1124.09 1328.87 1126.61 1326.61 Q1129.17 1324.31 1129.94 1319.38 Q1130.8 1314.53 1130.76 1303.67 Q1130.76 1293.11 1130.02 1288.89 Q1129.02 1283.96 1126.35 1282 Q1123.72 1280 1121.05 1280 Q1120.05 1280 1118.98 1280.29 Q1117.94 1280.59 1116.42 1281.44 Q1114.9 1282.29 1113.71 1284.4 Q1112.56 1286.52 1112.01 1289.7 Q1111.42 1293.82 1111.42 1303.67 Z" fill="#000000" fill-rule="nonzero" fill-opacity="1" /><path clip-path="url(#clip710)" d="M1143.88 1316.64 Q1143.88 1314.38 1145.1 1313.53 Q1146.32 1312.64 1147.62 1312.64 Q1149.36 1312.64 1150.36 1313.75 Q1151.4 1314.83 1151.4 1316.35 Q1151.4 1317.87 1150.36 1318.98 Q1149.36 1320.05 1147.62 1320.05 Q1146.77 1320.05 1146.32 1319.9 Q1147.32 1323.39 1150.36 1325.91 Q1153.44 1328.43 1157.48 1328.43 Q1162.55 1328.43 1165.59 1323.5 Q1167.41 1320.31 1167.41 1313.09 Q1167.41 1306.71 1166.04 1303.53 Q1163.92 1298.67 1159.59 1298.67 Q1153.44 1298.67 1149.8 1303.97 Q1149.36 1304.64 1148.84 1304.67 Q1148.1 1304.67 1147.92 1304.27 Q1147.77 1303.82 1147.77 1302.67 L1147.77 1280.22 Q1147.77 1278.4 1148.51 1278.4 Q1148.8 1278.4 1149.43 1278.62 Q1154.21 1280.74 1159.51 1280.77 Q1164.96 1280.77 1169.85 1278.55 Q1170.22 1278.33 1170.44 1278.33 Q1171.19 1278.33 1171.22 1279.18 Q1171.22 1279.48 1170.59 1280.37 Q1170 1281.22 1168.7 1282.37 Q1167.41 1283.48 1165.74 1284.55 Q1164.07 1285.63 1161.63 1286.37 Q1159.22 1287.07 1156.55 1287.07 Q1153.36 1287.07 1150.1 1286.07 L1150.1 1300.86 Q1154.03 1297 1159.74 1297 Q1165.81 1297 1170 1301.89 Q1174.19 1306.79 1174.19 1313.6 Q1174.19 1320.76 1169.22 1325.65 Q1164.29 1330.54 1157.62 1330.54 Q1151.55 1330.54 1147.69 1326.2 Q1143.88 1321.87 1143.88 1316.64 Z" fill="#000000" fill-rule="nonzero" fill-opacity="1" /><path clip-path="url(#clip710)" d="M1241.97 1328.87 L1241.97 1326.54 L1243.79 1326.54 Q1247.9 1326.54 1248.83 1325.87 Q1249.79 1325.17 1249.79 1322.94 L1249.79 1283.18 Q1249.79 1281 1248.83 1280.33 Q1247.87 1279.62 1243.79 1279.62 L1241.97 1279.62 L1241.97 1277.25 L1283.62 1277.25 L1285.74 1294.34 L1283.85 1294.34 Q1283.33 1290 1282.62 1287.55 Q1281.96 1285.07 1280.4 1283.11 Q1278.84 1281.14 1276.21 1280.4 Q1273.62 1279.62 1269.36 1279.62 L1260.24 1279.62 Q1257.65 1279.62 1257.09 1280.18 Q1256.54 1280.7 1256.54 1282.66 L1256.54 1301.86 L1263.06 1301.86 Q1268.21 1301.86 1269.65 1300 Q1271.1 1298.15 1271.1 1292.96 L1272.99 1292.96 L1272.99 1313.09 L1271.1 1313.09 Q1271.1 1307.86 1269.65 1306.04 Q1268.21 1304.19 1263.06 1304.19 L1256.54 1304.19 L1256.54 1322.87 Q1256.54 1324.46 1256.8 1325.09 Q1257.06 1325.68 1258.65 1326.13 Q1260.24 1326.54 1263.73 1326.54 L1266.25 1326.54 L1266.25 1328.87 Q1263.5 1328.65 1253.5 1328.65 Q1244.64 1328.65 1241.97 1328.87 Z" fill="#000000" fill-rule="nonzero" fill-opacity="1" /><path clip-path="url(#clip710)" d="M1291.74 1328.87 L1291.74 1326.54 Q1294.48 1326.54 1296.22 1326.02 Q1297.97 1325.46 1298.59 1324.46 Q1299.26 1323.42 1299.41 1322.76 Q1299.56 1322.05 1299.56 1320.9 L1299.56 1282.96 Q1299.56 1280.77 1298.59 1280.11 Q1297.67 1279.4 1293.56 1279.4 L1291.74 1279.4 L1291.74 1277.03 L1304.56 1277.03 Q1305.93 1277.03 1306.3 1277.29 Q1306.67 1277.51 1307.23 1278.7 L1323.68 1321.2 L1340.28 1278.48 Q1340.65 1277.4 1340.99 1277.22 Q1341.36 1277.03 1342.8 1277.03 L1355.62 1277.03 L1355.62 1279.4 L1353.81 1279.4 Q1349.69 1279.4 1348.73 1280.11 Q1347.8 1280.77 1347.8 1282.96 L1347.8 1322.94 Q1347.8 1325.13 1348.73 1325.83 Q1349.69 1326.54 1353.81 1326.54 L1355.62 1326.54 L1355.62 1328.87 Q1352.81 1328.65 1344.77 1328.65 Q1336.65 1328.65 1333.83 1328.87 L1333.83 1326.54 L1335.69 1326.54 Q1339.8 1326.54 1340.73 1325.87 Q1341.65 1325.17 1341.65 1322.94 L1341.65 1279.4 L1341.58 1279.4 L1322.94 1327.43 Q1322.42 1328.87 1321.57 1328.87 Q1320.64 1328.87 1320.05 1327.2 L1301.74 1280 L1301.67 1280 L1301.67 1320.9 Q1301.67 1322.05 1301.82 1322.76 Q1301.97 1323.42 1302.6 1324.46 Q1303.26 1325.46 1305.01 1326.02 Q1306.75 1326.54 1309.49 1326.54 L1309.49 1328.87 Q1301.52 1328.65 1300.6 1328.65 Q1299.71 1328.65 1291.74 1328.87 Z" fill="#000000" fill-rule="nonzero" fill-opacity="1" /><path clip-path="url(#clip710)" d="M1366 1327.65 Q1364.92 1326.43 1364.92 1324.83 Q1364.92 1323.24 1365.96 1322.05 Q1367.04 1320.83 1368.96 1320.83 Q1371.22 1320.83 1372.52 1323.02 Q1373.82 1325.17 1373.82 1328.8 Q1373.82 1332.72 1372.22 1336.36 Q1370.63 1340.02 1369.07 1341.77 Q1367.52 1343.51 1366.89 1343.51 Q1366.15 1343.51 1366.15 1342.69 Q1366.15 1342.4 1366.67 1341.84 Q1372.11 1335.99 1372.15 1328.8 Q1372.15 1327.65 1372 1327.65 L1371.82 1327.8 Q1370.52 1328.87 1368.96 1328.87 Q1367.07 1328.87 1366 1327.65 Z" fill="#000000" fill-rule="nonzero" fill-opacity="1" /><path clip-path="url(#clip710)" d="M1442.38 1310 Q1442.38 1313.55 1440.55 1317.1 Q1438.73 1320.65 1435.74 1323.39 Q1432.75 1326.1 1428.68 1327.85 Q1424.6 1329.61 1420.35 1329.75 L1417.61 1340.46 Q1417.08 1343.06 1416.8 1343.35 Q1416.52 1343.63 1416.1 1343.63 Q1415.22 1343.63 1415.22 1342.82 Q1415.22 1342.57 1416.8 1336.49 L1418.49 1329.75 Q1412.09 1329.4 1408.37 1325.71 Q1404.65 1322.02 1404.65 1316.71 Q1404.65 1313.13 1406.47 1309.58 Q1408.34 1306 1411.32 1303.29 Q1414.34 1300.59 1418.42 1298.87 Q1422.49 1297.15 1426.68 1297 L1430.86 1280.39 Q1431.07 1279.44 1431.24 1279.19 Q1431.42 1278.95 1431.95 1278.95 Q1432.33 1278.95 1432.54 1279.12 Q1432.75 1279.3 1432.75 1279.47 L1432.79 1279.65 L1432.58 1280.67 L1428.54 1297 Q1432.12 1297.25 1434.9 1298.52 Q1437.67 1299.78 1439.25 1301.68 Q1440.83 1303.54 1441.61 1305.65 Q1442.38 1307.76 1442.38 1310 M1426.25 1298.59 Q1422.39 1298.94 1419.12 1300.83 Q1415.85 1302.73 1413.75 1305.54 Q1411.64 1308.32 1410.48 1311.66 Q1409.32 1314.96 1409.32 1318.23 Q1409.32 1320.79 1410.16 1322.76 Q1411.04 1324.73 1412.48 1325.85 Q1413.92 1326.94 1415.5 1327.54 Q1417.12 1328.1 1418.84 1328.17 L1426.25 1298.59 M1437.67 1308.49 Q1437.67 1303.93 1435.04 1301.36 Q1432.4 1298.8 1428.12 1298.59 L1420.7 1328.17 Q1423.83 1327.92 1426.57 1326.62 Q1429.35 1325.29 1431.35 1323.32 Q1433.35 1321.32 1434.79 1318.86 Q1436.23 1316.36 1436.93 1313.73 Q1437.67 1311.06 1437.67 1308.49 Z" fill="#000000" fill-rule="nonzero" fill-opacity="1" /><path clip-path="url(#clip710)" d="M1476.67 1317.35 Q1476.74 1316.42 1478.19 1316.42 L1524.69 1316.42 Q1526.88 1316.42 1526.92 1317.27 Q1526.92 1318.2 1524.84 1318.16 L1478.71 1318.16 Q1476.67 1318.2 1476.67 1317.35 M1476.67 1302.52 Q1476.67 1301.6 1478.26 1301.64 L1524.62 1301.64 Q1526.88 1301.64 1526.92 1302.52 Q1526.92 1303.38 1524.99 1303.38 L1478.19 1303.38 Q1476.67 1303.38 1476.67 1302.52 Z" fill="#000000" fill-rule="nonzero" fill-opacity="1" /><path clip-path="url(#clip710)" d="M1559.56 1304.6 Q1559.56 1293.45 1562.38 1287.37 Q1566.31 1278.33 1575.57 1278.33 Q1577.53 1278.33 1579.57 1278.88 Q1581.65 1279.4 1584.24 1281.44 Q1586.87 1283.48 1588.46 1286.81 Q1591.5 1293.26 1591.5 1304.6 Q1591.5 1315.68 1588.69 1321.72 Q1584.57 1330.54 1575.49 1330.54 Q1572.09 1330.54 1568.6 1328.8 Q1565.16 1327.06 1562.97 1322.87 Q1559.56 1316.61 1559.56 1304.6 M1565.86 1303.67 Q1565.86 1315.12 1566.68 1319.68 Q1567.6 1324.61 1570.12 1326.76 Q1572.68 1328.87 1575.49 1328.87 Q1578.53 1328.87 1581.05 1326.61 Q1583.61 1324.31 1584.39 1319.38 Q1585.24 1314.53 1585.2 1303.67 Q1585.2 1293.11 1584.46 1288.89 Q1583.46 1283.96 1580.79 1282 Q1578.16 1280 1575.49 1280 Q1574.49 1280 1573.42 1280.29 Q1572.38 1280.59 1570.86 1281.44 Q1569.34 1282.29 1568.16 1284.4 Q1567.01 1286.52 1566.45 1289.7 Q1565.86 1293.82 1565.86 1303.67 Z" fill="#000000" fill-rule="nonzero" fill-opacity="1" /><path clip-path="url(#clip710)" d="M1602.14 1327.65 Q1600.99 1326.43 1600.99 1324.83 Q1600.99 1323.24 1602.14 1322.09 Q1603.29 1320.9 1605.03 1320.9 Q1606.7 1320.9 1607.81 1322.02 Q1608.96 1323.09 1608.96 1324.87 Q1608.96 1326.61 1607.73 1327.76 Q1606.55 1328.87 1605.03 1328.87 Q1603.29 1328.87 1602.14 1327.65 Z" fill="#000000" fill-rule="nonzero" fill-opacity="1" /><path clip-path="url(#clip710)" d="M1622.37 1285.55 L1622.37 1283.18 Q1631.49 1283.18 1636.19 1278.33 Q1637.49 1278.33 1637.71 1278.62 Q1637.93 1278.92 1637.93 1280.29 L1637.93 1322.87 Q1637.93 1325.13 1639.04 1325.83 Q1640.16 1326.54 1645.01 1326.54 L1647.42 1326.54 L1647.42 1328.87 Q1644.75 1328.65 1635.12 1328.65 Q1625.48 1328.65 1622.85 1328.87 L1622.85 1326.54 L1625.26 1326.54 Q1630.04 1326.54 1631.19 1325.87 Q1632.34 1325.17 1632.34 1322.87 L1632.34 1283.55 Q1628.37 1285.55 1622.37 1285.55 Z" fill="#000000" fill-rule="nonzero" fill-opacity="1" /><polyline clip-path="url(#clip712)" style="stroke:#000000; stroke-linecap:round; stroke-linejoin:round; stroke-width:2; stroke-opacity:0.1; fill:none" points="249.933,1187.69 1652.76,1187.69 "/>
<polyline clip-path="url(#clip712)" style="stroke:#000000; stroke-linecap:round; stroke-linejoin:round; stroke-width:2; stroke-opacity:0.1; fill:none" points="249.933,831.302 1652.76,831.302 "/>
<polyline clip-path="url(#clip712)" style="stroke:#000000; stroke-linecap:round; stroke-linejoin:round; stroke-width:2; stroke-opacity:0.1; fill:none" points="249.933,474.912 1652.76,474.912 "/>
<polyline clip-path="url(#clip712)" style="stroke:#000000; stroke-linecap:round; stroke-linejoin:round; stroke-width:2; stroke-opacity:0.1; fill:none" points="249.933,118.522 1652.76,118.522 "/>
<polyline clip-path="url(#clip710)" style="stroke:#000000; stroke-linecap:round; stroke-linejoin:round; stroke-width:4; stroke-opacity:1; fill:none" points="249.933,1258.97 249.933,47.2441 "/>
<polyline clip-path="url(#clip710)" style="stroke:#000000; stroke-linecap:round; stroke-linejoin:round; stroke-width:4; stroke-opacity:1; fill:none" points="1652.76,1258.97 1652.76,47.2441 "/>
<polyline clip-path="url(#clip710)" style="stroke:#000000; stroke-linecap:round; stroke-linejoin:round; stroke-width:4; stroke-opacity:1; fill:none" points="249.933,1187.69 268.83,1187.69 "/>
<polyline clip-path="url(#clip710)" style="stroke:#000000; stroke-linecap:round; stroke-linejoin:round; stroke-width:4; stroke-opacity:1; fill:none" points="249.933,831.302 268.83,831.302 "/>
<polyline clip-path="url(#clip710)" style="stroke:#000000; stroke-linecap:round; stroke-linejoin:round; stroke-width:4; stroke-opacity:1; fill:none" points="249.933,474.912 268.83,474.912 "/>
<polyline clip-path="url(#clip710)" style="stroke:#000000; stroke-linecap:round; stroke-linejoin:round; stroke-width:4; stroke-opacity:1; fill:none" points="249.933,118.522 268.83,118.522 "/>
<path clip-path="url(#clip710)" d="M137.242 1170.29 L137.242 1167.92 Q146.358 1167.92 151.064 1163.07 Q152.361 1163.07 152.583 1163.37 Q152.805 1163.66 152.805 1165.03 L152.805 1207.61 Q152.805 1209.87 153.917 1210.57 Q155.029 1211.28 159.883 1211.28 L162.291 1211.28 L162.291 1213.61 Q159.623 1213.39 149.989 1213.39 Q140.355 1213.39 137.724 1213.61 L137.724 1211.28 L140.133 1211.28 Q144.913 1211.28 146.061 1210.61 Q147.21 1209.91 147.21 1207.61 L147.21 1168.29 Q143.245 1170.29 137.242 1170.29 Z" fill="#000000" fill-rule="nonzero" fill-opacity="1" /><path clip-path="url(#clip710)" d="M176.039 1212.39 Q174.89 1211.17 174.89 1209.57 Q174.89 1207.98 176.039 1206.83 Q177.188 1205.65 178.929 1205.65 Q180.597 1205.65 181.708 1206.76 Q182.857 1207.83 182.857 1209.61 Q182.857 1211.35 181.634 1212.5 Q180.448 1213.61 178.929 1213.61 Q177.188 1213.61 176.039 1212.39 Z" fill="#000000" fill-rule="nonzero" fill-opacity="1" /><path clip-path="url(#clip710)" d="M192.491 1189.34 Q192.491 1178.19 195.307 1172.11 Q199.235 1163.07 208.499 1163.07 Q210.463 1163.07 212.501 1163.62 Q214.576 1164.14 217.17 1166.18 Q219.801 1168.22 221.394 1171.55 Q224.433 1178 224.433 1189.34 Q224.433 1200.42 221.617 1206.46 Q217.503 1215.28 208.425 1215.28 Q205.016 1215.28 201.533 1213.54 Q198.087 1211.8 195.9 1207.61 Q192.491 1201.35 192.491 1189.34 M198.791 1188.41 Q198.791 1199.86 199.606 1204.42 Q200.532 1209.35 203.052 1211.5 Q205.609 1213.61 208.425 1213.61 Q211.463 1213.61 213.983 1211.35 Q216.54 1209.05 217.318 1204.13 Q218.17 1199.27 218.133 1188.41 Q218.133 1177.85 217.392 1173.63 Q216.392 1168.7 213.724 1166.74 Q211.093 1164.74 208.425 1164.74 Q207.424 1164.74 206.35 1165.03 Q205.312 1165.33 203.793 1166.18 Q202.274 1167.03 201.088 1169.15 Q199.939 1171.26 199.384 1174.45 Q198.791 1178.56 198.791 1188.41 Z" fill="#000000" fill-rule="nonzero" fill-opacity="1" /><path clip-path="url(#clip710)" d="M138.057 813.905 L138.057 811.533 Q147.173 811.533 151.879 806.679 Q153.176 806.679 153.398 806.976 Q153.621 807.272 153.621 808.643 L153.621 851.219 Q153.621 853.48 154.732 854.184 Q155.844 854.888 160.698 854.888 L163.107 854.888 L163.107 857.222 Q160.439 857 150.804 857 Q141.17 857 138.539 857.222 L138.539 854.888 L140.948 854.888 Q145.728 854.888 146.877 854.221 Q148.025 853.517 148.025 851.219 L148.025 811.904 Q144.06 813.905 138.057 813.905 Z" fill="#000000" fill-rule="nonzero" fill-opacity="1" /><path clip-path="url(#clip710)" d="M176.854 855.999 Q175.705 854.777 175.705 853.183 Q175.705 851.59 176.854 850.441 Q178.003 849.255 179.744 849.255 Q181.412 849.255 182.523 850.367 Q183.672 851.442 183.672 853.22 Q183.672 854.962 182.449 856.111 Q181.264 857.222 179.744 857.222 Q178.003 857.222 176.854 855.999 Z" fill="#000000" fill-rule="nonzero" fill-opacity="1" /><path clip-path="url(#clip710)" d="M194.122 844.994 Q194.122 842.734 195.345 841.881 Q196.567 840.992 197.864 840.992 Q199.606 840.992 200.606 842.104 Q201.644 843.178 201.644 844.698 Q201.644 846.217 200.606 847.328 Q199.606 848.403 197.864 848.403 Q197.012 848.403 196.567 848.255 Q197.568 851.738 200.606 854.258 Q203.682 856.778 207.721 856.778 Q212.797 856.778 215.836 851.849 Q217.652 848.662 217.652 841.437 Q217.652 835.063 216.281 831.877 Q214.168 827.022 209.833 827.022 Q203.682 827.022 200.05 832.321 Q199.606 832.988 199.087 833.025 Q198.346 833.025 198.161 832.618 Q198.012 832.173 198.012 831.024 L198.012 808.569 Q198.012 806.753 198.754 806.753 Q199.05 806.753 199.68 806.976 Q204.46 809.088 209.759 809.125 Q215.206 809.125 220.097 806.901 Q220.468 806.679 220.69 806.679 Q221.431 806.679 221.468 807.531 Q221.468 807.828 220.838 808.717 Q220.245 809.569 218.949 810.718 Q217.652 811.83 215.984 812.904 Q214.317 813.979 211.871 814.72 Q209.462 815.424 206.795 815.424 Q203.608 815.424 200.347 814.424 L200.347 829.209 Q204.275 825.355 209.981 825.355 Q216.058 825.355 220.245 830.246 Q224.433 835.137 224.433 841.956 Q224.433 849.107 219.467 853.998 Q214.539 858.89 207.869 858.89 Q201.792 858.89 197.938 854.554 Q194.122 850.219 194.122 844.994 Z" fill="#000000" fill-rule="nonzero" fill-opacity="1" /><path clip-path="url(#clip710)" d="M134.278 500.832 Q134.278 499.461 134.389 499.053 Q134.537 498.646 135.13 498.016 L149.693 481.786 Q157.66 472.819 157.66 465 Q157.66 459.923 154.992 456.292 Q152.361 452.661 147.506 452.661 Q144.172 452.661 141.355 454.699 Q138.539 456.737 137.242 460.368 Q137.465 460.294 138.243 460.294 Q140.133 460.294 141.17 461.48 Q142.245 462.665 142.245 464.259 Q142.245 466.297 140.911 467.297 Q139.614 468.261 138.317 468.261 Q137.798 468.261 137.094 468.15 Q136.427 468.038 135.352 467.001 Q134.278 465.926 134.278 464.036 Q134.278 458.738 138.28 454.513 Q142.319 450.289 148.47 450.289 Q155.436 450.289 159.994 454.439 Q164.589 458.552 164.589 465 Q164.589 467.26 163.885 469.335 Q163.218 471.373 162.291 472.967 Q161.402 474.56 158.956 477.117 Q156.511 479.674 154.547 481.489 Q152.583 483.305 148.173 487.159 L140.133 494.977 L153.806 494.977 Q160.476 494.977 160.994 494.385 Q161.736 493.31 162.662 487.641 L164.589 487.641 L162.44 500.832 L134.278 500.832 Z" fill="#000000" fill-rule="nonzero" fill-opacity="1" /><path clip-path="url(#clip710)" d="M176.039 499.609 Q174.89 498.387 174.89 496.793 Q174.89 495.2 176.039 494.051 Q177.188 492.865 178.929 492.865 Q180.597 492.865 181.708 493.977 Q182.857 495.052 182.857 496.83 Q182.857 498.572 181.634 499.72 Q180.448 500.832 178.929 500.832 Q177.188 500.832 176.039 499.609 Z" fill="#000000" fill-rule="nonzero" fill-opacity="1" /><path clip-path="url(#clip710)" d="M192.491 476.561 Q192.491 465.408 195.307 459.33 Q199.235 450.289 208.499 450.289 Q210.463 450.289 212.501 450.845 Q214.576 451.364 217.17 453.402 Q219.801 455.44 221.394 458.775 Q224.433 465.222 224.433 476.561 Q224.433 487.641 221.617 493.681 Q217.503 502.5 208.425 502.5 Q205.016 502.5 201.533 500.758 Q198.087 499.016 195.9 494.829 Q192.491 488.567 192.491 476.561 M198.791 475.635 Q198.791 487.085 199.606 491.642 Q200.532 496.571 203.052 498.72 Q205.609 500.832 208.425 500.832 Q211.463 500.832 213.983 498.572 Q216.54 496.274 217.318 491.346 Q218.17 486.492 218.133 475.635 Q218.133 465.074 217.392 460.85 Q216.392 455.921 213.724 453.958 Q211.093 451.957 208.425 451.957 Q207.424 451.957 206.35 452.253 Q205.312 452.549 203.793 453.402 Q202.274 454.254 201.088 456.366 Q199.939 458.478 199.384 461.665 Q198.791 465.778 198.791 475.635 Z" fill="#000000" fill-rule="nonzero" fill-opacity="1" /><path clip-path="url(#clip710)" d="M135.093 144.442 Q135.093 143.071 135.204 142.663 Q135.352 142.256 135.945 141.626 L150.508 125.396 Q158.475 116.428 158.475 108.61 Q158.475 103.533 155.807 99.9019 Q153.176 96.2706 148.322 96.2706 Q144.987 96.2706 142.171 98.3086 Q139.354 100.347 138.057 103.978 Q138.28 103.904 139.058 103.904 Q140.948 103.904 141.985 105.09 Q143.06 106.275 143.06 107.869 Q143.06 109.907 141.726 110.907 Q140.429 111.871 139.132 111.871 Q138.613 111.871 137.909 111.76 Q137.242 111.648 136.168 110.611 Q135.093 109.536 135.093 107.646 Q135.093 102.348 139.095 98.1233 Q143.134 93.899 149.285 93.899 Q156.251 93.899 160.809 98.0492 Q165.404 102.162 165.404 108.61 Q165.404 110.87 164.7 112.945 Q164.033 114.983 163.107 116.577 Q162.217 118.17 159.772 120.727 Q157.326 123.284 155.362 125.099 Q153.398 126.915 148.989 130.769 L140.948 138.587 L154.621 138.587 Q161.291 138.587 161.81 137.995 Q162.551 136.92 163.477 131.251 L165.404 131.251 L163.255 144.442 L135.093 144.442 Z" fill="#000000" fill-rule="nonzero" fill-opacity="1" /><path clip-path="url(#clip710)" d="M176.854 143.219 Q175.705 141.996 175.705 140.403 Q175.705 138.81 176.854 137.661 Q178.003 136.475 179.744 136.475 Q181.412 136.475 182.523 137.587 Q183.672 138.662 183.672 140.44 Q183.672 142.182 182.449 143.33 Q181.264 144.442 179.744 144.442 Q178.003 144.442 176.854 143.219 Z" fill="#000000" fill-rule="nonzero" fill-opacity="1" /><path clip-path="url(#clip710)" d="M194.122 132.214 Q194.122 129.954 195.345 129.101 Q196.567 128.212 197.864 128.212 Q199.606 128.212 200.606 129.324 Q201.644 130.398 201.644 131.917 Q201.644 133.437 200.606 134.548 Q199.606 135.623 197.864 135.623 Q197.012 135.623 196.567 135.475 Q197.568 138.958 200.606 141.478 Q203.682 143.997 207.721 143.997 Q212.797 143.997 215.836 139.069 Q217.652 135.882 217.652 128.657 Q217.652 122.283 216.281 119.096 Q214.168 114.242 209.833 114.242 Q203.682 114.242 200.05 119.541 Q199.606 120.208 199.087 120.245 Q198.346 120.245 198.161 119.838 Q198.012 119.393 198.012 118.244 L198.012 95.7888 Q198.012 93.9731 198.754 93.9731 Q199.05 93.9731 199.68 94.1955 Q204.46 96.3076 209.759 96.3447 Q215.206 96.3447 220.097 94.1214 Q220.468 93.899 220.69 93.899 Q221.431 93.899 221.468 94.7513 Q221.468 95.0477 220.838 95.9371 Q220.245 96.7893 218.949 97.938 Q217.652 99.0497 215.984 100.124 Q214.317 101.199 211.871 101.94 Q209.462 102.644 206.795 102.644 Q203.608 102.644 200.347 101.644 L200.347 116.428 Q204.275 112.575 209.981 112.575 Q216.058 112.575 220.245 117.466 Q224.433 122.357 224.433 129.175 Q224.433 136.327 219.467 141.218 Q214.539 146.11 207.869 146.11 Q201.792 146.11 197.938 141.774 Q194.122 137.439 194.122 132.214 Z" fill="#000000" fill-rule="nonzero" fill-opacity="1" /><path clip-path="url(#clip710)" d="M93.2258 1248.53 L90.8913 1248.53 Q90.8913 1245.78 90.3726 1244.04 Q89.8167 1242.3 88.8163 1241.67 Q87.7787 1241.04 87.1117 1240.89 Q86.4077 1240.71 85.259 1240.71 L45.6471 1240.71 Q44.5725 1240.71 44.3132 1241 Q44.0538 1241.26 43.9055 1242.56 Q43.7573 1244.82 43.7573 1246.34 L43.7573 1248.53 L41.3858 1248.53 L41.3858 1235.63 Q41.3858 1234.56 41.534 1234.26 Q41.6822 1233.96 42.3863 1233.44 L81.7758 1206.65 L49.3526 1206.65 Q48.2039 1206.65 47.5369 1206.8 Q46.87 1206.95 45.8324 1207.62 Q44.7949 1208.25 44.2761 1209.99 Q43.7573 1211.73 43.7573 1214.47 L41.3858 1214.47 Q41.6081 1206.51 41.6081 1205.62 Q41.6081 1204.69 41.3858 1196.72 L43.7573 1196.72 Q43.7573 1199.47 44.2761 1201.21 Q44.7949 1202.95 45.8324 1203.58 Q46.87 1204.21 47.574 1204.39 Q48.241 1204.54 49.3526 1204.54 L91.2619 1204.54 Q92.4847 1204.54 92.8553 1204.69 Q93.2258 1204.84 93.2258 1205.58 Q93.2258 1206.1 92.2253 1206.88 L46.7217 1237.85 Q46.2771 1238.15 45.7954 1238.6 L85.259 1238.6 Q86.4077 1238.6 87.1117 1238.45 Q87.7787 1238.3 88.8163 1237.67 Q89.8167 1237 90.3726 1235.26 Q90.8913 1233.52 90.8913 1230.78 L93.2258 1230.78 Q93.0035 1238.74 93.0035 1239.67 Q93.0035 1240.56 93.2258 1248.53 Z" fill="#000000" fill-rule="nonzero" fill-opacity="1" /><path clip-path="url(#clip710)" d="M62.8777 1191.68 L60.5062 1191.68 L59.691 1180.53 L84.8884 1180.53 Q86.7041 1180.53 87.7787 1180.38 Q88.8163 1180.23 90.0391 1179.64 Q91.2619 1179.01 91.8177 1177.6 Q92.3735 1176.16 92.3735 1173.86 Q92.3735 1169.75 89.0015 1167.23 Q85.6295 1164.67 80.6271 1164.67 L67.102 1164.67 Q64.2858 1164.67 63.5818 1165.67 Q62.8777 1166.67 62.8777 1170.6 L60.5062 1170.6 L59.691 1159.45 L86.63 1159.45 Q89.4462 1159.45 90.1873 1158.48 Q90.8913 1157.48 90.8913 1153.52 L93.2258 1153.52 L94.0781 1164.45 L87.2229 1164.45 Q94.041 1167.63 94.0781 1174.23 Q94.0781 1177.57 93.2258 1179.86 Q92.3735 1182.12 91.336 1183.27 Q90.2614 1184.42 88.2234 1185.05 Q86.1853 1185.64 84.9255 1185.72 Q83.6656 1185.79 81.22 1185.79 L69.8441 1185.79 Q64.6934 1185.79 63.8041 1186.53 Q62.8777 1187.27 62.8777 1191.68 Z" fill="#000000" fill-rule="nonzero" fill-opacity="1" /><path clip-path="url(#clip710)" d="M93.2258 1149.59 L90.8913 1149.59 Q90.8913 1145.55 90.4096 1144.62 Q89.8909 1143.7 87.4452 1143.7 L67.102 1143.7 Q64.2858 1143.7 63.5818 1144.7 Q62.8777 1145.66 62.8777 1149.59 L60.5062 1149.59 L59.691 1138.92 L67.6578 1138.92 Q59.691 1135.36 59.691 1127.69 Q59.691 1118.8 67.102 1117.57 Q64.2117 1116.28 61.9514 1113.57 Q59.691 1110.83 59.691 1106.57 Q59.691 1100.86 62.5072 1098.6 Q64.397 1096.93 66.5091 1096.6 Q68.6213 1096.27 74.1054 1096.27 L88.5939 1096.27 Q90.1873 1096.19 90.5578 1094.97 Q90.8913 1093.75 90.8913 1090.34 L93.2258 1090.34 Q93.0035 1098.08 93.0035 1098.82 Q93.0035 1099.42 93.2258 1107.42 L90.8913 1107.42 Q90.8913 1103.38 90.4096 1102.46 Q89.8909 1101.49 87.4452 1101.49 L69.77 1101.49 Q65.9162 1101.49 63.6559 1102.68 Q61.3585 1103.86 61.3585 1107.12 Q61.3585 1111.05 64.6564 1114.2 Q67.9543 1117.35 73.5125 1117.35 L87.4452 1117.35 Q89.8909 1117.35 90.4096 1116.42 Q90.8913 1115.46 90.8913 1111.42 L93.2258 1111.42 Q93.0035 1119.17 93.0035 1119.95 Q93.0035 1120.54 93.2258 1128.5 L90.8913 1128.5 Q90.8913 1124.47 90.4096 1123.54 Q89.8909 1122.58 87.4452 1122.58 L69.77 1122.58 Q65.9162 1122.58 63.6559 1123.76 Q61.3585 1124.95 61.3585 1128.21 Q61.3585 1132.14 64.6564 1135.29 Q67.9543 1138.44 73.5125 1138.44 L87.4452 1138.44 Q89.8909 1138.44 90.4096 1137.51 Q90.8913 1136.55 90.8913 1132.54 L93.2258 1132.54 Q93.0035 1140.29 93.0035 1141.03 Q93.0035 1141.62 93.2258 1149.59 Z" fill="#000000" fill-rule="nonzero" fill-opacity="1" /><path clip-path="url(#clip710)" d="M43.7573 1088.86 L41.3858 1088.86 L40.5706 1077.92 L64.6193 1077.92 Q59.691 1073.52 59.691 1067.51 Q59.691 1060.99 64.6934 1056.21 Q69.6959 1051.43 76.8475 1051.43 Q84.0732 1051.43 89.0756 1056.43 Q94.0781 1061.44 94.0781 1068.36 Q94.0781 1074.66 88.5198 1078.3 Q93.1517 1080.96 93.2258 1081.04 L93.2258 1082.93 L47.9816 1082.93 Q45.1654 1082.93 44.4614 1083.93 Q43.7573 1084.93 43.7573 1088.86 M84.592 1077.7 Q86.1853 1077.7 87.7787 1076.63 Q92.3735 1073.63 92.3735 1068.74 Q92.3735 1068.7 92.3735 1068.66 Q92.3735 1063.36 87.5193 1060.06 Q83.8879 1057.73 76.7734 1057.73 Q69.7329 1057.73 66.2127 1059.92 Q61.3585 1062.95 61.3585 1067.88 Q61.3585 1073.44 66.2127 1076.85 Q67.4355 1077.7 68.9548 1077.7 L84.592 1077.7 Z" fill="#000000" fill-rule="nonzero" fill-opacity="1" /><path clip-path="url(#clip710)" d="M76.514 1044.65 Q69.3624 1044.65 64.2858 1040.05 Q59.2093 1035.46 59.2093 1028.86 Q59.2093 1022.19 63.5447 1018.75 Q67.8802 1015.26 74.1054 1015.26 Q75.2541 1015.26 75.4764 1015.56 Q75.6988 1015.86 75.6988 1017.15 L75.6988 1038.35 Q83.4433 1038.35 87.0747 1036.05 Q92.1512 1032.87 92.1512 1027.49 Q92.1512 1026.75 92.003 1025.86 Q91.8548 1024.97 91.2248 1023.16 Q90.5578 1021.34 88.8163 1019.75 Q87.0747 1018.15 84.3326 1017.23 Q83.258 1017.01 83.2951 1016.27 Q83.2951 1015.26 84.1844 1015.26 Q84.8514 1015.26 86.3706 1016.01 Q87.8528 1016.71 89.6315 1018.08 Q91.4101 1019.45 92.7441 1022.12 Q94.0781 1024.75 94.0781 1027.94 Q94.0781 1034.61 89.0386 1039.65 Q83.962 1044.65 76.514 1044.65 M74.1054 1038.28 L74.1054 1020.27 Q72.512 1020.27 70.7334 1020.56 Q68.9548 1020.82 66.5091 1021.64 Q64.0264 1022.42 62.4701 1024.27 Q60.9138 1026.12 60.9138 1028.86 Q60.9138 1030.09 61.4326 1031.42 Q61.9514 1032.72 63.2112 1034.31 Q64.4711 1035.9 67.3243 1037.02 Q70.1776 1038.13 74.1054 1038.28 Z" fill="#000000" fill-rule="nonzero" fill-opacity="1" /><path clip-path="url(#clip710)" d="M93.2258 1010.97 L90.8913 1010.97 Q90.8913 1006.93 90.4096 1006 Q89.8909 1005.04 87.4452 1005.04 L67.102 1005.04 Q64.2858 1005.04 63.5818 1006.04 Q62.8777 1007 62.8777 1010.97 L60.5062 1010.97 L59.691 1000.41 L68.0284 1000.41 Q64.7675 999.331 62.2478 997.071 Q59.691 994.773 59.691 991.068 Q59.691 988.622 61.062 987.066 Q62.4331 985.472 64.3229 985.472 Q65.9904 985.472 66.8426 986.51 Q67.6578 987.51 67.6578 988.733 Q67.6578 990.104 66.8056 991.068 Q65.9162 991.994 64.397 991.994 Q63.4706 991.994 62.7666 991.586 Q62.0255 991.142 61.7661 990.808 Q61.5067 990.475 61.4326 990.252 Q61.3585 990.401 61.3585 991.068 Q61.3585 995.255 65.5457 997.663 Q69.6959 1000.03 75.6247 1000.03 L87.297 1000.03 Q89.4832 1000.03 90.1873 999.146 Q90.8913 998.219 90.8913 994.254 L90.8913 992.661 L93.2258 992.661 Q93.0035 995.7 93.0035 1002.3 Q93.0035 1003.22 93.0405 1004.67 Q93.0776 1006.11 93.1517 1008 Q93.2258 1009.89 93.2258 1010.97 Z" fill="#000000" fill-rule="nonzero" fill-opacity="1" /><path clip-path="url(#clip710)" d="M89.1498 951.085 Q84.1844 956.088 76.9957 956.088 Q69.77 956.088 64.5081 951.196 Q59.2093 946.268 59.2093 939.228 Q59.2093 932.335 64.4711 927.407 Q69.6959 922.442 76.9957 922.442 Q84.1473 922.442 89.1127 927.444 Q94.0781 932.41 94.0781 939.302 Q94.0781 946.046 89.1498 951.085 M76.3658 949.788 Q83.7397 949.788 87.0747 947.861 Q92.1512 944.897 92.1512 939.228 Q92.1512 936.411 90.632 934.077 Q89.1127 931.705 86.5559 930.409 Q83.2209 928.741 76.3658 928.741 Q69.0659 928.741 65.8421 930.742 Q60.9138 933.706 60.9138 939.302 Q60.9138 941.747 62.2107 944.156 Q63.4706 946.527 65.9904 947.973 Q69.3253 949.788 76.3658 949.788 Z" fill="#000000" fill-rule="nonzero" fill-opacity="1" /><path clip-path="url(#clip710)" d="M62.8777 917.736 L60.5062 917.736 L60.5062 911.77 L51.7983 911.77 Q46.1659 911.77 42.9421 908.138 Q39.7183 904.47 39.7183 899.986 Q39.7183 897.022 41.3117 895.095 Q42.9051 893.168 45.0543 893.168 Q46.4994 893.168 47.4628 894.058 Q48.3892 894.91 48.3892 896.503 Q48.3892 898.022 47.4258 898.912 Q46.4623 899.764 45.1284 899.764 Q42.6827 899.764 41.9416 897.504 Q41.4229 898.652 41.3858 899.986 Q41.3858 902.728 44.202 904.878 Q47.0182 906.99 51.7242 906.99 L60.5062 906.99 L60.5062 898.097 L62.8777 898.097 L62.8777 906.73 L87.297 906.73 Q89.4832 906.73 90.1873 905.841 Q90.8913 904.915 90.8913 900.987 L90.8913 899.393 L93.2258 899.393 Q93.0035 902.432 93.0035 909.028 Q93.0035 909.954 93.0405 911.399 Q93.0776 912.807 93.1517 914.734 Q93.2258 916.624 93.2258 917.662 L90.8913 917.662 Q90.8913 913.623 90.4096 912.696 Q89.8909 911.77 87.4452 911.77 L62.8777 911.77 L62.8777 917.736 Z" fill="#000000" fill-rule="nonzero" fill-opacity="1" /><path clip-path="url(#clip710)" d="M99.2287 869.787 Q96.7831 869.787 94.671 867.934 Q92.5588 866.044 91.6324 862.783 Q89.5203 866.118 84.8884 866.118 Q81.3311 866.118 78.5891 863.784 Q75.6247 867.341 70.7705 867.341 Q66.2868 867.341 62.9889 863.784 Q59.691 860.226 59.691 855.039 Q59.691 850.481 62.4331 846.998 Q58.8758 843.366 58.8387 838.957 Q58.8387 836.993 60.0615 836.066 Q61.2844 835.103 62.5813 835.103 Q63.73 835.103 64.2858 835.844 Q64.8416 836.548 64.8416 837.289 Q64.8416 838.216 64.2488 838.883 Q63.6188 839.513 62.6554 839.513 Q61.062 839.513 60.5803 838.29 Q60.5062 838.512 60.5062 839.031 Q60.5062 842.736 63.4706 845.886 Q66.3609 842.773 70.8446 842.773 Q75.3282 842.773 78.6261 846.331 Q81.924 849.888 81.924 855.039 Q81.924 859.3 79.5525 862.561 Q81.0718 863.858 83.1468 863.858 Q85.0366 863.858 86.5188 862.709 Q88.001 861.56 88.2234 859.819 Q88.2975 859.3 88.2975 854.149 Q88.2975 851.111 88.3716 849.443 Q88.4457 847.776 88.9645 845.404 Q89.4462 842.996 90.4096 841.106 Q93.1517 836.178 99.0805 836.141 Q103.416 836.141 106.121 841.143 Q108.863 846.108 108.863 853.001 Q108.863 859.967 106.084 864.895 Q103.342 869.787 99.2287 869.787 M99.2287 865.822 Q102.341 865.822 104.713 862.153 Q107.121 858.485 107.121 852.926 Q107.121 847.479 104.75 843.811 Q102.415 840.105 99.2287 840.105 Q96.9684 840.105 95.5232 841.402 Q94.0781 842.699 93.4852 845.367 Q92.9294 847.998 92.8182 849.851 Q92.707 851.704 92.707 855.113 L92.707 859.596 Q92.8553 862.19 94.7451 864.006 Q96.6349 865.822 99.2287 865.822 M70.8446 861.671 Q80.1824 861.671 80.1824 855.039 Q80.1824 851.704 77.1439 849.666 Q75.1059 848.443 70.7705 848.443 Q61.4326 848.443 61.4326 855.039 Q61.4326 858.374 64.4711 860.449 Q66.5091 861.671 70.8446 861.671 Z" fill="#000000" fill-rule="nonzero" fill-opacity="1" /><path clip-path="url(#clip710)" d="M76.514 831.842 Q69.3624 831.842 64.2858 827.247 Q59.2093 822.652 59.2093 816.057 Q59.2093 809.387 63.5447 805.941 Q67.8802 802.457 74.1054 802.457 Q75.2541 802.457 75.4764 802.754 Q75.6988 803.05 75.6988 804.347 L75.6988 825.543 Q83.4433 825.543 87.0747 823.245 Q92.1512 820.059 92.1512 814.686 Q92.1512 813.945 92.003 813.055 Q91.8548 812.166 91.2248 810.35 Q90.5578 808.535 88.8163 806.941 Q87.0747 805.348 84.3326 804.421 Q83.258 804.199 83.2951 803.458 Q83.2951 802.457 84.1844 802.457 Q84.8514 802.457 86.3706 803.199 Q87.8528 803.903 89.6315 805.274 Q91.4101 806.645 92.7441 809.313 Q94.0781 811.944 94.0781 815.13 Q94.0781 821.8 89.0386 826.84 Q83.962 831.842 76.514 831.842 M74.1054 825.469 L74.1054 807.46 Q72.512 807.46 70.7334 807.756 Q68.9548 808.016 66.5091 808.831 Q64.0264 809.609 62.4701 811.462 Q60.9138 813.315 60.9138 816.057 Q60.9138 817.28 61.4326 818.613 Q61.9514 819.91 63.2112 821.504 Q64.4711 823.097 67.3243 824.209 Q70.1776 825.32 74.1054 825.469 Z" fill="#000000" fill-rule="nonzero" fill-opacity="1" /><path clip-path="url(#clip710)" d="M93.2258 797.826 L90.8913 797.826 Q90.8913 793.787 90.4096 792.86 Q89.8909 791.934 87.4452 791.934 L67.102 791.934 Q64.2858 791.934 63.5818 792.934 Q62.8777 793.898 62.8777 797.826 L60.5062 797.826 L59.691 787.154 L67.6578 787.154 Q59.691 783.596 59.691 775.926 Q59.691 770.22 62.5072 767.959 Q64.397 766.292 66.5091 765.958 Q68.6213 765.588 74.1054 765.588 L88.5939 765.588 Q90.1873 765.514 90.5578 764.291 Q90.8913 763.068 90.8913 759.659 L93.2258 759.659 Q93.0035 767.403 93.0035 768.182 Q93.0035 768.774 93.2258 776.741 L90.8913 776.741 Q90.8913 772.702 90.4096 771.776 Q89.8909 770.812 87.4452 770.812 L69.77 770.812 Q65.9162 770.812 63.6559 771.998 Q61.3585 773.184 61.3585 776.445 Q61.3585 780.373 64.6564 783.522 Q67.9543 786.672 73.5125 786.672 L87.4452 786.672 Q89.8909 786.672 90.4096 785.746 Q90.8913 784.782 90.8913 780.78 L93.2258 780.78 Q93.0035 788.525 93.0035 789.266 Q93.0035 789.859 93.2258 797.826 Z" fill="#000000" fill-rule="nonzero" fill-opacity="1" /><path clip-path="url(#clip710)" d="M76.514 756.065 Q69.3624 756.065 64.2858 751.47 Q59.2093 746.875 59.2093 740.279 Q59.2093 733.609 63.5447 730.163 Q67.8802 726.68 74.1054 726.68 Q75.2541 726.68 75.4764 726.976 Q75.6988 727.273 75.6988 728.57 L75.6988 749.765 Q83.4433 749.765 87.0747 747.468 Q92.1512 744.281 92.1512 738.908 Q92.1512 738.167 92.003 737.278 Q91.8548 736.388 91.2248 734.573 Q90.5578 732.757 88.8163 731.164 Q87.0747 729.57 84.3326 728.644 Q83.258 728.422 83.2951 727.68 Q83.2951 726.68 84.1844 726.68 Q84.8514 726.68 86.3706 727.421 Q87.8528 728.125 89.6315 729.496 Q91.4101 730.867 92.7441 733.535 Q94.0781 736.166 94.0781 739.353 Q94.0781 746.023 89.0386 751.062 Q83.962 756.065 76.514 756.065 M74.1054 749.691 L74.1054 731.682 Q72.512 731.682 70.7334 731.979 Q68.9548 732.238 66.5091 733.053 Q64.0264 733.832 62.4701 735.684 Q60.9138 737.537 60.9138 740.279 Q60.9138 741.502 61.4326 742.836 Q61.9514 744.133 63.2112 745.726 Q64.4711 747.32 67.3243 748.431 Q70.1776 749.543 74.1054 749.691 Z" fill="#000000" fill-rule="nonzero" fill-opacity="1" /><path clip-path="url(#clip710)" d="M93.2258 722.382 L90.8913 722.382 Q90.8913 718.343 90.4096 717.416 Q89.8909 716.453 87.4452 716.453 L67.102 716.453 Q64.2858 716.453 63.5818 717.453 Q62.8777 718.417 62.8777 722.382 L60.5062 722.382 L59.691 711.821 L68.0284 711.821 Q64.7675 710.746 62.2478 708.486 Q59.691 706.189 59.691 702.483 Q59.691 700.037 61.062 698.481 Q62.4331 696.888 64.3229 696.888 Q65.9904 696.888 66.8426 697.925 Q67.6578 698.926 67.6578 700.149 Q67.6578 701.52 66.8056 702.483 Q65.9162 703.409 64.397 703.409 Q63.4706 703.409 62.7666 703.002 Q62.0255 702.557 61.7661 702.224 Q61.5067 701.89 61.4326 701.668 Q61.3585 701.816 61.3585 702.483 Q61.3585 706.67 65.5457 709.079 Q69.6959 711.45 75.6247 711.45 L87.297 711.45 Q89.4832 711.45 90.1873 710.561 Q90.8913 709.635 90.8913 705.67 L90.8913 704.076 L93.2258 704.076 Q93.0035 707.115 93.0035 713.711 Q93.0035 714.637 93.0405 716.082 Q93.0776 717.527 93.1517 719.417 Q93.2258 721.307 93.2258 722.382 Z" fill="#000000" fill-rule="nonzero" fill-opacity="1" /><path clip-path="url(#clip710)" d="M86.0001 691.663 Q79.5525 691.663 76.1434 684.067 Q73.9572 679.509 73.4014 670.097 L70.6222 670.097 Q65.9162 670.097 63.4336 672.58 Q60.9138 675.025 60.9138 678.138 Q60.9138 683.696 64.397 686.364 Q64.4711 684.104 65.6198 683.288 Q66.7315 682.473 67.8802 682.473 Q69.3994 682.473 70.3999 683.437 Q71.3633 684.363 71.3633 685.956 Q71.3633 687.476 70.437 688.476 Q69.4735 689.477 67.806 689.477 Q64.1005 689.477 61.6549 686.142 Q59.2093 682.77 59.2093 677.99 Q59.2093 671.764 63.3965 667.614 Q64.6934 666.317 66.3609 665.687 Q68.0284 665.02 69.14 664.946 Q70.2146 664.872 72.3638 664.872 L87.5193 664.872 Q87.964 664.872 88.7051 664.724 Q89.4462 664.576 90.4096 663.909 Q91.336 663.205 91.336 662.056 Q91.336 659.314 86.4818 659.351 L82.2205 659.351 L82.2205 657.424 L86.4818 657.424 Q90.5208 657.424 92.1142 659.573 Q93.6705 661.685 93.6705 663.649 Q93.6705 666.169 91.8177 667.762 Q89.965 669.356 87.4452 669.578 Q90.3355 670.727 92.2253 673.358 Q94.0781 675.952 94.0781 679.509 Q94.0781 682.251 93.374 684.845 Q92.707 687.402 90.8172 689.551 Q88.8904 691.663 86.0001 691.663 M85.926 685.808 Q88.7421 685.808 90.5578 683.807 Q92.3735 681.806 92.3735 678.99 Q92.3735 675.803 89.9279 672.95 Q87.4452 670.097 82.591 670.097 L74.9947 670.097 Q75.2912 678.508 78.6632 682.177 Q81.9981 685.808 85.926 685.808 Z" fill="#000000" fill-rule="nonzero" fill-opacity="1" /><path clip-path="url(#clip710)" d="M62.8777 655.46 L61.2103 655.46 Q61.062 651.977 58.6164 649.68 Q56.1337 647.345 53.0952 646.567 Q50.0567 645.752 46.5365 645.678 L46.5365 643.788 L60.5062 643.788 L60.5062 632.931 L62.8777 632.931 L62.8777 643.788 L83.962 643.788 Q92.1512 643.788 92.1512 638.674 Q92.1512 636.488 89.9279 635.043 Q87.6675 633.598 83.6656 633.598 L79.4784 633.598 L79.4784 631.708 L83.8138 631.708 Q87.9269 631.708 91.0025 633.598 Q94.0781 635.487 94.0781 639.23 Q94.0781 640.601 93.7075 641.972 Q93.374 643.306 92.4847 645.085 Q91.5583 646.826 89.335 647.938 Q87.0747 649.013 83.8138 649.013 L62.8777 649.013 L62.8777 655.46 Z" fill="#000000" fill-rule="nonzero" fill-opacity="1" /><path clip-path="url(#clip710)" d="M93.2258 624.964 L90.8913 624.964 Q90.8913 620.925 90.4096 619.998 Q89.8909 619.072 87.4452 619.072 L67.0279 619.072 Q64.2117 619.072 63.5447 620.036 Q62.8777 620.962 62.8777 624.667 L60.5062 624.667 L59.691 614.07 L87.5193 614.07 Q89.7797 614.07 90.3355 613.254 Q90.8913 612.439 90.8913 608.734 L93.2258 608.734 Q93.0035 616.478 93.0035 616.626 Q93.0035 617.664 93.2258 624.964 M46.4623 621.777 Q44.9431 621.777 43.7203 620.628 Q42.4604 619.443 42.4604 617.775 Q42.4604 616.108 43.6091 614.922 Q44.7208 613.736 46.4994 613.736 Q48.241 613.736 49.3897 614.922 Q50.5013 616.108 50.5013 617.775 Q50.5013 619.517 49.2785 620.665 Q48.0557 621.777 46.4623 621.777 Z" fill="#000000" fill-rule="nonzero" fill-opacity="1" /><path clip-path="url(#clip710)" d="M89.1498 599.359 Q84.1844 604.361 76.9957 604.361 Q69.77 604.361 64.5081 599.47 Q59.2093 594.542 59.2093 587.501 Q59.2093 580.609 64.4711 575.681 Q69.6959 570.715 76.9957 570.715 Q84.1473 570.715 89.1127 575.718 Q94.0781 580.683 94.0781 587.575 Q94.0781 594.319 89.1498 599.359 M76.3658 598.062 Q83.7397 598.062 87.0747 596.135 Q92.1512 593.171 92.1512 587.501 Q92.1512 584.685 90.632 582.351 Q89.1127 579.979 86.5559 578.682 Q83.2209 577.015 76.3658 577.015 Q69.0659 577.015 65.8421 579.016 Q60.9138 581.98 60.9138 587.575 Q60.9138 590.021 62.2107 592.43 Q63.4706 594.801 65.9904 596.246 Q69.3253 598.062 76.3658 598.062 Z" fill="#000000" fill-rule="nonzero" fill-opacity="1" /><path clip-path="url(#clip710)" d="M93.2258 566.083 L90.8913 566.083 Q90.8913 562.044 90.4096 561.118 Q89.8909 560.192 87.4452 560.192 L67.102 560.192 Q64.2858 560.192 63.5818 561.192 Q62.8777 562.156 62.8777 566.083 L60.5062 566.083 L59.691 555.412 L67.6578 555.412 Q59.691 551.854 59.691 544.184 Q59.691 538.477 62.5072 536.217 Q64.397 534.55 66.5091 534.216 Q68.6213 533.846 74.1054 533.846 L88.5939 533.846 Q90.1873 533.771 90.5578 532.549 Q90.8913 531.326 90.8913 527.917 L93.2258 527.917 Q93.0035 535.661 93.0035 536.439 Q93.0035 537.032 93.2258 544.999 L90.8913 544.999 Q90.8913 540.96 90.4096 540.034 Q89.8909 539.07 87.4452 539.07 L69.77 539.07 Q65.9162 539.07 63.6559 540.256 Q61.3585 541.442 61.3585 544.703 Q61.3585 548.63 64.6564 551.78 Q67.9543 554.93 73.5125 554.93 L87.4452 554.93 Q89.8909 554.93 90.4096 554.003 Q90.8913 553.04 90.8913 549.038 L93.2258 549.038 Q93.0035 556.783 93.0035 557.524 Q93.0035 558.117 93.2258 566.083 Z" fill="#000000" fill-rule="nonzero" fill-opacity="1" /><path clip-path="url(#clip710)" d="M92.2253 523.915 L82.2205 523.915 Q81.3682 523.915 81.0718 523.878 Q80.7753 523.841 80.553 523.618 Q80.3307 523.396 80.3307 522.951 Q80.3307 522.433 80.553 522.247 Q80.7753 522.025 81.6276 521.877 Q86.8523 520.728 89.6315 518.282 Q92.3735 515.8 92.3735 511.316 Q92.3735 507.055 90.4837 504.906 Q88.5939 502.756 85.4813 502.756 Q79.923 502.756 78.515 510.649 Q77.5886 515.207 76.9957 517.097 Q76.3658 518.986 74.9947 520.654 Q72.3268 523.915 68.5471 523.915 Q64.7675 523.915 61.9884 521.062 Q59.2093 518.171 59.2093 511.798 Q59.2093 507.536 61.3585 504.646 Q60.6915 503.794 60.1357 503.349 Q59.2093 502.349 59.2093 501.83 Q59.2093 501.237 59.6169 501.126 Q59.9874 501.015 61.062 501.015 L68.6954 501.015 Q69.5476 501.015 69.8441 501.052 Q70.1405 501.089 70.3628 501.311 Q70.5481 501.534 70.5481 502.015 Q70.5481 502.868 69.8441 502.905 Q60.6544 503.497 60.6544 511.798 Q60.6544 516.281 62.396 518.282 Q64.1005 520.283 66.435 520.283 Q67.7319 520.283 68.7324 519.69 Q69.6959 519.061 70.2887 518.282 Q70.8446 517.467 71.4004 515.985 Q71.9192 514.503 72.1044 513.613 Q72.2897 512.687 72.6603 510.946 Q73.809 504.868 76.2917 502.312 Q79.4784 499.125 83.5174 499.125 Q88.001 499.125 91.0396 502.163 Q94.0781 505.202 94.0781 511.316 Q94.0781 516.244 90.7802 519.69 Q91.2248 520.135 91.6324 520.469 Q92.003 520.802 92.1512 520.95 Q92.2994 521.062 92.4106 521.099 Q92.4847 521.136 92.5588 521.21 Q94.0781 522.729 94.0781 523.1 Q94.0781 523.692 93.6705 523.804 Q93.2999 523.915 92.2253 523.915 Z" fill="#000000" fill-rule="nonzero" fill-opacity="1" /><path clip-path="url(#clip710)" d="M74.2536 463.811 Q61.4326 463.811 51.0942 459.031 Q46.7588 456.993 43.1274 454.14 Q39.496 451.287 37.9026 449.397 Q36.3093 447.507 36.3093 446.989 Q36.3093 446.247 37.0504 446.21 Q37.4209 446.21 38.3473 447.211 Q50.7978 459.439 74.2536 459.402 Q97.7836 459.402 109.752 447.507 Q111.049 446.21 111.457 446.21 Q112.198 446.21 112.198 446.989 Q112.198 447.507 110.679 449.323 Q109.159 451.139 105.676 453.955 Q102.193 456.771 97.9318 458.809 Q87.5934 463.811 74.2536 463.811 Z" fill="#000000" fill-rule="nonzero" fill-opacity="1" /><path clip-path="url(#clip710)" d="M93.2258 439.466 L90.8913 439.466 Q90.8913 435.427 90.4096 434.501 Q89.8909 433.575 87.4452 433.575 L67.102 433.575 Q64.2858 433.575 63.5818 434.575 Q62.8777 435.538 62.8777 439.466 L60.5062 439.466 L59.691 428.794 L67.6578 428.794 Q59.691 425.237 59.691 417.567 Q59.691 411.86 62.5072 409.6 Q64.397 407.932 66.5091 407.599 Q68.6213 407.228 74.1054 407.228 L88.5939 407.228 Q90.1873 407.154 90.5578 405.932 Q90.8913 404.709 90.8913 401.3 L93.2258 401.3 Q93.0035 409.044 93.0035 409.822 Q93.0035 410.415 93.2258 418.382 L90.8913 418.382 Q90.8913 414.343 90.4096 413.417 Q89.8909 412.453 87.4452 412.453 L69.77 412.453 Q65.9162 412.453 63.6559 413.639 Q61.3585 414.825 61.3585 418.086 Q61.3585 422.013 64.6564 425.163 Q67.9543 428.313 73.5125 428.313 L87.4452 428.313 Q89.8909 428.313 90.4096 427.386 Q90.8913 426.423 90.8913 422.421 L93.2258 422.421 Q93.0035 430.166 93.0035 430.907 Q93.0035 431.499 93.2258 439.466 Z" fill="#000000" fill-rule="nonzero" fill-opacity="1" /><path clip-path="url(#clip710)" d="M89.1498 392.703 Q84.1844 397.705 76.9957 397.705 Q69.77 397.705 64.5081 392.814 Q59.2093 387.886 59.2093 380.845 Q59.2093 373.953 64.4711 369.025 Q69.6959 364.059 76.9957 364.059 Q84.1473 364.059 89.1127 369.062 Q94.0781 374.027 94.0781 380.919 Q94.0781 387.663 89.1498 392.703 M76.3658 391.406 Q83.7397 391.406 87.0747 389.479 Q92.1512 386.515 92.1512 380.845 Q92.1512 378.029 90.632 375.695 Q89.1127 373.323 86.5559 372.026 Q83.2209 370.359 76.3658 370.359 Q69.0659 370.359 65.8421 372.36 Q60.9138 375.324 60.9138 380.919 Q60.9138 383.365 62.2107 385.774 Q63.4706 388.145 65.9904 389.59 Q69.3253 391.406 76.3658 391.406 Z" fill="#000000" fill-rule="nonzero" fill-opacity="1" /><path clip-path="url(#clip710)" d="M93.2258 359.761 L90.8913 359.761 Q90.8913 355.722 90.4096 354.796 Q89.8909 353.832 87.4452 353.832 L67.102 353.832 Q64.2858 353.832 63.5818 354.833 Q62.8777 355.796 62.8777 359.761 L60.5062 359.761 L59.691 349.2 L68.0284 349.2 Q64.7675 348.126 62.2478 345.865 Q59.691 343.568 59.691 339.862 Q59.691 337.417 61.062 335.86 Q62.4331 334.267 64.3229 334.267 Q65.9904 334.267 66.8426 335.305 Q67.6578 336.305 67.6578 337.528 Q67.6578 338.899 66.8056 339.862 Q65.9162 340.789 64.397 340.789 Q63.4706 340.789 62.7666 340.381 Q62.0255 339.936 61.7661 339.603 Q61.5067 339.27 61.4326 339.047 Q61.3585 339.195 61.3585 339.862 Q61.3585 344.05 65.5457 346.458 Q69.6959 348.83 75.6247 348.83 L87.297 348.83 Q89.4832 348.83 90.1873 347.94 Q90.8913 347.014 90.8913 343.049 L90.8913 341.456 L93.2258 341.456 Q93.0035 344.494 93.0035 351.09 Q93.0035 352.016 93.0405 353.462 Q93.0776 354.907 93.1517 356.797 Q93.2258 358.686 93.2258 359.761 Z" fill="#000000" fill-rule="nonzero" fill-opacity="1" /><path clip-path="url(#clip710)" d="M93.2258 329.783 L90.8913 329.783 Q90.8913 325.744 90.4096 324.818 Q89.8909 323.892 87.4452 323.892 L67.102 323.892 Q64.2858 323.892 63.5818 324.892 Q62.8777 325.856 62.8777 329.783 L60.5062 329.783 L59.691 319.112 L67.6578 319.112 Q59.691 315.554 59.691 307.884 Q59.691 298.991 67.102 297.768 Q64.2117 296.471 61.9514 293.766 Q59.691 291.024 59.691 286.763 Q59.691 281.056 62.5072 278.796 Q64.397 277.128 66.5091 276.795 Q68.6213 276.461 74.1054 276.461 L88.5939 276.461 Q90.1873 276.387 90.5578 275.164 Q90.8913 273.941 90.8913 270.532 L93.2258 270.532 Q93.0035 278.277 93.0035 279.018 Q93.0035 279.611 93.2258 287.615 L90.8913 287.615 Q90.8913 283.576 90.4096 282.649 Q89.8909 281.686 87.4452 281.686 L69.77 281.686 Q65.9162 281.686 63.6559 282.872 Q61.3585 284.057 61.3585 287.318 Q61.3585 291.246 64.6564 294.396 Q67.9543 297.546 73.5125 297.546 L87.4452 297.546 Q89.8909 297.546 90.4096 296.619 Q90.8913 295.656 90.8913 291.617 L93.2258 291.617 Q93.0035 299.361 93.0035 300.139 Q93.0035 300.732 93.2258 308.699 L90.8913 308.699 Q90.8913 304.66 90.4096 303.734 Q89.8909 302.77 87.4452 302.77 L69.77 302.77 Q65.9162 302.77 63.6559 303.956 Q61.3585 305.142 61.3585 308.403 Q61.3585 312.33 64.6564 315.48 Q67.9543 318.63 73.5125 318.63 L87.4452 318.63 Q89.8909 318.63 90.4096 317.703 Q90.8913 316.74 90.8913 312.738 L93.2258 312.738 Q93.0035 320.483 93.0035 321.224 Q93.0035 321.817 93.2258 329.783 Z" fill="#000000" fill-rule="nonzero" fill-opacity="1" /><path clip-path="url(#clip710)" d="M86.0001 265.863 Q79.5525 265.863 76.1434 258.267 Q73.9572 253.709 73.4014 244.297 L70.6222 244.297 Q65.9162 244.297 63.4336 246.78 Q60.9138 249.226 60.9138 252.338 Q60.9138 257.897 64.397 260.565 Q64.4711 258.304 65.6198 257.489 Q66.7315 256.674 67.8802 256.674 Q69.3994 256.674 70.3999 257.637 Q71.3633 258.564 71.3633 260.157 Q71.3633 261.676 70.437 262.677 Q69.4735 263.677 67.806 263.677 Q64.1005 263.677 61.6549 260.342 Q59.2093 256.97 59.2093 252.19 Q59.2093 245.965 63.3965 241.815 Q64.6934 240.518 66.3609 239.888 Q68.0284 239.221 69.14 239.147 Q70.2146 239.073 72.3638 239.073 L87.5193 239.073 Q87.964 239.073 88.7051 238.924 Q89.4462 238.776 90.4096 238.109 Q91.336 237.405 91.336 236.256 Q91.336 233.514 86.4818 233.551 L82.2205 233.551 L82.2205 231.625 L86.4818 231.625 Q90.5208 231.625 92.1142 233.774 Q93.6705 235.886 93.6705 237.85 Q93.6705 240.37 91.8177 241.963 Q89.965 243.556 87.4452 243.779 Q90.3355 244.927 92.2253 247.558 Q94.0781 250.152 94.0781 253.709 Q94.0781 256.451 93.374 259.045 Q92.707 261.602 90.8172 263.751 Q88.8904 265.863 86.0001 265.863 M85.926 260.009 Q88.7421 260.009 90.5578 258.008 Q92.3735 256.007 92.3735 253.191 Q92.3735 250.004 89.9279 247.151 Q87.4452 244.297 82.591 244.297 L74.9947 244.297 Q75.2912 252.709 78.6632 256.377 Q81.9981 260.009 85.926 260.009 Z" fill="#000000" fill-rule="nonzero" fill-opacity="1" /><path clip-path="url(#clip710)" d="M93.2258 228.586 L90.8913 228.586 Q90.8913 224.547 90.4096 223.621 Q89.8909 222.694 87.4452 222.694 L47.9816 222.694 Q45.1654 222.694 44.4614 223.695 Q43.7573 224.658 43.7573 228.586 L41.3858 228.586 L40.5706 217.692 L87.4452 217.692 Q89.8909 217.692 90.4096 216.728 Q90.8913 215.765 90.8913 211.763 L93.2258 211.763 Q93.2258 212.689 93.1517 214.616 Q93.0776 216.543 93.0405 217.951 Q93.0035 219.359 93.0035 220.175 Q93.0035 221.064 93.2258 228.586 Z" fill="#000000" fill-rule="nonzero" fill-opacity="1" /><path clip-path="url(#clip710)" d="M93.2258 207.576 L90.8913 207.576 Q90.8913 203.537 90.4096 202.611 Q89.8909 201.684 87.4452 201.684 L67.0279 201.684 Q64.2117 201.684 63.5447 202.648 Q62.8777 203.574 62.8777 207.279 L60.5062 207.279 L59.691 196.682 L87.5193 196.682 Q89.7797 196.682 90.3355 195.867 Q90.8913 195.051 90.8913 191.346 L93.2258 191.346 Q93.0035 199.09 93.0035 199.239 Q93.0035 200.276 93.2258 207.576 M46.4623 204.389 Q44.9431 204.389 43.7203 203.24 Q42.4604 202.055 42.4604 200.387 Q42.4604 198.72 43.6091 197.534 Q44.7208 196.348 46.4994 196.348 Q48.241 196.348 49.3897 197.534 Q50.5013 198.72 50.5013 200.387 Q50.5013 202.129 49.2785 203.278 Q48.0557 204.389 46.4623 204.389 Z" fill="#000000" fill-rule="nonzero" fill-opacity="1" /><path clip-path="url(#clip710)" d="M92.1512 186.973 Q91.6324 186.973 90.7802 186.269 L62.1737 165.111 L62.1737 173.745 Q62.1737 179.748 64.397 181.711 Q66.5832 183.638 72.7344 184.009 L72.7344 185.899 L60.5062 185.046 L60.5062 160.775 Q60.5062 159.923 60.5433 159.59 Q60.5803 159.256 60.8397 159.034 Q61.062 158.811 61.5067 158.811 Q61.9514 158.811 62.8036 159.478 L91.336 180.6 L91.336 171.633 Q91.336 165.333 88.7051 163.221 Q86.0742 161.072 79.0337 160.553 L79.0337 158.663 L93.2258 159.96 L93.2258 184.972 Q93.2258 186.195 93.0776 186.603 Q92.8923 186.973 92.1512 186.973 Z" fill="#000000" fill-rule="nonzero" fill-opacity="1" /><path clip-path="url(#clip710)" d="M76.514 153.29 Q69.3624 153.29 64.2858 148.695 Q59.2093 144.101 59.2093 137.505 Q59.2093 130.835 63.5447 127.389 Q67.8802 123.906 74.1054 123.906 Q75.2541 123.906 75.4764 124.202 Q75.6988 124.498 75.6988 125.795 L75.6988 146.991 Q83.4433 146.991 87.0747 144.693 Q92.1512 141.507 92.1512 136.134 Q92.1512 135.393 92.003 134.503 Q91.8548 133.614 91.2248 131.798 Q90.5578 129.983 88.8163 128.389 Q87.0747 126.796 84.3326 125.87 Q83.258 125.647 83.2951 124.906 Q83.2951 123.906 84.1844 123.906 Q84.8514 123.906 86.3706 124.647 Q87.8528 125.351 89.6315 126.722 Q91.4101 128.093 92.7441 130.761 Q94.0781 133.392 94.0781 136.578 Q94.0781 143.248 89.0386 148.288 Q83.962 153.29 76.514 153.29 M74.1054 146.917 L74.1054 128.908 Q72.512 128.908 70.7334 129.204 Q68.9548 129.464 66.5091 130.279 Q64.0264 131.057 62.4701 132.91 Q60.9138 134.763 60.9138 137.505 Q60.9138 138.728 61.4326 140.062 Q61.9514 141.359 63.2112 142.952 Q64.4711 144.545 67.3243 145.657 Q70.1776 146.769 74.1054 146.917 Z" fill="#000000" fill-rule="nonzero" fill-opacity="1" /><path clip-path="url(#clip710)" d="M76.9216 119.126 Q69.6959 119.126 64.6934 114.086 Q59.691 109.047 59.691 102.228 Q59.691 96.4478 64.397 92.6682 L47.9816 92.6682 Q45.1654 92.6682 44.4614 93.6687 Q43.7573 94.6321 43.7573 98.56 L41.3858 98.56 L40.5706 87.6287 L86.63 87.6287 Q89.4462 87.6287 90.1873 86.6653 Q90.8913 85.6648 90.8913 81.737 L93.2258 81.737 L94.0781 92.8905 L89.0386 92.8905 Q94.041 96.8184 94.0781 103.044 Q94.0781 109.565 89.0756 114.345 Q84.0732 119.126 76.9216 119.126 M76.9957 112.826 Q84.0362 112.826 87.5193 110.64 Q92.3735 107.601 92.3735 102.673 Q92.3735 97.0407 87.0747 93.7058 Q85.7777 92.8535 84.2585 92.8905 L68.6954 92.8905 Q67.1761 92.8905 65.9162 93.7058 Q61.3585 96.8184 61.3585 101.895 Q61.3585 107.194 66.2127 110.492 Q69.8441 112.826 76.9957 112.826 Z" fill="#000000" fill-rule="nonzero" fill-opacity="1" /><path clip-path="url(#clip710)" d="M111.457 75.2894 Q111.086 75.2894 110.16 74.326 Q97.7095 62.0978 74.2536 62.0978 Q50.7237 62.0978 38.829 73.8443 Q37.458 75.2894 37.0504 75.2894 Q36.3093 75.2894 36.3093 74.5483 Q36.3093 74.0295 37.8285 72.2138 Q39.3478 70.3611 42.831 67.582 Q46.3141 64.7658 50.5755 62.6907 Q60.9138 57.6883 74.2536 57.6883 Q87.0747 57.6883 97.413 62.4684 Q101.748 64.5064 105.38 67.3596 Q109.011 70.2129 110.605 72.1027 Q112.198 73.9925 112.198 74.5483 Q112.198 75.2894 111.457 75.2894 Z" fill="#000000" fill-rule="nonzero" fill-opacity="1" /><path clip-path="url(#clip712)" d="M328.487 888.338 L309.061 888.338 L347.913 888.338 L328.487 888.338 L328.487 808.964 L328.487 888.338  Z" fill="#eff8e8" fill-rule="evenodd" fill-opacity="1"/>
<polyline clip-path="url(#clip712)" style="stroke:#000000; stroke-linecap:round; stroke-linejoin:round; stroke-width:4; stroke-opacity:1; fill:none" points="328.487,888.338 309.061,888.338 347.913,888.338 328.487,888.338 328.487,808.964 328.487,888.338 "/>
<path clip-path="url(#clip712)" d="M367.338 808.964 L367.338 761.113 L289.635 761.113 L289.635 808.964 L367.338 808.964 L367.338 761.113 L367.338 808.964  Z" fill="#eff8e8" fill-rule="evenodd" fill-opacity="1"/>
<polyline clip-path="url(#clip712)" style="stroke:#000000; stroke-linecap:round; stroke-linejoin:round; stroke-width:4; stroke-opacity:1; fill:none" points="367.338,808.964 367.338,761.113 289.635,761.113 289.635,808.964 367.338,808.964 367.338,761.113 367.338,808.964 "/>
<path clip-path="url(#clip712)" d="M367.338 699.654 L289.635 699.654 L289.635 761.113 L367.338 761.113 L367.338 699.654 L328.487 699.654 L367.338 699.654  Z" fill="#eff8e8" fill-rule="evenodd" fill-opacity="1"/>
<polyline clip-path="url(#clip712)" style="stroke:#000000; stroke-linecap:round; stroke-linejoin:round; stroke-width:4; stroke-opacity:1; fill:none" points="367.338,699.654 289.635,699.654 289.635,761.113 367.338,761.113 367.338,699.654 328.487,699.654 367.338,699.654 "/>
<path clip-path="url(#clip712)" d="M328.487 588.757 L309.061 588.757 L347.913 588.757 L328.487 588.757 L328.487 699.654 L328.487 588.757  Z" fill="#eff8e8" fill-rule="evenodd" fill-opacity="1"/>
<polyline clip-path="url(#clip712)" style="stroke:#000000; stroke-linecap:round; stroke-linejoin:round; stroke-width:4; stroke-opacity:1; fill:none" points="328.487,588.757 309.061,588.757 347.913,588.757 328.487,588.757 328.487,699.654 328.487,588.757 "/>
<path clip-path="url(#clip712)" d="M821.839 1062.37 L802.414 1062.37 L841.265 1062.37 L821.839 1062.37 L821.839 999.706 L821.839 1062.37  Z" fill="#eff8e8" fill-rule="evenodd" fill-opacity="1"/>
<polyline clip-path="url(#clip712)" style="stroke:#000000; stroke-linecap:round; stroke-linejoin:round; stroke-width:4; stroke-opacity:1; fill:none" points="821.839,1062.37 802.414,1062.37 841.265,1062.37 821.839,1062.37 821.839,999.706 821.839,1062.37 "/>
<path clip-path="url(#clip712)" d="M860.691 999.706 L860.691 952.71 L782.988 952.71 L782.988 999.706 L860.691 999.706 L860.691 952.71 L860.691 999.706  Z" fill="#eff8e8" fill-rule="evenodd" fill-opacity="1"/>
<polyline clip-path="url(#clip712)" style="stroke:#000000; stroke-linecap:round; stroke-linejoin:round; stroke-width:4; stroke-opacity:1; fill:none" points="860.691,999.706 860.691,952.71 782.988,952.71 782.988,999.706 860.691,999.706 860.691,952.71 860.691,999.706 "/>
<path clip-path="url(#clip712)" d="M860.691 882.215 L782.988 882.215 L782.988 952.71 L860.691 952.71 L860.691 882.215 L821.839 882.215 L860.691 882.215  Z" fill="#eff8e8" fill-rule="evenodd" fill-opacity="1"/>
<polyline clip-path="url(#clip712)" style="stroke:#000000; stroke-linecap:round; stroke-linejoin:round; stroke-width:4; stroke-opacity:1; fill:none" points="860.691,882.215 782.988,882.215 782.988,952.71 860.691,952.71 860.691,882.215 821.839,882.215 860.691,882.215 "/>
<path clip-path="url(#clip712)" d="M821.839 772.557 L802.414 772.557 L841.265 772.557 L821.839 772.557 L821.839 882.215 L821.839 772.557  Z" fill="#eff8e8" fill-rule="evenodd" fill-opacity="1"/>
<polyline clip-path="url(#clip712)" style="stroke:#000000; stroke-linecap:round; stroke-linejoin:round; stroke-width:4; stroke-opacity:1; fill:none" points="821.839,772.557 802.414,772.557 841.265,772.557 821.839,772.557 821.839,882.215 821.839,772.557 "/>
<path clip-path="url(#clip712)" d="M1315.19 1118.71 L1295.77 1118.71 L1334.62 1118.71 L1315.19 1118.71 L1315.19 1068.9 L1315.19 1118.71  Z" fill="#eff8e8" fill-rule="evenodd" fill-opacity="1"/>
<polyline clip-path="url(#clip712)" style="stroke:#000000; stroke-linecap:round; stroke-linejoin:round; stroke-width:4; stroke-opacity:1; fill:none" points="1315.19,1118.71 1295.77,1118.71 1334.62,1118.71 1315.19,1118.71 1315.19,1068.9 1315.19,1118.71 "/>
<path clip-path="url(#clip712)" d="M1354.04 1068.9 L1354.04 980.756 L1276.34 980.756 L1276.34 1068.9 L1354.04 1068.9 L1354.04 980.756 L1354.04 1068.9  Z" fill="#eff8e8" fill-rule="evenodd" fill-opacity="1"/>
<polyline clip-path="url(#clip712)" style="stroke:#000000; stroke-linecap:round; stroke-linejoin:round; stroke-width:4; stroke-opacity:1; fill:none" points="1354.04,1068.9 1354.04,980.756 1276.34,980.756 1276.34,1068.9 1354.04,1068.9 1354.04,980.756 1354.04,1068.9 "/>
<path clip-path="url(#clip712)" d="M1354.04 919.442 L1276.34 919.442 L1276.34 980.756 L1354.04 980.756 L1354.04 919.442 L1315.19 919.442 L1354.04 919.442  Z" fill="#eff8e8" fill-rule="evenodd" fill-opacity="1"/>
<polyline clip-path="url(#clip712)" style="stroke:#000000; stroke-linecap:round; stroke-linejoin:round; stroke-width:4; stroke-opacity:1; fill:none" points="1354.04,919.442 1276.34,919.442 1276.34,980.756 1354.04,980.756 1354.04,919.442 1315.19,919.442 1354.04,919.442 "/>
<path clip-path="url(#clip712)" d="M1315.19 858.127 L1295.77 858.127 L1334.62 858.127 L1315.19 858.127 L1315.19 919.442 L1315.19 858.127  Z" fill="#eff8e8" fill-rule="evenodd" fill-opacity="1"/>
<polyline clip-path="url(#clip712)" style="stroke:#000000; stroke-linecap:round; stroke-linejoin:round; stroke-width:4; stroke-opacity:1; fill:none" points="1315.19,858.127 1295.77,858.127 1334.62,858.127 1315.19,858.127 1315.19,919.442 1315.19,858.127 "/>
<circle clip-path="url(#clip712)" cx="328.487" cy="415.041" r="14.4" fill="#eff8e8" fill-rule="evenodd" fill-opacity="1" stroke="#000000" stroke-opacity="1" stroke-width="2.8"/>
<polyline clip-path="url(#clip712)" style="stroke:#eff8e8; stroke-linecap:round; stroke-linejoin:round; stroke-width:0; stroke-opacity:1; fill:none" points="328.487,888.338 309.061,888.338 347.913,888.338 328.487,888.338 328.487,808.964 "/>
<polyline clip-path="url(#clip712)" style="stroke:#eff8e8; stroke-linecap:round; stroke-linejoin:round; stroke-width:0; stroke-opacity:1; fill:none" points="367.338,808.964 367.338,761.113 289.635,761.113 289.635,808.964 367.338,808.964 367.338,761.113 "/>
<polyline clip-path="url(#clip712)" style="stroke:#eff8e8; stroke-linecap:round; stroke-linejoin:round; stroke-width:0; stroke-opacity:1; fill:none" points="367.338,699.654 289.635,699.654 289.635,761.113 367.338,761.113 367.338,699.654 328.487,699.654 "/>
<polyline clip-path="url(#clip712)" style="stroke:#eff8e8; stroke-linecap:round; stroke-linejoin:round; stroke-width:0; stroke-opacity:1; fill:none" points="328.487,588.757 309.061,588.757 347.913,588.757 328.487,588.757 328.487,699.654 "/>
<polyline clip-path="url(#clip712)" style="stroke:#eff8e8; stroke-linecap:round; stroke-linejoin:round; stroke-width:0; stroke-opacity:1; fill:none" points="821.839,1062.37 802.414,1062.37 841.265,1062.37 821.839,1062.37 821.839,999.706 "/>
<polyline clip-path="url(#clip712)" style="stroke:#eff8e8; stroke-linecap:round; stroke-linejoin:round; stroke-width:0; stroke-opacity:1; fill:none" points="860.691,999.706 860.691,952.71 782.988,952.71 782.988,999.706 860.691,999.706 860.691,952.71 "/>
<polyline clip-path="url(#clip712)" style="stroke:#eff8e8; stroke-linecap:round; stroke-linejoin:round; stroke-width:0; stroke-opacity:1; fill:none" points="860.691,882.215 782.988,882.215 782.988,952.71 860.691,952.71 860.691,882.215 821.839,882.215 "/>
<polyline clip-path="url(#clip712)" style="stroke:#eff8e8; stroke-linecap:round; stroke-linejoin:round; stroke-width:0; stroke-opacity:1; fill:none" points="821.839,772.557 802.414,772.557 841.265,772.557 821.839,772.557 821.839,882.215 "/>
<polyline clip-path="url(#clip712)" style="stroke:#eff8e8; stroke-linecap:round; stroke-linejoin:round; stroke-width:0; stroke-opacity:1; fill:none" points="1315.19,1118.71 1295.77,1118.71 1334.62,1118.71 1315.19,1118.71 1315.19,1068.9 "/>
<polyline clip-path="url(#clip712)" style="stroke:#eff8e8; stroke-linecap:round; stroke-linejoin:round; stroke-width:0; stroke-opacity:1; fill:none" points="1354.04,1068.9 1354.04,980.756 1276.34,980.756 1276.34,1068.9 1354.04,1068.9 1354.04,980.756 "/>
<polyline clip-path="url(#clip712)" style="stroke:#eff8e8; stroke-linecap:round; stroke-linejoin:round; stroke-width:0; stroke-opacity:1; fill:none" points="1354.04,919.442 1276.34,919.442 1276.34,980.756 1354.04,980.756 1354.04,919.442 1315.19,919.442 "/>
<polyline clip-path="url(#clip712)" style="stroke:#eff8e8; stroke-linecap:round; stroke-linejoin:round; stroke-width:0; stroke-opacity:1; fill:none" points="1315.19,858.127 1295.77,858.127 1334.62,858.127 1315.19,858.127 1315.19,919.442 "/>
<path clip-path="url(#clip712)" d="M414.823 723.013 L395.398 723.013 L434.249 723.013 L414.823 723.013 L414.823 662.122 L414.823 723.013  Z" fill="#b9e3bb" fill-rule="evenodd" fill-opacity="1"/>
<polyline clip-path="url(#clip712)" style="stroke:#000000; stroke-linecap:round; stroke-linejoin:round; stroke-width:4; stroke-opacity:1; fill:none" points="414.823,723.013 395.398,723.013 434.249,723.013 414.823,723.013 414.823,662.122 414.823,723.013 "/>
<path clip-path="url(#clip712)" d="M453.675 662.122 L453.675 608.941 L375.972 608.941 L375.972 662.122 L453.675 662.122 L453.675 608.941 L453.675 662.122  Z" fill="#b9e3bb" fill-rule="evenodd" fill-opacity="1"/>
<polyline clip-path="url(#clip712)" style="stroke:#000000; stroke-linecap:round; stroke-linejoin:round; stroke-width:4; stroke-opacity:1; fill:none" points="453.675,662.122 453.675,608.941 375.972,608.941 375.972,662.122 453.675,662.122 453.675,608.941 453.675,662.122 "/>
<path clip-path="url(#clip712)" d="M453.675 552.472 L375.972 552.472 L375.972 608.941 L453.675 608.941 L453.675 552.472 L414.823 552.472 L453.675 552.472  Z" fill="#b9e3bb" fill-rule="evenodd" fill-opacity="1"/>
<polyline clip-path="url(#clip712)" style="stroke:#000000; stroke-linecap:round; stroke-linejoin:round; stroke-width:4; stroke-opacity:1; fill:none" points="453.675,552.472 375.972,552.472 375.972,608.941 453.675,608.941 453.675,552.472 414.823,552.472 453.675,552.472 "/>
<path clip-path="url(#clip712)" d="M414.823 409.372 L395.398 409.372 L434.249 409.372 L414.823 409.372 L414.823 552.472 L414.823 409.372  Z" fill="#b9e3bb" fill-rule="evenodd" fill-opacity="1"/>
<polyline clip-path="url(#clip712)" style="stroke:#000000; stroke-linecap:round; stroke-linejoin:round; stroke-width:4; stroke-opacity:1; fill:none" points="414.823,409.372 395.398,409.372 434.249,409.372 414.823,409.372 414.823,552.472 414.823,409.372 "/>
<path clip-path="url(#clip712)" d="M908.176 944.877 L888.75 944.877 L927.602 944.877 L908.176 944.877 L908.176 886.131 L908.176 944.877  Z" fill="#b9e3bb" fill-rule="evenodd" fill-opacity="1"/>
<polyline clip-path="url(#clip712)" style="stroke:#000000; stroke-linecap:round; stroke-linejoin:round; stroke-width:4; stroke-opacity:1; fill:none" points="908.176,944.877 888.75,944.877 927.602,944.877 908.176,944.877 908.176,886.131 908.176,944.877 "/>
<path clip-path="url(#clip712)" d="M947.027 886.131 L947.027 843.051 L869.324 843.051 L869.324 886.131 L947.027 886.131 L947.027 843.051 L947.027 886.131  Z" fill="#b9e3bb" fill-rule="evenodd" fill-opacity="1"/>
<polyline clip-path="url(#clip712)" style="stroke:#000000; stroke-linecap:round; stroke-linejoin:round; stroke-width:4; stroke-opacity:1; fill:none" points="947.027,886.131 947.027,843.051 869.324,843.051 869.324,886.131 947.027,886.131 947.027,843.051 947.027,886.131 "/>
<path clip-path="url(#clip712)" d="M947.027 799.971 L869.324 799.971 L869.324 843.051 L947.027 843.051 L947.027 799.971 L908.176 799.971 L947.027 799.971  Z" fill="#b9e3bb" fill-rule="evenodd" fill-opacity="1"/>
<polyline clip-path="url(#clip712)" style="stroke:#000000; stroke-linecap:round; stroke-linejoin:round; stroke-width:4; stroke-opacity:1; fill:none" points="947.027,799.971 869.324,799.971 869.324,843.051 947.027,843.051 947.027,799.971 908.176,799.971 947.027,799.971 "/>
<path clip-path="url(#clip712)" d="M908.176 717.727 L888.75 717.727 L927.602 717.727 L908.176 717.727 L908.176 799.971 L908.176 717.727  Z" fill="#b9e3bb" fill-rule="evenodd" fill-opacity="1"/>
<polyline clip-path="url(#clip712)" style="stroke:#000000; stroke-linecap:round; stroke-linejoin:round; stroke-width:4; stroke-opacity:1; fill:none" points="908.176,717.727 888.75,717.727 927.602,717.727 908.176,717.727 908.176,799.971 908.176,717.727 "/>
<path clip-path="url(#clip712)" d="M1401.53 1088.06 L1382.1 1088.06 L1420.95 1088.06 L1401.53 1088.06 L1401.53 950.099 L1401.53 1088.06  Z" fill="#b9e3bb" fill-rule="evenodd" fill-opacity="1"/>
<polyline clip-path="url(#clip712)" style="stroke:#000000; stroke-linecap:round; stroke-linejoin:round; stroke-width:4; stroke-opacity:1; fill:none" points="1401.53,1088.06 1382.1,1088.06 1420.95,1088.06 1401.53,1088.06 1401.53,950.099 1401.53,1088.06 "/>
<path clip-path="url(#clip712)" d="M1440.38 950.099 L1440.38 904.113 L1362.68 904.113 L1362.68 950.099 L1440.38 950.099 L1440.38 904.113 L1440.38 950.099  Z" fill="#b9e3bb" fill-rule="evenodd" fill-opacity="1"/>
<polyline clip-path="url(#clip712)" style="stroke:#000000; stroke-linecap:round; stroke-linejoin:round; stroke-width:4; stroke-opacity:1; fill:none" points="1440.38,950.099 1440.38,904.113 1362.68,904.113 1362.68,950.099 1440.38,950.099 1440.38,904.113 1440.38,950.099 "/>
<path clip-path="url(#clip712)" d="M1440.38 854.295 L1362.68 854.295 L1362.68 904.113 L1440.38 904.113 L1440.38 854.295 L1401.53 854.295 L1440.38 854.295  Z" fill="#b9e3bb" fill-rule="evenodd" fill-opacity="1"/>
<polyline clip-path="url(#clip712)" style="stroke:#000000; stroke-linecap:round; stroke-linejoin:round; stroke-width:4; stroke-opacity:1; fill:none" points="1440.38,854.295 1362.68,854.295 1362.68,904.113 1440.38,904.113 1440.38,854.295 1401.53,854.295 1440.38,854.295 "/>
<path clip-path="url(#clip712)" d="M1401.53 743.163 L1382.1 743.163 L1420.95 743.163 L1401.53 743.163 L1401.53 854.295 L1401.53 743.163  Z" fill="#b9e3bb" fill-rule="evenodd" fill-opacity="1"/>
<polyline clip-path="url(#clip712)" style="stroke:#000000; stroke-linecap:round; stroke-linejoin:round; stroke-width:4; stroke-opacity:1; fill:none" points="1401.53,743.163 1382.1,743.163 1420.95,743.163 1401.53,743.163 1401.53,854.295 1401.53,743.163 "/>
<circle clip-path="url(#clip712)" cx="414.823" cy="381.931" r="14.4" fill="#b9e3bb" fill-rule="evenodd" fill-opacity="1" stroke="#000000" stroke-opacity="1" stroke-width="2.8"/>
<circle clip-path="url(#clip712)" cx="414.823" cy="318.658" r="14.4" fill="#b9e3bb" fill-rule="evenodd" fill-opacity="1" stroke="#000000" stroke-opacity="1" stroke-width="2.8"/>
<circle clip-path="url(#clip712)" cx="414.823" cy="368.097" r="14.4" fill="#b9e3bb" fill-rule="evenodd" fill-opacity="1" stroke="#000000" stroke-opacity="1" stroke-width="2.8"/>
<circle clip-path="url(#clip712)" cx="908.176" cy="647.233" r="14.4" fill="#b9e3bb" fill-rule="evenodd" fill-opacity="1" stroke="#000000" stroke-opacity="1" stroke-width="2.8"/>
<circle clip-path="url(#clip712)" cx="1401.53" cy="566.884" r="14.4" fill="#b9e3bb" fill-rule="evenodd" fill-opacity="1" stroke="#000000" stroke-opacity="1" stroke-width="2.8"/>
<polyline clip-path="url(#clip712)" style="stroke:#b9e3bb; stroke-linecap:round; stroke-linejoin:round; stroke-width:0; stroke-opacity:1; fill:none" points="414.823,723.013 395.398,723.013 434.249,723.013 414.823,723.013 414.823,662.122 "/>
<polyline clip-path="url(#clip712)" style="stroke:#b9e3bb; stroke-linecap:round; stroke-linejoin:round; stroke-width:0; stroke-opacity:1; fill:none" points="453.675,662.122 453.675,608.941 375.972,608.941 375.972,662.122 453.675,662.122 453.675,608.941 "/>
<polyline clip-path="url(#clip712)" style="stroke:#b9e3bb; stroke-linecap:round; stroke-linejoin:round; stroke-width:0; stroke-opacity:1; fill:none" points="453.675,552.472 375.972,552.472 375.972,608.941 453.675,608.941 453.675,552.472 414.823,552.472 "/>
<polyline clip-path="url(#clip712)" style="stroke:#b9e3bb; stroke-linecap:round; stroke-linejoin:round; stroke-width:0; stroke-opacity:1; fill:none" points="414.823,409.372 395.398,409.372 434.249,409.372 414.823,409.372 414.823,552.472 "/>
<polyline clip-path="url(#clip712)" style="stroke:#b9e3bb; stroke-linecap:round; stroke-linejoin:round; stroke-width:0; stroke-opacity:1; fill:none" points="908.176,944.877 888.75,944.877 927.602,944.877 908.176,944.877 908.176,886.131 "/>
<polyline clip-path="url(#clip712)" style="stroke:#b9e3bb; stroke-linecap:round; stroke-linejoin:round; stroke-width:0; stroke-opacity:1; fill:none" points="947.027,886.131 947.027,843.051 869.324,843.051 869.324,886.131 947.027,886.131 947.027,843.051 "/>
<polyline clip-path="url(#clip712)" style="stroke:#b9e3bb; stroke-linecap:round; stroke-linejoin:round; stroke-width:0; stroke-opacity:1; fill:none" points="947.027,799.971 869.324,799.971 869.324,843.051 947.027,843.051 947.027,799.971 908.176,799.971 "/>
<polyline clip-path="url(#clip712)" style="stroke:#b9e3bb; stroke-linecap:round; stroke-linejoin:round; stroke-width:0; stroke-opacity:1; fill:none" points="908.176,717.727 888.75,717.727 927.602,717.727 908.176,717.727 908.176,799.971 "/>
<polyline clip-path="url(#clip712)" style="stroke:#b9e3bb; stroke-linecap:round; stroke-linejoin:round; stroke-width:0; stroke-opacity:1; fill:none" points="1401.53,1088.06 1382.1,1088.06 1420.95,1088.06 1401.53,1088.06 1401.53,950.099 "/>
<polyline clip-path="url(#clip712)" style="stroke:#b9e3bb; stroke-linecap:round; stroke-linejoin:round; stroke-width:0; stroke-opacity:1; fill:none" points="1440.38,950.099 1440.38,904.113 1362.68,904.113 1362.68,950.099 1440.38,950.099 1440.38,904.113 "/>
<polyline clip-path="url(#clip712)" style="stroke:#b9e3bb; stroke-linecap:round; stroke-linejoin:round; stroke-width:0; stroke-opacity:1; fill:none" points="1440.38,854.295 1362.68,854.295 1362.68,904.113 1440.38,904.113 1440.38,854.295 1401.53,854.295 "/>
<polyline clip-path="url(#clip712)" style="stroke:#b9e3bb; stroke-linecap:round; stroke-linejoin:round; stroke-width:0; stroke-opacity:1; fill:none" points="1401.53,743.163 1382.1,743.163 1420.95,743.163 1401.53,743.163 1401.53,854.295 "/>
<path clip-path="url(#clip712)" d="M501.16 779.482 L481.734 779.482 L520.586 779.482 L501.16 779.482 L501.16 690.13 L501.16 779.482  Z" fill="#7accc4" fill-rule="evenodd" fill-opacity="1"/>
<polyline clip-path="url(#clip712)" style="stroke:#000000; stroke-linecap:round; stroke-linejoin:round; stroke-width:4; stroke-opacity:1; fill:none" points="501.16,779.482 481.734,779.482 520.586,779.482 501.16,779.482 501.16,690.13 501.16,779.482 "/>
<path clip-path="url(#clip712)" d="M540.012 690.13 L540.012 622.321 L462.309 622.321 L462.309 690.13 L540.012 690.13 L540.012 622.321 L540.012 690.13  Z" fill="#7accc4" fill-rule="evenodd" fill-opacity="1"/>
<polyline clip-path="url(#clip712)" style="stroke:#000000; stroke-linecap:round; stroke-linejoin:round; stroke-width:4; stroke-opacity:1; fill:none" points="540.012,690.13 540.012,622.321 462.309,622.321 462.309,690.13 540.012,690.13 540.012,622.321 540.012,690.13 "/>
<path clip-path="url(#clip712)" d="M540.012 582.974 L462.309 582.974 L462.309 622.321 L540.012 622.321 L540.012 582.974 L501.16 582.974 L540.012 582.974  Z" fill="#7accc4" fill-rule="evenodd" fill-opacity="1"/>
<polyline clip-path="url(#clip712)" style="stroke:#000000; stroke-linecap:round; stroke-linejoin:round; stroke-width:4; stroke-opacity:1; fill:none" points="540.012,582.974 462.309,582.974 462.309,622.321 540.012,622.321 540.012,582.974 501.16,582.974 540.012,582.974 "/>
<path clip-path="url(#clip712)" d="M501.16 539.772 L481.734 539.772 L520.586 539.772 L501.16 539.772 L501.16 582.974 L501.16 539.772  Z" fill="#7accc4" fill-rule="evenodd" fill-opacity="1"/>
<polyline clip-path="url(#clip712)" style="stroke:#000000; stroke-linecap:round; stroke-linejoin:round; stroke-width:4; stroke-opacity:1; fill:none" points="501.16,539.772 481.734,539.772 520.586,539.772 501.16,539.772 501.16,582.974 501.16,539.772 "/>
<path clip-path="url(#clip712)" d="M994.513 1062.37 L975.087 1062.37 L1013.94 1062.37 L994.513 1062.37 L994.513 999.706 L994.513 1062.37  Z" fill="#7accc4" fill-rule="evenodd" fill-opacity="1"/>
<polyline clip-path="url(#clip712)" style="stroke:#000000; stroke-linecap:round; stroke-linejoin:round; stroke-width:4; stroke-opacity:1; fill:none" points="994.513,1062.37 975.087,1062.37 1013.94,1062.37 994.513,1062.37 994.513,999.706 994.513,1062.37 "/>
<path clip-path="url(#clip712)" d="M1033.36 999.706 L1033.36 984.041 L955.661 984.041 L955.661 999.706 L1033.36 999.706 L1033.36 984.041 L1033.36 999.706  Z" fill="#7accc4" fill-rule="evenodd" fill-opacity="1"/>
<polyline clip-path="url(#clip712)" style="stroke:#000000; stroke-linecap:round; stroke-linejoin:round; stroke-width:4; stroke-opacity:1; fill:none" points="1033.36,999.706 1033.36,984.041 955.661,984.041 955.661,999.706 1033.36,999.706 1033.36,984.041 1033.36,999.706 "/>
<path clip-path="url(#clip712)" d="M1033.36 933.128 L955.661 933.128 L955.661 984.041 L1033.36 984.041 L1033.36 933.128 L994.513 933.128 L1033.36 933.128  Z" fill="#7accc4" fill-rule="evenodd" fill-opacity="1"/>
<polyline clip-path="url(#clip712)" style="stroke:#000000; stroke-linecap:round; stroke-linejoin:round; stroke-width:4; stroke-opacity:1; fill:none" points="1033.36,933.128 955.661,933.128 955.661,984.041 1033.36,984.041 1033.36,933.128 994.513,933.128 1033.36,933.128 "/>
<path clip-path="url(#clip712)" d="M994.513 858.717 L975.087 858.717 L1013.94 858.717 L994.513 858.717 L994.513 933.128 L994.513 858.717  Z" fill="#7accc4" fill-rule="evenodd" fill-opacity="1"/>
<polyline clip-path="url(#clip712)" style="stroke:#000000; stroke-linecap:round; stroke-linejoin:round; stroke-width:4; stroke-opacity:1; fill:none" points="994.513,858.717 975.087,858.717 1013.94,858.717 994.513,858.717 994.513,933.128 994.513,858.717 "/>
<path clip-path="url(#clip712)" d="M1487.87 1095.72 L1468.44 1095.72 L1507.29 1095.72 L1487.87 1095.72 L1487.87 1034.41 L1487.87 1095.72  Z" fill="#7accc4" fill-rule="evenodd" fill-opacity="1"/>
<polyline clip-path="url(#clip712)" style="stroke:#000000; stroke-linecap:round; stroke-linejoin:round; stroke-width:4; stroke-opacity:1; fill:none" points="1487.87,1095.72 1468.44,1095.72 1507.29,1095.72 1487.87,1095.72 1487.87,1034.41 1487.87,1095.72 "/>
<path clip-path="url(#clip712)" d="M1526.72 1034.41 L1526.72 996.085 L1449.01 996.085 L1449.01 1034.41 L1526.72 1034.41 L1526.72 996.085 L1526.72 1034.41  Z" fill="#7accc4" fill-rule="evenodd" fill-opacity="1"/>
<polyline clip-path="url(#clip712)" style="stroke:#000000; stroke-linecap:round; stroke-linejoin:round; stroke-width:4; stroke-opacity:1; fill:none" points="1526.72,1034.41 1526.72,996.085 1449.01,996.085 1449.01,1034.41 1526.72,1034.41 1526.72,996.085 1526.72,1034.41 "/>
<path clip-path="url(#clip712)" d="M1526.72 942.435 L1449.01 942.435 L1449.01 996.085 L1526.72 996.085 L1526.72 942.435 L1487.87 942.435 L1526.72 942.435  Z" fill="#7accc4" fill-rule="evenodd" fill-opacity="1"/>
<polyline clip-path="url(#clip712)" style="stroke:#000000; stroke-linecap:round; stroke-linejoin:round; stroke-width:4; stroke-opacity:1; fill:none" points="1526.72,942.435 1449.01,942.435 1449.01,996.085 1526.72,996.085 1526.72,942.435 1487.87,942.435 1526.72,942.435 "/>
<path clip-path="url(#clip712)" d="M1487.87 888.784 L1468.44 888.784 L1507.29 888.784 L1487.87 888.784 L1487.87 942.435 L1487.87 888.784  Z" fill="#7accc4" fill-rule="evenodd" fill-opacity="1"/>
<polyline clip-path="url(#clip712)" style="stroke:#000000; stroke-linecap:round; stroke-linejoin:round; stroke-width:4; stroke-opacity:1; fill:none" points="1487.87,888.784 1468.44,888.784 1507.29,888.784 1487.87,888.784 1487.87,942.435 1487.87,888.784 "/>
<circle clip-path="url(#clip712)" cx="501.16" cy="303.01" r="14.4" fill="#7accc4" fill-rule="evenodd" fill-opacity="1" stroke="#000000" stroke-opacity="1" stroke-width="2.8"/>
<circle clip-path="url(#clip712)" cx="501.16" cy="331.131" r="14.4" fill="#7accc4" fill-rule="evenodd" fill-opacity="1" stroke="#000000" stroke-opacity="1" stroke-width="2.8"/>
<circle clip-path="url(#clip712)" cx="994.513" cy="796.055" r="14.4" fill="#7accc4" fill-rule="evenodd" fill-opacity="1" stroke="#000000" stroke-opacity="1" stroke-width="2.8"/>
<polyline clip-path="url(#clip712)" style="stroke:#7accc4; stroke-linecap:round; stroke-linejoin:round; stroke-width:0; stroke-opacity:1; fill:none" points="501.16,779.482 481.734,779.482 520.586,779.482 501.16,779.482 501.16,690.13 "/>
<polyline clip-path="url(#clip712)" style="stroke:#7accc4; stroke-linecap:round; stroke-linejoin:round; stroke-width:0; stroke-opacity:1; fill:none" points="540.012,690.13 540.012,622.321 462.309,622.321 462.309,690.13 540.012,690.13 540.012,622.321 "/>
<polyline clip-path="url(#clip712)" style="stroke:#7accc4; stroke-linecap:round; stroke-linejoin:round; stroke-width:0; stroke-opacity:1; fill:none" points="540.012,582.974 462.309,582.974 462.309,622.321 540.012,622.321 540.012,582.974 501.16,582.974 "/>
<polyline clip-path="url(#clip712)" style="stroke:#7accc4; stroke-linecap:round; stroke-linejoin:round; stroke-width:0; stroke-opacity:1; fill:none" points="501.16,539.772 481.734,539.772 520.586,539.772 501.16,539.772 501.16,582.974 "/>
<polyline clip-path="url(#clip712)" style="stroke:#7accc4; stroke-linecap:round; stroke-linejoin:round; stroke-width:0; stroke-opacity:1; fill:none" points="994.513,1062.37 975.087,1062.37 1013.94,1062.37 994.513,1062.37 994.513,999.706 "/>
<polyline clip-path="url(#clip712)" style="stroke:#7accc4; stroke-linecap:round; stroke-linejoin:round; stroke-width:0; stroke-opacity:1; fill:none" points="1033.36,999.706 1033.36,984.041 955.661,984.041 955.661,999.706 1033.36,999.706 1033.36,984.041 "/>
<polyline clip-path="url(#clip712)" style="stroke:#7accc4; stroke-linecap:round; stroke-linejoin:round; stroke-width:0; stroke-opacity:1; fill:none" points="1033.36,933.128 955.661,933.128 955.661,984.041 1033.36,984.041 1033.36,933.128 994.513,933.128 "/>
<polyline clip-path="url(#clip712)" style="stroke:#7accc4; stroke-linecap:round; stroke-linejoin:round; stroke-width:0; stroke-opacity:1; fill:none" points="994.513,858.717 975.087,858.717 1013.94,858.717 994.513,858.717 994.513,933.128 "/>
<polyline clip-path="url(#clip712)" style="stroke:#7accc4; stroke-linecap:round; stroke-linejoin:round; stroke-width:0; stroke-opacity:1; fill:none" points="1487.87,1095.72 1468.44,1095.72 1507.29,1095.72 1487.87,1095.72 1487.87,1034.41 "/>
<polyline clip-path="url(#clip712)" style="stroke:#7accc4; stroke-linecap:round; stroke-linejoin:round; stroke-width:0; stroke-opacity:1; fill:none" points="1526.72,1034.41 1526.72,996.085 1449.01,996.085 1449.01,1034.41 1526.72,1034.41 1526.72,996.085 "/>
<polyline clip-path="url(#clip712)" style="stroke:#7accc4; stroke-linecap:round; stroke-linejoin:round; stroke-width:0; stroke-opacity:1; fill:none" points="1526.72,942.435 1449.01,942.435 1449.01,996.085 1526.72,996.085 1526.72,942.435 1487.87,942.435 "/>
<polyline clip-path="url(#clip712)" style="stroke:#7accc4; stroke-linecap:round; stroke-linejoin:round; stroke-width:0; stroke-opacity:1; fill:none" points="1487.87,888.784 1468.44,888.784 1507.29,888.784 1487.87,888.784 1487.87,942.435 "/>
<path clip-path="url(#clip712)" d="M587.497 1070.9 L568.071 1070.9 L606.923 1070.9 L587.497 1070.9 L587.497 994.7 L587.497 1070.9  Z" fill="#2b8bbd" fill-rule="evenodd" fill-opacity="1"/>
<polyline clip-path="url(#clip712)" style="stroke:#000000; stroke-linecap:round; stroke-linejoin:round; stroke-width:4; stroke-opacity:1; fill:none" points="587.497,1070.9 568.071,1070.9 606.923,1070.9 587.497,1070.9 587.497,994.7 587.497,1070.9 "/>
<path clip-path="url(#clip712)" d="M626.348 994.7 L626.348 965.671 L548.645 965.671 L548.645 994.7 L626.348 994.7 L626.348 965.671 L626.348 994.7  Z" fill="#2b8bbd" fill-rule="evenodd" fill-opacity="1"/>
<polyline clip-path="url(#clip712)" style="stroke:#000000; stroke-linecap:round; stroke-linejoin:round; stroke-width:4; stroke-opacity:1; fill:none" points="626.348,994.7 626.348,965.671 548.645,965.671 548.645,994.7 626.348,994.7 626.348,965.671 626.348,994.7 "/>
<path clip-path="url(#clip712)" d="M626.348 907.615 L548.645 907.615 L548.645 965.671 L626.348 965.671 L626.348 907.615 L587.497 907.615 L626.348 907.615  Z" fill="#2b8bbd" fill-rule="evenodd" fill-opacity="1"/>
<polyline clip-path="url(#clip712)" style="stroke:#000000; stroke-linecap:round; stroke-linejoin:round; stroke-width:4; stroke-opacity:1; fill:none" points="626.348,907.615 548.645,907.615 548.645,965.671 626.348,965.671 626.348,907.615 587.497,907.615 626.348,907.615 "/>
<path clip-path="url(#clip712)" d="M587.497 795.13 L568.071 795.13 L606.923 795.13 L587.497 795.13 L587.497 907.615 L587.497 795.13  Z" fill="#2b8bbd" fill-rule="evenodd" fill-opacity="1"/>
<polyline clip-path="url(#clip712)" style="stroke:#000000; stroke-linecap:round; stroke-linejoin:round; stroke-width:4; stroke-opacity:1; fill:none" points="587.497,795.13 568.071,795.13 606.923,795.13 587.497,795.13 587.497,907.615 587.497,795.13 "/>
<path clip-path="url(#clip712)" d="M1080.85 1187.69 L1061.42 1187.69 L1100.28 1187.69 L1080.85 1187.69 L1080.85 1136.78 L1080.85 1187.69  Z" fill="#2b8bbd" fill-rule="evenodd" fill-opacity="1"/>
<polyline clip-path="url(#clip712)" style="stroke:#000000; stroke-linecap:round; stroke-linejoin:round; stroke-width:4; stroke-opacity:1; fill:none" points="1080.85,1187.69 1061.42,1187.69 1100.28,1187.69 1080.85,1187.69 1080.85,1136.78 1080.85,1187.69 "/>
<path clip-path="url(#clip712)" d="M1119.7 1136.78 L1119.7 1109.36 L1042 1109.36 L1042 1136.78 L1119.7 1136.78 L1119.7 1109.36 L1119.7 1136.78  Z" fill="#2b8bbd" fill-rule="evenodd" fill-opacity="1"/>
<polyline clip-path="url(#clip712)" style="stroke:#000000; stroke-linecap:round; stroke-linejoin:round; stroke-width:4; stroke-opacity:1; fill:none" points="1119.7,1136.78 1119.7,1109.36 1042,1109.36 1042,1136.78 1119.7,1136.78 1119.7,1109.36 1119.7,1136.78 "/>
<path clip-path="url(#clip712)" d="M1119.7 1078.03 L1042 1078.03 L1042 1109.36 L1119.7 1109.36 L1119.7 1078.03 L1080.85 1078.03 L1119.7 1078.03  Z" fill="#2b8bbd" fill-rule="evenodd" fill-opacity="1"/>
<polyline clip-path="url(#clip712)" style="stroke:#000000; stroke-linecap:round; stroke-linejoin:round; stroke-width:4; stroke-opacity:1; fill:none" points="1119.7,1078.03 1042,1078.03 1042,1109.36 1119.7,1109.36 1119.7,1078.03 1080.85,1078.03 1119.7,1078.03 "/>
<path clip-path="url(#clip712)" d="M1080.85 1015.37 L1061.42 1015.37 L1100.28 1015.37 L1080.85 1015.37 L1080.85 1078.03 L1080.85 1015.37  Z" fill="#2b8bbd" fill-rule="evenodd" fill-opacity="1"/>
<polyline clip-path="url(#clip712)" style="stroke:#000000; stroke-linecap:round; stroke-linejoin:round; stroke-width:4; stroke-opacity:1; fill:none" points="1080.85,1015.37 1061.42,1015.37 1100.28,1015.37 1080.85,1015.37 1080.85,1078.03 1080.85,1015.37 "/>
<path clip-path="url(#clip712)" d="M1574.2 1187.69 L1554.78 1187.69 L1593.63 1187.69 L1574.2 1187.69 L1574.2 1114.88 L1574.2 1187.69  Z" fill="#2b8bbd" fill-rule="evenodd" fill-opacity="1"/>
<polyline clip-path="url(#clip712)" style="stroke:#000000; stroke-linecap:round; stroke-linejoin:round; stroke-width:4; stroke-opacity:1; fill:none" points="1574.2,1187.69 1554.78,1187.69 1593.63,1187.69 1574.2,1187.69 1574.2,1114.88 1574.2,1187.69 "/>
<path clip-path="url(#clip712)" d="M1613.05 1114.88 L1613.05 1088.06 L1535.35 1088.06 L1535.35 1114.88 L1613.05 1114.88 L1613.05 1088.06 L1613.05 1114.88  Z" fill="#2b8bbd" fill-rule="evenodd" fill-opacity="1"/>
<polyline clip-path="url(#clip712)" style="stroke:#000000; stroke-linecap:round; stroke-linejoin:round; stroke-width:4; stroke-opacity:1; fill:none" points="1613.05,1114.88 1613.05,1088.06 1535.35,1088.06 1535.35,1114.88 1613.05,1114.88 1613.05,1088.06 1613.05,1114.88 "/>
<path clip-path="url(#clip712)" d="M1613.05 1065.06 L1535.35 1065.06 L1535.35 1088.06 L1613.05 1088.06 L1613.05 1065.06 L1574.2 1065.06 L1613.05 1065.06  Z" fill="#2b8bbd" fill-rule="evenodd" fill-opacity="1"/>
<polyline clip-path="url(#clip712)" style="stroke:#000000; stroke-linecap:round; stroke-linejoin:round; stroke-width:4; stroke-opacity:1; fill:none" points="1613.05,1065.06 1535.35,1065.06 1535.35,1088.06 1613.05,1088.06 1613.05,1065.06 1574.2,1065.06 1613.05,1065.06 "/>
<path clip-path="url(#clip712)" d="M1574.2 1011.41 L1554.78 1011.41 L1593.63 1011.41 L1574.2 1011.41 L1574.2 1065.06 L1574.2 1011.41  Z" fill="#2b8bbd" fill-rule="evenodd" fill-opacity="1"/>
<polyline clip-path="url(#clip712)" style="stroke:#000000; stroke-linecap:round; stroke-linejoin:round; stroke-width:4; stroke-opacity:1; fill:none" points="1574.2,1011.41 1554.78,1011.41 1593.63,1011.41 1574.2,1011.41 1574.2,1065.06 1574.2,1011.41 "/>
<circle clip-path="url(#clip712)" cx="587.497" cy="606.9" r="14.4" fill="#2b8bbd" fill-rule="evenodd" fill-opacity="1" stroke="#000000" stroke-opacity="1" stroke-width="2.8"/>
<circle clip-path="url(#clip712)" cx="587.497" cy="694.892" r="14.4" fill="#2b8bbd" fill-rule="evenodd" fill-opacity="1" stroke="#000000" stroke-opacity="1" stroke-width="2.8"/>
<circle clip-path="url(#clip712)" cx="587.497" cy="1187.69" r="14.4" fill="#2b8bbd" fill-rule="evenodd" fill-opacity="1" stroke="#000000" stroke-opacity="1" stroke-width="2.8"/>
<circle clip-path="url(#clip712)" cx="1080.85" cy="984.041" r="14.4" fill="#2b8bbd" fill-rule="evenodd" fill-opacity="1" stroke="#000000" stroke-opacity="1" stroke-width="2.8"/>
<circle clip-path="url(#clip712)" cx="1080.85" cy="976.208" r="14.4" fill="#2b8bbd" fill-rule="evenodd" fill-opacity="1" stroke="#000000" stroke-opacity="1" stroke-width="2.8"/>
<circle clip-path="url(#clip712)" cx="1080.85" cy="944.877" r="14.4" fill="#2b8bbd" fill-rule="evenodd" fill-opacity="1" stroke="#000000" stroke-opacity="1" stroke-width="2.8"/>
<circle clip-path="url(#clip712)" cx="1574.2" cy="927.106" r="14.4" fill="#2b8bbd" fill-rule="evenodd" fill-opacity="1" stroke="#000000" stroke-opacity="1" stroke-width="2.8"/>
<circle clip-path="url(#clip712)" cx="1574.2" cy="980.756" r="14.4" fill="#2b8bbd" fill-rule="evenodd" fill-opacity="1" stroke="#000000" stroke-opacity="1" stroke-width="2.8"/>
<circle clip-path="url(#clip712)" cx="1574.2" cy="942.435" r="14.4" fill="#2b8bbd" fill-rule="evenodd" fill-opacity="1" stroke="#000000" stroke-opacity="1" stroke-width="2.8"/>
<circle clip-path="url(#clip712)" cx="1574.2" cy="950.099" r="14.4" fill="#2b8bbd" fill-rule="evenodd" fill-opacity="1" stroke="#000000" stroke-opacity="1" stroke-width="2.8"/>
<polyline clip-path="url(#clip712)" style="stroke:#2b8bbd; stroke-linecap:round; stroke-linejoin:round; stroke-width:0; stroke-opacity:1; fill:none" points="587.497,1070.9 568.071,1070.9 606.923,1070.9 587.497,1070.9 587.497,994.7 "/>
<polyline clip-path="url(#clip712)" style="stroke:#2b8bbd; stroke-linecap:round; stroke-linejoin:round; stroke-width:0; stroke-opacity:1; fill:none" points="626.348,994.7 626.348,965.671 548.645,965.671 548.645,994.7 626.348,994.7 626.348,965.671 "/>
<polyline clip-path="url(#clip712)" style="stroke:#2b8bbd; stroke-linecap:round; stroke-linejoin:round; stroke-width:0; stroke-opacity:1; fill:none" points="626.348,907.615 548.645,907.615 548.645,965.671 626.348,965.671 626.348,907.615 587.497,907.615 "/>
<polyline clip-path="url(#clip712)" style="stroke:#2b8bbd; stroke-linecap:round; stroke-linejoin:round; stroke-width:0; stroke-opacity:1; fill:none" points="587.497,795.13 568.071,795.13 606.923,795.13 587.497,795.13 587.497,907.615 "/>
<polyline clip-path="url(#clip712)" style="stroke:#2b8bbd; stroke-linecap:round; stroke-linejoin:round; stroke-width:0; stroke-opacity:1; fill:none" points="1080.85,1187.69 1061.42,1187.69 1100.28,1187.69 1080.85,1187.69 1080.85,1136.78 "/>
<polyline clip-path="url(#clip712)" style="stroke:#2b8bbd; stroke-linecap:round; stroke-linejoin:round; stroke-width:0; stroke-opacity:1; fill:none" points="1119.7,1136.78 1119.7,1109.36 1042,1109.36 1042,1136.78 1119.7,1136.78 1119.7,1109.36 "/>
<polyline clip-path="url(#clip712)" style="stroke:#2b8bbd; stroke-linecap:round; stroke-linejoin:round; stroke-width:0; stroke-opacity:1; fill:none" points="1119.7,1078.03 1042,1078.03 1042,1109.36 1119.7,1109.36 1119.7,1078.03 1080.85,1078.03 "/>
<polyline clip-path="url(#clip712)" style="stroke:#2b8bbd; stroke-linecap:round; stroke-linejoin:round; stroke-width:0; stroke-opacity:1; fill:none" points="1080.85,1015.37 1061.42,1015.37 1100.28,1015.37 1080.85,1015.37 1080.85,1078.03 "/>
<polyline clip-path="url(#clip712)" style="stroke:#2b8bbd; stroke-linecap:round; stroke-linejoin:round; stroke-width:0; stroke-opacity:1; fill:none" points="1574.2,1187.69 1554.78,1187.69 1593.63,1187.69 1574.2,1187.69 1574.2,1114.88 "/>
<polyline clip-path="url(#clip712)" style="stroke:#2b8bbd; stroke-linecap:round; stroke-linejoin:round; stroke-width:0; stroke-opacity:1; fill:none" points="1613.05,1114.88 1613.05,1088.06 1535.35,1088.06 1535.35,1114.88 1613.05,1114.88 1613.05,1088.06 "/>
<polyline clip-path="url(#clip712)" style="stroke:#2b8bbd; stroke-linecap:round; stroke-linejoin:round; stroke-width:0; stroke-opacity:1; fill:none" points="1613.05,1065.06 1535.35,1065.06 1535.35,1088.06 1613.05,1088.06 1613.05,1065.06 1574.2,1065.06 "/>
<polyline clip-path="url(#clip712)" style="stroke:#2b8bbd; stroke-linecap:round; stroke-linejoin:round; stroke-width:0; stroke-opacity:1; fill:none" points="1574.2,1011.41 1554.78,1011.41 1593.63,1011.41 1574.2,1011.41 1574.2,1065.06 "/>
</svg>
