<?xml version="1.0" encoding="utf-8"?>
<svg xmlns="http://www.w3.org/2000/svg" xmlns:xlink="http://www.w3.org/1999/xlink" width="425" height="350" viewBox="0 0 1700 1400">
<defs>
  <clipPath id="clip450">
    <rect x="0" y="0" width="1700" height="1400"/>
  </clipPath>
</defs>
<path clip-path="url(#clip450)" d="M0 1400 L1700 1400 L1700 0 L0 0  Z" fill="#ffffff" fill-rule="evenodd" fill-opacity="1"/>
<defs>
  <clipPath id="clip451">
    <rect x="340" y="0" width="1191" height="1191"/>
  </clipPath>
</defs>
<path clip-path="url(#clip450)" d="M251.6 1258.97 L1652.76 1258.97 L1652.76 47.2441 L251.6 47.2441  Z" fill="#ffffff" fill-rule="evenodd" fill-opacity="1"/>
<defs>
  <clipPath id="clip452">
    <rect x="251" y="47" width="1402" height="1213"/>
  </clipPath>
</defs>
<polyline clip-path="url(#clip452)" style="stroke:#000000; stroke-linecap:round; stroke-linejoin:round; stroke-width:2; stroke-opacity:0.1; fill:none" points="459.412,1258.97 459.412,47.2441 "/>
<polyline clip-path="url(#clip452)" style="stroke:#000000; stroke-linecap:round; stroke-linejoin:round; stroke-width:2; stroke-opacity:0.1; fill:none" points="952.178,1258.97 952.178,47.2441 "/>
<polyline clip-path="url(#clip452)" style="stroke:#000000; stroke-linecap:round; stroke-linejoin:round; stroke-width:2; stroke-opacity:0.1; fill:none" points="1444.94,1258.97 1444.94,47.2441 "/>
<polyline clip-path="url(#clip450)" style="stroke:#000000; stroke-linecap:round; stroke-linejoin:round; stroke-width:4; stroke-opacity:1; fill:none" points="251.6,1258.97 1652.76,1258.97 "/>
<polyline clip-path="url(#clip450)" style="stroke:#000000; stroke-linecap:round; stroke-linejoin:round; stroke-width:4; stroke-opacity:1; fill:none" points="251.6,47.2441 1652.76,47.2441 "/>
<polyline clip-path="url(#clip450)" style="stroke:#000000; stroke-linecap:round; stroke-linejoin:round; stroke-width:4; stroke-opacity:1; fill:none" points="459.412,1258.97 459.412,1240.07 "/>
<polyline clip-path="url(#clip450)" style="stroke:#000000; stroke-linecap:round; stroke-linejoin:round; stroke-width:4; stroke-opacity:1; fill:none" points="952.178,1258.97 952.178,1240.07 "/>
<polyline clip-path="url(#clip450)" style="stroke:#000000; stroke-linecap:round; stroke-linejoin:round; stroke-width:4; stroke-opacity:1; fill:none" points="1444.94,1258.97 1444.94,1240.07 "/>
<path clip-path="url(#clip450)" d="M406.571 1303.06 L408.017 1286.01 L454.372 1286.01 L455.818 1303.06 L453.928 1303.06 Q453.631 1299.65 453.335 1297.68 Q453.076 1295.72 452.409 1293.87 Q451.779 1291.98 450.963 1291.09 Q450.185 1290.16 448.666 1289.46 Q447.147 1288.72 445.183 1288.53 Q443.219 1288.35 440.255 1288.35 Q436.771 1288.35 435.919 1288.49 Q434.993 1288.72 434.77 1289.38 Q434.548 1290.01 434.548 1291.38 L434.548 1331.37 Q434.548 1332.89 434.844 1333.52 Q435.178 1334.11 436.92 1334.59 Q438.661 1335.04 442.515 1335.04 L445.553 1335.04 L445.553 1337.37 Q442.441 1337.15 431.139 1337.15 Q419.911 1337.15 416.799 1337.37 L416.799 1335.04 L419.837 1335.04 Q423.691 1335.04 425.432 1334.59 Q427.211 1334.11 427.508 1333.52 Q427.804 1332.89 427.804 1331.37 L427.804 1291.38 Q427.804 1290.31 427.73 1289.87 Q427.656 1289.42 427.322 1289.05 Q426.989 1288.64 426.211 1288.49 Q425.47 1288.35 422.135 1288.35 Q419.17 1288.35 417.169 1288.53 Q415.205 1288.72 413.686 1289.46 Q412.167 1290.16 411.352 1291.09 Q410.573 1291.98 409.906 1293.87 Q409.276 1295.72 409.017 1297.68 Q408.758 1299.65 408.461 1303.06 L406.571 1303.06 Z" fill="#000000" fill-rule="nonzero" fill-opacity="1" /><path clip-path="url(#clip450)" d="M461.265 1337.37 L461.265 1335.04 L463.08 1335.04 Q467.194 1335.04 468.12 1334.37 Q469.083 1333.66 469.083 1331.44 L469.083 1291.46 Q469.083 1289.27 468.12 1288.61 Q467.156 1287.9 463.08 1287.9 L461.265 1287.9 L461.265 1285.53 L489.019 1285.53 Q498.727 1285.53 505.471 1293.27 Q512.252 1301.02 512.252 1311.88 Q512.252 1322.51 505.434 1329.96 Q498.653 1337.37 489.019 1337.37 L461.265 1337.37 M475.605 1332 Q475.605 1333.96 476.161 1334.52 Q476.717 1335.04 479.311 1335.04 L486.981 1335.04 Q491.983 1335.04 495.355 1333 Q498.727 1330.92 500.469 1328.55 Q504.656 1322.84 504.656 1311.88 Q504.656 1300.35 500.728 1294.94 Q495.652 1287.9 486.907 1287.9 L479.311 1287.9 Q476.717 1287.9 476.161 1288.42 Q475.605 1288.94 475.605 1290.94 L475.605 1332 Z" fill="#000000" fill-rule="nonzero" fill-opacity="1" /><path clip-path="url(#clip450)" d="M729.335 1328.87 L729.335 1326.54 L731.151 1326.54 Q735.264 1326.54 736.19 1325.87 Q737.154 1325.17 737.154 1322.94 L737.154 1283.18 Q737.154 1281 736.19 1280.33 Q735.227 1279.62 731.151 1279.62 L729.335 1279.62 L729.335 1277.25 L770.985 1277.25 L773.097 1294.34 L771.207 1294.34 Q770.689 1290 769.985 1287.55 Q769.318 1285.07 767.761 1283.11 Q766.205 1281.14 763.574 1280.4 Q760.98 1279.62 756.719 1279.62 L747.603 1279.62 Q745.009 1279.62 744.454 1280.18 Q743.898 1280.7 743.898 1282.66 L743.898 1301.86 L750.42 1301.86 Q755.57 1301.86 757.015 1300 Q758.46 1298.15 758.46 1292.96 L760.35 1292.96 L760.35 1313.09 L758.46 1313.09 Q758.46 1307.86 757.015 1306.04 Q755.57 1304.19 750.42 1304.19 L743.898 1304.19 L743.898 1322.87 Q743.898 1324.46 744.157 1325.09 Q744.417 1325.68 746.01 1326.13 Q747.603 1326.54 751.087 1326.54 L753.606 1326.54 L753.606 1328.87 Q750.864 1328.65 740.859 1328.65 Q732.003 1328.65 729.335 1328.87 Z" fill="#000000" fill-rule="nonzero" fill-opacity="1" /><path clip-path="url(#clip450)" d="M779.1 1328.87 L779.1 1326.54 Q781.842 1326.54 783.584 1326.02 Q785.325 1325.46 785.955 1324.46 Q786.622 1323.42 786.771 1322.76 Q786.919 1322.05 786.919 1320.9 L786.919 1282.96 Q786.919 1280.77 785.955 1280.11 Q785.029 1279.4 780.916 1279.4 L779.1 1279.4 L779.1 1277.03 L791.921 1277.03 Q793.292 1277.03 793.663 1277.29 Q794.033 1277.51 794.589 1278.7 L811.042 1321.2 L827.642 1278.48 Q828.013 1277.4 828.346 1277.22 Q828.717 1277.03 830.162 1277.03 L842.983 1277.03 L842.983 1279.4 L841.167 1279.4 Q837.054 1279.4 836.091 1280.11 Q835.164 1280.77 835.164 1282.96 L835.164 1322.94 Q835.164 1325.13 836.091 1325.83 Q837.054 1326.54 841.167 1326.54 L842.983 1326.54 L842.983 1328.87 Q840.167 1328.65 832.126 1328.65 Q824.011 1328.65 821.195 1328.87 L821.195 1326.54 L823.047 1326.54 Q827.16 1326.54 828.087 1325.87 Q829.013 1325.17 829.013 1322.94 L829.013 1279.4 L828.939 1279.4 L810.3 1327.43 Q809.782 1328.87 808.929 1328.87 Q808.003 1328.87 807.41 1327.2 L789.105 1280 L789.031 1280 L789.031 1320.9 Q789.031 1322.05 789.179 1322.76 Q789.327 1323.42 789.957 1324.46 Q790.624 1325.46 792.366 1326.02 Q794.107 1326.54 796.849 1326.54 L796.849 1328.87 Q788.883 1328.65 787.956 1328.65 Q787.067 1328.65 779.1 1328.87 Z" fill="#000000" fill-rule="nonzero" fill-opacity="1" /><path clip-path="url(#clip450)" d="M853.358 1327.65 Q852.284 1326.43 852.284 1324.83 Q852.284 1323.24 853.321 1322.05 Q854.396 1320.83 856.323 1320.83 Q858.583 1320.83 859.88 1323.02 Q861.177 1325.17 861.177 1328.8 Q861.177 1332.72 859.584 1336.36 Q857.99 1340.02 856.434 1341.77 Q854.878 1343.51 854.248 1343.51 Q853.507 1343.51 853.507 1342.69 Q853.507 1342.4 854.025 1341.84 Q859.472 1335.99 859.51 1328.8 Q859.51 1327.65 859.361 1327.65 L859.176 1327.8 Q857.879 1328.87 856.323 1328.87 Q854.433 1328.87 853.358 1327.65 Z" fill="#000000" fill-rule="nonzero" fill-opacity="1" /><path clip-path="url(#clip450)" d="M929.74 1310 Q929.74 1313.55 927.913 1317.1 Q926.086 1320.65 923.1 1323.39 Q920.114 1326.1 916.038 1327.85 Q911.963 1329.61 907.712 1329.75 L904.971 1340.46 Q904.444 1343.06 904.163 1343.35 Q903.882 1343.63 903.46 1343.63 Q902.582 1343.63 902.582 1342.82 Q902.582 1342.57 904.163 1336.49 L905.849 1329.75 Q899.455 1329.4 895.731 1325.71 Q892.007 1322.02 892.007 1316.71 Q892.007 1313.13 893.834 1309.58 Q895.696 1306 898.682 1303.29 Q901.704 1300.59 905.779 1298.87 Q909.855 1297.15 914.036 1297 L918.217 1280.39 Q918.427 1279.44 918.603 1279.19 Q918.779 1278.95 919.306 1278.95 Q919.692 1278.95 919.903 1279.12 Q920.114 1279.3 920.114 1279.47 L920.149 1279.65 L919.938 1280.67 L915.898 1297 Q919.481 1297.25 922.257 1298.52 Q925.032 1299.78 926.613 1301.68 Q928.194 1303.54 928.967 1305.65 Q929.74 1307.76 929.74 1310 M913.614 1298.59 Q909.749 1298.94 906.482 1300.83 Q903.214 1302.73 901.106 1305.54 Q898.998 1308.32 897.839 1311.66 Q896.68 1314.96 896.68 1318.23 Q896.68 1320.79 897.523 1322.76 Q898.401 1324.73 899.842 1325.85 Q901.282 1326.94 902.863 1327.54 Q904.479 1328.1 906.201 1328.17 L913.614 1298.59 M925.032 1308.49 Q925.032 1303.93 922.397 1301.36 Q919.762 1298.8 915.476 1298.59 L908.063 1328.17 Q911.19 1327.92 913.93 1326.62 Q916.706 1325.29 918.708 1323.32 Q920.711 1321.32 922.152 1318.86 Q923.592 1316.36 924.295 1313.73 Q925.032 1311.06 925.032 1308.49 Z" fill="#000000" fill-rule="nonzero" fill-opacity="1" /><path clip-path="url(#clip450)" d="M964.03 1317.35 Q964.104 1316.42 965.549 1316.42 L1012.05 1316.42 Q1014.24 1316.42 1014.28 1317.27 Q1014.28 1318.2 1012.2 1318.16 L966.068 1318.16 Q964.03 1318.2 964.03 1317.35 M964.03 1302.52 Q964.03 1301.6 965.623 1301.64 L1011.98 1301.64 Q1014.24 1301.64 1014.28 1302.52 Q1014.28 1303.38 1012.35 1303.38 L965.549 1303.38 Q964.03 1303.38 964.03 1302.52 Z" fill="#000000" fill-rule="nonzero" fill-opacity="1" /><path clip-path="url(#clip450)" d="M1046.92 1304.6 Q1046.92 1293.45 1049.74 1287.37 Q1053.67 1278.33 1062.93 1278.33 Q1064.89 1278.33 1066.93 1278.88 Q1069.01 1279.4 1071.6 1281.44 Q1074.23 1283.48 1075.82 1286.81 Q1078.86 1293.26 1078.86 1304.6 Q1078.86 1315.68 1076.05 1321.72 Q1071.93 1330.54 1062.86 1330.54 Q1059.45 1330.54 1055.96 1328.8 Q1052.52 1327.06 1050.33 1322.87 Q1046.92 1316.61 1046.92 1304.6 M1053.22 1303.67 Q1053.22 1315.12 1054.04 1319.68 Q1054.96 1324.61 1057.48 1326.76 Q1060.04 1328.87 1062.86 1328.87 Q1065.89 1328.87 1068.41 1326.61 Q1070.97 1324.31 1071.75 1319.38 Q1072.6 1314.53 1072.56 1303.67 Q1072.56 1293.11 1071.82 1288.89 Q1070.82 1283.96 1068.15 1282 Q1065.52 1280 1062.86 1280 Q1061.85 1280 1060.78 1280.29 Q1059.74 1280.59 1058.22 1281.44 Q1056.7 1282.29 1055.52 1284.4 Q1054.37 1286.52 1053.81 1289.7 Q1053.22 1293.82 1053.22 1303.67 Z" fill="#000000" fill-rule="nonzero" fill-opacity="1" /><path clip-path="url(#clip450)" d="M1089.5 1327.65 Q1088.35 1326.43 1088.35 1324.83 Q1088.35 1323.24 1089.5 1322.09 Q1090.65 1320.9 1092.39 1320.9 Q1094.06 1320.9 1095.17 1322.02 Q1096.32 1323.09 1096.32 1324.87 Q1096.32 1326.61 1095.09 1327.76 Q1093.91 1328.87 1092.39 1328.87 Q1090.65 1328.87 1089.5 1327.65 Z" fill="#000000" fill-rule="nonzero" fill-opacity="1" /><path clip-path="url(#clip450)" d="M1105.95 1304.6 Q1105.95 1293.45 1108.77 1287.37 Q1112.69 1278.33 1121.96 1278.33 Q1123.92 1278.33 1125.96 1278.88 Q1128.04 1279.4 1130.63 1281.44 Q1133.26 1283.48 1134.85 1286.81 Q1137.89 1293.26 1137.89 1304.6 Q1137.89 1315.68 1135.08 1321.72 Q1130.96 1330.54 1121.88 1330.54 Q1118.47 1330.54 1114.99 1328.8 Q1111.55 1327.06 1109.36 1322.87 Q1105.95 1316.61 1105.95 1304.6 M1112.25 1303.67 Q1112.25 1315.12 1113.06 1319.68 Q1113.99 1324.61 1116.51 1326.76 Q1119.07 1328.87 1121.88 1328.87 Q1124.92 1328.87 1127.44 1326.61 Q1130 1324.31 1130.78 1319.38 Q1131.63 1314.53 1131.59 1303.67 Q1131.59 1293.11 1130.85 1288.89 Q1129.85 1283.96 1127.18 1282 Q1124.55 1280 1121.88 1280 Q1120.88 1280 1119.81 1280.29 Q1118.77 1280.59 1117.25 1281.44 Q1115.73 1282.29 1114.55 1284.4 Q1113.4 1286.52 1112.84 1289.7 Q1112.25 1293.82 1112.25 1303.67 Z" fill="#000000" fill-rule="nonzero" fill-opacity="1" /><path clip-path="url(#clip450)" d="M1144.71 1316.64 Q1144.71 1314.38 1145.93 1313.53 Q1147.16 1312.64 1148.45 1312.64 Q1150.19 1312.64 1151.19 1313.75 Q1152.23 1314.83 1152.23 1316.35 Q1152.23 1317.87 1151.19 1318.98 Q1150.19 1320.05 1148.45 1320.05 Q1147.6 1320.05 1147.16 1319.9 Q1148.16 1323.39 1151.19 1325.91 Q1154.27 1328.43 1158.31 1328.43 Q1163.39 1328.43 1166.42 1323.5 Q1168.24 1320.31 1168.24 1313.09 Q1168.24 1306.71 1166.87 1303.53 Q1164.76 1298.67 1160.42 1298.67 Q1154.27 1298.67 1150.64 1303.97 Q1150.19 1304.64 1149.68 1304.67 Q1148.93 1304.67 1148.75 1304.27 Q1148.6 1303.82 1148.6 1302.67 L1148.6 1280.22 Q1148.6 1278.4 1149.34 1278.4 Q1149.64 1278.4 1150.27 1278.62 Q1155.05 1280.74 1160.35 1280.77 Q1165.79 1280.77 1170.69 1278.55 Q1171.06 1278.33 1171.28 1278.33 Q1172.02 1278.33 1172.06 1279.18 Q1172.06 1279.48 1171.43 1280.37 Q1170.83 1281.22 1169.54 1282.37 Q1168.24 1283.48 1166.57 1284.55 Q1164.9 1285.63 1162.46 1286.37 Q1160.05 1287.07 1157.38 1287.07 Q1154.2 1287.07 1150.94 1286.07 L1150.94 1300.86 Q1154.86 1297 1160.57 1297 Q1166.65 1297 1170.83 1301.89 Q1175.02 1306.79 1175.02 1313.6 Q1175.02 1320.76 1170.06 1325.65 Q1165.13 1330.54 1158.46 1330.54 Q1152.38 1330.54 1148.53 1326.2 Q1144.71 1321.87 1144.71 1316.64 Z" fill="#000000" fill-rule="nonzero" fill-opacity="1" /><path clip-path="url(#clip450)" d="M1242.22 1328.87 L1242.22 1326.54 L1244.04 1326.54 Q1248.15 1326.54 1249.08 1325.87 Q1250.04 1325.17 1250.04 1322.94 L1250.04 1283.18 Q1250.04 1281 1249.08 1280.33 Q1248.11 1279.62 1244.04 1279.62 L1242.22 1279.62 L1242.22 1277.25 L1283.87 1277.25 L1285.98 1294.34 L1284.09 1294.34 Q1283.58 1290 1282.87 1287.55 Q1282.2 1285.07 1280.65 1283.11 Q1279.09 1281.14 1276.46 1280.4 Q1273.87 1279.62 1269.61 1279.62 L1260.49 1279.62 Q1257.9 1279.62 1257.34 1280.18 Q1256.78 1280.7 1256.78 1282.66 L1256.78 1301.86 L1263.31 1301.86 Q1268.46 1301.86 1269.9 1300 Q1271.35 1298.15 1271.35 1292.96 L1273.24 1292.96 L1273.24 1313.09 L1271.35 1313.09 Q1271.35 1307.86 1269.9 1306.04 Q1268.46 1304.19 1263.31 1304.19 L1256.78 1304.19 L1256.78 1322.87 Q1256.78 1324.46 1257.04 1325.09 Q1257.3 1325.68 1258.9 1326.13 Q1260.49 1326.54 1263.97 1326.54 L1266.49 1326.54 L1266.49 1328.87 Q1263.75 1328.65 1253.75 1328.65 Q1244.89 1328.65 1242.22 1328.87 Z" fill="#000000" fill-rule="nonzero" fill-opacity="1" /><path clip-path="url(#clip450)" d="M1291.99 1328.87 L1291.99 1326.54 Q1294.73 1326.54 1296.47 1326.02 Q1298.21 1325.46 1298.84 1324.46 Q1299.51 1323.42 1299.66 1322.76 Q1299.81 1322.05 1299.81 1320.9 L1299.81 1282.96 Q1299.81 1280.77 1298.84 1280.11 Q1297.92 1279.4 1293.8 1279.4 L1291.99 1279.4 L1291.99 1277.03 L1304.81 1277.03 Q1306.18 1277.03 1306.55 1277.29 Q1306.92 1277.51 1307.48 1278.7 L1323.93 1321.2 L1340.53 1278.48 Q1340.9 1277.4 1341.23 1277.22 Q1341.6 1277.03 1343.05 1277.03 L1355.87 1277.03 L1355.87 1279.4 L1354.05 1279.4 Q1349.94 1279.4 1348.98 1280.11 Q1348.05 1280.77 1348.05 1282.96 L1348.05 1322.94 Q1348.05 1325.13 1348.98 1325.83 Q1349.94 1326.54 1354.05 1326.54 L1355.87 1326.54 L1355.87 1328.87 Q1353.05 1328.65 1345.01 1328.65 Q1336.9 1328.65 1334.08 1328.87 L1334.08 1326.54 L1335.93 1326.54 Q1340.05 1326.54 1340.97 1325.87 Q1341.9 1325.17 1341.9 1322.94 L1341.9 1279.4 L1341.83 1279.4 L1323.19 1327.43 Q1322.67 1328.87 1321.82 1328.87 Q1320.89 1328.87 1320.3 1327.2 L1301.99 1280 L1301.92 1280 L1301.92 1320.9 Q1301.92 1322.05 1302.07 1322.76 Q1302.21 1323.42 1302.84 1324.46 Q1303.51 1325.46 1305.25 1326.02 Q1306.99 1326.54 1309.74 1326.54 L1309.74 1328.87 Q1301.77 1328.65 1300.84 1328.65 Q1299.95 1328.65 1291.99 1328.87 Z" fill="#000000" fill-rule="nonzero" fill-opacity="1" /><path clip-path="url(#clip450)" d="M1366.25 1327.65 Q1365.17 1326.43 1365.17 1324.83 Q1365.17 1323.24 1366.21 1322.05 Q1367.28 1320.83 1369.21 1320.83 Q1371.47 1320.83 1372.77 1323.02 Q1374.06 1325.17 1374.06 1328.8 Q1374.06 1332.72 1372.47 1336.36 Q1370.88 1340.02 1369.32 1341.77 Q1367.76 1343.51 1367.13 1343.51 Q1366.39 1343.51 1366.39 1342.69 Q1366.39 1342.4 1366.91 1341.84 Q1372.36 1335.99 1372.4 1328.8 Q1372.4 1327.65 1372.25 1327.65 L1372.06 1327.8 Q1370.77 1328.87 1369.21 1328.87 Q1367.32 1328.87 1366.25 1327.65 Z" fill="#000000" fill-rule="nonzero" fill-opacity="1" /><path clip-path="url(#clip450)" d="M1442.63 1310 Q1442.63 1313.55 1440.8 1317.1 Q1438.97 1320.65 1435.99 1323.39 Q1433 1326.1 1428.93 1327.85 Q1424.85 1329.61 1420.6 1329.75 L1417.86 1340.46 Q1417.33 1343.06 1417.05 1343.35 Q1416.77 1343.63 1416.35 1343.63 Q1415.47 1343.63 1415.47 1342.82 Q1415.47 1342.57 1417.05 1336.49 L1418.74 1329.75 Q1412.34 1329.4 1408.62 1325.71 Q1404.89 1322.02 1404.89 1316.71 Q1404.89 1313.13 1406.72 1309.58 Q1408.58 1306 1411.57 1303.29 Q1414.59 1300.59 1418.67 1298.87 Q1422.74 1297.15 1426.92 1297 L1431.1 1280.39 Q1431.31 1279.44 1431.49 1279.19 Q1431.67 1278.95 1432.19 1278.95 Q1432.58 1278.95 1432.79 1279.12 Q1433 1279.3 1433 1279.47 L1433.04 1279.65 L1432.83 1280.67 L1428.78 1297 Q1432.37 1297.25 1435.14 1298.52 Q1437.92 1299.78 1439.5 1301.68 Q1441.08 1303.54 1441.85 1305.65 Q1442.63 1307.76 1442.63 1310 M1426.5 1298.59 Q1422.64 1298.94 1419.37 1300.83 Q1416.1 1302.73 1413.99 1305.54 Q1411.89 1308.32 1410.73 1311.66 Q1409.57 1314.96 1409.57 1318.23 Q1409.57 1320.79 1410.41 1322.76 Q1411.29 1324.73 1412.73 1325.85 Q1414.17 1326.94 1415.75 1327.54 Q1417.37 1328.1 1419.09 1328.17 L1426.5 1298.59 M1437.92 1308.49 Q1437.92 1303.93 1435.28 1301.36 Q1432.65 1298.8 1428.36 1298.59 L1420.95 1328.17 Q1424.08 1327.92 1426.82 1326.62 Q1429.59 1325.29 1431.6 1323.32 Q1433.6 1321.32 1435.04 1318.86 Q1436.48 1316.36 1437.18 1313.73 Q1437.92 1311.06 1437.92 1308.49 Z" fill="#000000" fill-rule="nonzero" fill-opacity="1" /><path clip-path="url(#clip450)" d="M1476.92 1317.35 Q1476.99 1316.42 1478.44 1316.42 L1524.94 1316.42 Q1527.13 1316.42 1527.16 1317.27 Q1527.16 1318.2 1525.09 1318.16 L1478.95 1318.16 Q1476.92 1318.2 1476.92 1317.35 M1476.92 1302.52 Q1476.92 1301.6 1478.51 1301.64 L1524.87 1301.64 Q1527.13 1301.64 1527.16 1302.52 Q1527.16 1303.38 1525.24 1303.38 L1478.44 1303.38 Q1476.92 1303.38 1476.92 1302.52 Z" fill="#000000" fill-rule="nonzero" fill-opacity="1" /><path clip-path="url(#clip450)" d="M1559.81 1304.6 Q1559.81 1293.45 1562.62 1287.37 Q1566.55 1278.33 1575.82 1278.33 Q1577.78 1278.33 1579.82 1278.88 Q1581.89 1279.4 1584.49 1281.44 Q1587.12 1283.48 1588.71 1286.81 Q1591.75 1293.26 1591.75 1304.6 Q1591.75 1315.68 1588.93 1321.72 Q1584.82 1330.54 1575.74 1330.54 Q1572.33 1330.54 1568.85 1328.8 Q1565.4 1327.06 1563.22 1322.87 Q1559.81 1316.61 1559.81 1304.6 M1566.11 1303.67 Q1566.11 1315.12 1566.92 1319.68 Q1567.85 1324.61 1570.37 1326.76 Q1572.93 1328.87 1575.74 1328.87 Q1578.78 1328.87 1581.3 1326.61 Q1583.86 1324.31 1584.64 1319.38 Q1585.49 1314.53 1585.45 1303.67 Q1585.45 1293.11 1584.71 1288.89 Q1583.71 1283.96 1581.04 1282 Q1578.41 1280 1575.74 1280 Q1574.74 1280 1573.67 1280.29 Q1572.63 1280.59 1571.11 1281.44 Q1569.59 1282.29 1568.41 1284.4 Q1567.26 1286.52 1566.7 1289.7 Q1566.11 1293.82 1566.11 1303.67 Z" fill="#000000" fill-rule="nonzero" fill-opacity="1" /><path clip-path="url(#clip450)" d="M1602.38 1327.65 Q1601.24 1326.43 1601.24 1324.83 Q1601.24 1323.24 1602.38 1322.09 Q1603.53 1320.9 1605.28 1320.9 Q1606.94 1320.9 1608.05 1322.02 Q1609.2 1323.09 1609.2 1324.87 Q1609.2 1326.61 1607.98 1327.76 Q1606.79 1328.87 1605.28 1328.87 Q1603.53 1328.87 1602.38 1327.65 Z" fill="#000000" fill-rule="nonzero" fill-opacity="1" /><path clip-path="url(#clip450)" d="M1622.62 1285.55 L1622.62 1283.18 Q1631.73 1283.18 1636.44 1278.33 Q1637.74 1278.33 1637.96 1278.62 Q1638.18 1278.92 1638.18 1280.29 L1638.18 1322.87 Q1638.18 1325.13 1639.29 1325.83 Q1640.4 1326.54 1645.26 1326.54 L1647.67 1326.54 L1647.67 1328.87 Q1645 1328.65 1635.36 1328.65 Q1625.73 1328.65 1623.1 1328.87 L1623.1 1326.54 L1625.51 1326.54 Q1630.29 1326.54 1631.44 1325.87 Q1632.58 1325.17 1632.58 1322.87 L1632.58 1283.55 Q1628.62 1285.55 1622.62 1285.55 Z" fill="#000000" fill-rule="nonzero" fill-opacity="1" /><polyline clip-path="url(#clip452)" style="stroke:#000000; stroke-linecap:round; stroke-linejoin:round; stroke-width:2; stroke-opacity:0.1; fill:none" points="251.6,1258.97 1652.76,1258.97 "/>
<polyline clip-path="url(#clip452)" style="stroke:#000000; stroke-linecap:round; stroke-linejoin:round; stroke-width:2; stroke-opacity:0.1; fill:none" points="251.6,1016.63 1652.76,1016.63 "/>
<polyline clip-path="url(#clip452)" style="stroke:#000000; stroke-linecap:round; stroke-linejoin:round; stroke-width:2; stroke-opacity:0.1; fill:none" points="251.6,774.28 1652.76,774.28 "/>
<polyline clip-path="url(#clip452)" style="stroke:#000000; stroke-linecap:round; stroke-linejoin:round; stroke-width:2; stroke-opacity:0.1; fill:none" points="251.6,531.935 1652.76,531.935 "/>
<polyline clip-path="url(#clip452)" style="stroke:#000000; stroke-linecap:round; stroke-linejoin:round; stroke-width:2; stroke-opacity:0.1; fill:none" points="251.6,289.589 1652.76,289.589 "/>
<polyline clip-path="url(#clip452)" style="stroke:#000000; stroke-linecap:round; stroke-linejoin:round; stroke-width:2; stroke-opacity:0.1; fill:none" points="251.6,47.2441 1652.76,47.2441 "/>
<polyline clip-path="url(#clip450)" style="stroke:#000000; stroke-linecap:round; stroke-linejoin:round; stroke-width:4; stroke-opacity:1; fill:none" points="251.6,1258.97 251.6,47.2441 "/>
<polyline clip-path="url(#clip450)" style="stroke:#000000; stroke-linecap:round; stroke-linejoin:round; stroke-width:4; stroke-opacity:1; fill:none" points="1652.76,1258.97 1652.76,47.2441 "/>
<polyline clip-path="url(#clip450)" style="stroke:#000000; stroke-linecap:round; stroke-linejoin:round; stroke-width:4; stroke-opacity:1; fill:none" points="251.6,1258.97 270.498,1258.97 "/>
<polyline clip-path="url(#clip450)" style="stroke:#000000; stroke-linecap:round; stroke-linejoin:round; stroke-width:4; stroke-opacity:1; fill:none" points="251.6,1016.63 270.498,1016.63 "/>
<polyline clip-path="url(#clip450)" style="stroke:#000000; stroke-linecap:round; stroke-linejoin:round; stroke-width:4; stroke-opacity:1; fill:none" points="251.6,774.28 270.498,774.28 "/>
<polyline clip-path="url(#clip450)" style="stroke:#000000; stroke-linecap:round; stroke-linejoin:round; stroke-width:4; stroke-opacity:1; fill:none" points="251.6,531.935 270.498,531.935 "/>
<polyline clip-path="url(#clip450)" style="stroke:#000000; stroke-linecap:round; stroke-linejoin:round; stroke-width:4; stroke-opacity:1; fill:none" points="251.6,289.589 270.498,289.589 "/>
<polyline clip-path="url(#clip450)" style="stroke:#000000; stroke-linecap:round; stroke-linejoin:round; stroke-width:4; stroke-opacity:1; fill:none" points="251.6,47.2441 270.498,47.2441 "/>
<path clip-path="url(#clip450)" d="M135.13 1260.62 Q135.13 1249.47 137.946 1243.39 Q141.874 1234.35 151.138 1234.35 Q153.102 1234.35 155.14 1234.9 Q157.215 1235.42 159.809 1237.46 Q162.44 1239.5 164.033 1242.83 Q167.072 1249.28 167.072 1260.62 Q167.072 1271.7 164.255 1277.74 Q160.142 1286.56 151.064 1286.56 Q147.655 1286.56 144.172 1284.82 Q140.725 1283.07 138.539 1278.89 Q135.13 1272.63 135.13 1260.62 M141.429 1259.69 Q141.429 1271.14 142.245 1275.7 Q143.171 1280.63 145.691 1282.78 Q148.248 1284.89 151.064 1284.89 Q154.102 1284.89 156.622 1282.63 Q159.179 1280.33 159.957 1275.4 Q160.809 1270.55 160.772 1259.69 Q160.772 1249.13 160.031 1244.91 Q159.031 1239.98 156.363 1238.02 Q153.732 1236.01 151.064 1236.01 Q150.063 1236.01 148.989 1236.31 Q147.951 1236.61 146.432 1237.46 Q144.913 1238.31 143.727 1240.42 Q142.578 1242.54 142.022 1245.72 Q141.429 1249.84 141.429 1259.69 Z" fill="#000000" fill-rule="nonzero" fill-opacity="1" /><path clip-path="url(#clip450)" d="M177.706 1283.67 Q176.558 1282.44 176.558 1280.85 Q176.558 1279.26 177.706 1278.11 Q178.855 1276.92 180.597 1276.92 Q182.264 1276.92 183.376 1278.04 Q184.524 1279.11 184.524 1280.89 Q184.524 1282.63 183.302 1283.78 Q182.116 1284.89 180.597 1284.89 Q178.855 1284.89 177.706 1283.67 Z" fill="#000000" fill-rule="nonzero" fill-opacity="1" /><path clip-path="url(#clip450)" d="M194.159 1260.62 Q194.159 1249.47 196.975 1243.39 Q200.903 1234.35 210.167 1234.35 Q212.13 1234.35 214.168 1234.9 Q216.244 1235.42 218.837 1237.46 Q221.468 1239.5 223.062 1242.83 Q226.1 1249.28 226.1 1260.62 Q226.1 1271.7 223.284 1277.74 Q219.171 1286.56 210.092 1286.56 Q206.683 1286.56 203.2 1284.82 Q199.754 1283.07 197.568 1278.89 Q194.159 1272.63 194.159 1260.62 M200.458 1259.69 Q200.458 1271.14 201.273 1275.7 Q202.2 1280.63 204.719 1282.78 Q207.276 1284.89 210.092 1284.89 Q213.131 1284.89 215.651 1282.63 Q218.207 1280.33 218.986 1275.4 Q219.838 1270.55 219.801 1259.69 Q219.801 1249.13 219.06 1244.91 Q218.059 1239.98 215.391 1238.02 Q212.76 1236.01 210.092 1236.01 Q209.092 1236.01 208.017 1236.31 Q206.98 1236.61 205.461 1237.46 Q203.941 1238.31 202.756 1240.42 Q201.607 1242.54 201.051 1245.72 Q200.458 1249.84 200.458 1259.69 Z" fill="#000000" fill-rule="nonzero" fill-opacity="1" /><path clip-path="url(#clip450)" d="M135.945 1018.27 Q135.945 1007.12 138.761 1001.04 Q142.689 992.002 151.953 992.002 Q153.917 992.002 155.955 992.558 Q158.03 993.077 160.624 995.115 Q163.255 997.153 164.848 1000.49 Q167.887 1006.94 167.887 1018.27 Q167.887 1029.35 165.071 1035.39 Q160.957 1044.21 151.879 1044.21 Q148.47 1044.21 144.987 1042.47 Q141.541 1040.73 139.354 1036.54 Q135.945 1030.28 135.945 1018.27 M142.245 1017.35 Q142.245 1028.8 143.06 1033.36 Q143.986 1038.28 146.506 1040.43 Q149.063 1042.55 151.879 1042.55 Q154.917 1042.55 157.437 1040.28 Q159.994 1037.99 160.772 1033.06 Q161.624 1028.2 161.587 1017.35 Q161.587 1006.79 160.846 1002.56 Q159.846 997.634 157.178 995.67 Q154.547 993.669 151.879 993.669 Q150.878 993.669 149.804 993.966 Q148.766 994.262 147.247 995.115 Q145.728 995.967 144.542 998.079 Q143.393 1000.19 142.838 1003.38 Q142.245 1007.49 142.245 1017.35 Z" fill="#000000" fill-rule="nonzero" fill-opacity="1" /><path clip-path="url(#clip450)" d="M178.522 1041.32 Q177.373 1040.1 177.373 1038.51 Q177.373 1036.91 178.522 1035.76 Q179.67 1034.58 181.412 1034.58 Q183.079 1034.58 184.191 1035.69 Q185.34 1036.76 185.34 1038.54 Q185.34 1040.28 184.117 1041.43 Q182.931 1042.55 181.412 1042.55 Q179.67 1042.55 178.522 1041.32 Z" fill="#000000" fill-rule="nonzero" fill-opacity="1" /><path clip-path="url(#clip450)" d="M195.789 1042.55 Q195.789 1041.17 195.9 1040.77 Q196.049 1040.36 196.641 1039.73 L211.204 1023.5 Q219.171 1014.53 219.171 1006.71 Q219.171 1001.64 216.503 998.005 Q213.872 994.373 209.018 994.373 Q205.683 994.373 202.867 996.411 Q200.05 998.45 198.754 1002.08 Q198.976 1002.01 199.754 1002.01 Q201.644 1002.01 202.681 1003.19 Q203.756 1004.38 203.756 1005.97 Q203.756 1008.01 202.422 1009.01 Q201.125 1009.97 199.828 1009.97 Q199.309 1009.97 198.605 1009.86 Q197.938 1009.75 196.864 1008.71 Q195.789 1007.64 195.789 1005.75 Q195.789 1000.45 199.791 996.226 Q203.83 992.002 209.981 992.002 Q216.948 992.002 221.505 996.152 Q226.1 1000.27 226.1 1006.71 Q226.1 1008.97 225.396 1011.05 Q224.729 1013.09 223.803 1014.68 Q222.913 1016.27 220.468 1018.83 Q218.022 1021.39 216.058 1023.2 Q214.094 1025.02 209.685 1028.87 L201.644 1036.69 L215.317 1036.69 Q221.987 1036.69 222.506 1036.1 Q223.247 1035.02 224.173 1029.35 L226.1 1029.35 L223.951 1042.55 L195.789 1042.55 Z" fill="#000000" fill-rule="nonzero" fill-opacity="1" /><path clip-path="url(#clip450)" d="M134.278 775.929 Q134.278 764.775 137.094 758.698 Q141.022 749.657 150.286 749.657 Q152.249 749.657 154.288 750.213 Q156.363 750.731 158.956 752.769 Q161.587 754.807 163.181 758.142 Q166.219 764.59 166.219 775.929 Q166.219 787.008 163.403 793.048 Q159.29 801.867 150.211 801.867 Q146.802 801.867 143.319 800.126 Q139.873 798.384 137.687 794.197 Q134.278 787.935 134.278 775.929 M140.577 775.002 Q140.577 786.452 141.392 791.01 Q142.319 795.938 144.838 798.088 Q147.395 800.2 150.211 800.2 Q153.25 800.2 155.77 797.939 Q158.327 795.642 159.105 790.714 Q159.957 785.859 159.92 775.002 Q159.92 764.442 159.179 760.217 Q158.178 755.289 155.51 753.325 Q152.879 751.324 150.211 751.324 Q149.211 751.324 148.136 751.621 Q147.099 751.917 145.58 752.769 Q144.06 753.622 142.875 755.734 Q141.726 757.846 141.17 761.033 Q140.577 765.146 140.577 775.002 Z" fill="#000000" fill-rule="nonzero" fill-opacity="1" /><path clip-path="url(#clip450)" d="M176.854 798.977 Q175.705 797.754 175.705 796.161 Q175.705 794.567 176.854 793.419 Q178.003 792.233 179.744 792.233 Q181.412 792.233 182.523 793.345 Q183.672 794.419 183.672 796.198 Q183.672 797.939 182.449 799.088 Q181.264 800.2 179.744 800.2 Q178.003 800.2 176.854 798.977 Z" fill="#000000" fill-rule="nonzero" fill-opacity="1" /><path clip-path="url(#clip450)" d="M192.454 787.675 L192.454 785.341 L215.762 749.731 Q216.355 748.804 217.281 748.841 Q218.133 748.841 218.319 749.175 Q218.504 749.508 218.504 750.805 L218.504 785.341 L226.1 785.341 L226.1 787.675 L218.504 787.675 L218.504 794.271 Q218.504 796.457 219.393 797.161 Q220.32 797.865 224.247 797.865 L225.841 797.865 L225.841 800.2 Q222.728 799.977 215.54 799.977 Q208.388 799.977 205.275 800.2 L205.275 797.865 L206.869 797.865 Q210.796 797.865 211.723 797.198 Q212.649 796.494 212.649 794.271 L212.649 787.675 L192.454 787.675 M194.603 785.341 L213.094 785.341 L213.094 757.031 L194.603 785.341 Z" fill="#000000" fill-rule="nonzero" fill-opacity="1" /><path clip-path="url(#clip450)" d="M135.352 533.583 Q135.352 522.43 138.169 516.353 Q142.096 507.311 151.36 507.311 Q153.324 507.311 155.362 507.867 Q157.437 508.386 160.031 510.424 Q162.662 512.462 164.255 515.797 Q167.294 522.245 167.294 533.583 Q167.294 544.663 164.478 550.703 Q160.365 559.522 151.286 559.522 Q147.877 559.522 144.394 557.78 Q140.948 556.039 138.761 551.852 Q135.352 545.589 135.352 533.583 M141.652 532.657 Q141.652 544.107 142.467 548.665 Q143.393 553.593 145.913 555.742 Q148.47 557.855 151.286 557.855 Q154.325 557.855 156.844 555.594 Q159.401 553.297 160.179 548.368 Q161.032 543.514 160.994 532.657 Q160.994 522.096 160.253 517.872 Q159.253 512.944 156.585 510.98 Q153.954 508.979 151.286 508.979 Q150.286 508.979 149.211 509.275 Q148.173 509.572 146.654 510.424 Q145.135 511.276 143.949 513.389 Q142.8 515.501 142.245 518.687 Q141.652 522.8 141.652 532.657 Z" fill="#000000" fill-rule="nonzero" fill-opacity="1" /><path clip-path="url(#clip450)" d="M177.929 556.632 Q176.78 555.409 176.78 553.816 Q176.78 552.222 177.929 551.073 Q179.077 549.888 180.819 549.888 Q182.486 549.888 183.598 550.999 Q184.747 552.074 184.747 553.853 Q184.747 555.594 183.524 556.743 Q182.338 557.855 180.819 557.855 Q179.077 557.855 177.929 556.632 Z" fill="#000000" fill-rule="nonzero" fill-opacity="1" /><path clip-path="url(#clip450)" d="M194.603 533.88 Q194.603 521.948 200.68 514.648 Q206.757 507.311 214.576 507.311 Q219.134 507.311 221.654 509.646 Q224.21 511.943 224.21 515.501 Q224.21 517.465 223.062 518.317 Q221.913 519.169 220.727 519.169 Q219.356 519.169 218.282 518.243 Q217.207 517.316 217.207 515.649 Q217.207 512.24 221.394 512.24 Q219.43 509.201 214.724 509.201 Q213.279 509.201 211.797 509.646 Q210.315 510.054 208.388 511.462 Q206.461 512.87 204.979 515.093 Q203.497 517.316 202.459 521.504 Q201.422 525.691 201.422 531.138 L201.422 532.954 Q204.534 525.431 210.908 525.468 Q217.281 525.468 221.691 530.323 Q226.1 535.177 226.1 542.366 Q226.1 549.739 221.505 554.631 Q216.911 559.522 210.463 559.522 Q207.573 559.522 204.942 558.299 Q202.348 557.113 199.902 554.371 Q197.494 551.629 196.049 546.367 Q194.603 541.106 194.603 533.88 M201.57 540.698 Q201.57 548.146 202.941 551.703 Q203.163 552.296 203.645 553.112 Q204.164 553.927 205.016 555.001 Q205.905 556.039 207.35 556.743 Q208.795 557.41 210.463 557.41 Q215.54 557.41 217.985 552.482 Q219.282 549.739 219.282 542.291 Q219.282 534.695 217.911 531.916 Q215.577 527.21 210.834 527.21 Q207.647 527.21 205.423 529.396 Q203.237 531.583 202.385 534.51 Q201.57 537.437 201.57 540.698 Z" fill="#000000" fill-rule="nonzero" fill-opacity="1" /><path clip-path="url(#clip450)" d="M135.352 291.238 Q135.352 280.085 138.169 274.008 Q142.096 264.966 151.36 264.966 Q153.324 264.966 155.362 265.522 Q157.437 266.041 160.031 268.079 Q162.662 270.117 164.255 273.452 Q167.294 279.899 167.294 291.238 Q167.294 302.318 164.478 308.358 Q160.365 317.177 151.286 317.177 Q147.877 317.177 144.394 315.435 Q140.948 313.694 138.761 309.506 Q135.352 303.244 135.352 291.238 M141.652 290.312 Q141.652 301.762 142.467 306.32 Q143.393 311.248 145.913 313.397 Q148.47 315.509 151.286 315.509 Q154.325 315.509 156.844 313.249 Q159.401 310.952 160.179 306.023 Q161.032 301.169 160.994 290.312 Q160.994 279.751 160.253 275.527 Q159.253 270.599 156.585 268.635 Q153.954 266.634 151.286 266.634 Q150.286 266.634 149.211 266.93 Q148.173 267.227 146.654 268.079 Q145.135 268.931 143.949 271.043 Q142.8 273.155 142.245 276.342 Q141.652 280.455 141.652 290.312 Z" fill="#000000" fill-rule="nonzero" fill-opacity="1" /><path clip-path="url(#clip450)" d="M177.929 314.287 Q176.78 313.064 176.78 311.47 Q176.78 309.877 177.929 308.728 Q179.077 307.542 180.819 307.542 Q182.486 307.542 183.598 308.654 Q184.747 309.729 184.747 311.507 Q184.747 313.249 183.524 314.398 Q182.338 315.509 180.819 315.509 Q179.077 315.509 177.929 314.287 Z" fill="#000000" fill-rule="nonzero" fill-opacity="1" /><path clip-path="url(#clip450)" d="M194.603 304.059 Q194.603 295.574 205.535 290.09 Q200.829 286.903 199.976 285.976 Q196.641 282.271 196.641 277.639 Q196.641 272.34 200.643 268.672 Q204.682 264.966 210.389 264.966 Q215.836 264.966 219.949 268.116 Q224.062 271.266 224.062 276.268 Q224.062 283.308 214.873 288.052 Q220.95 291.831 222.395 293.425 Q226.1 297.538 226.1 302.762 Q226.1 308.839 221.431 313.027 Q216.762 317.177 210.315 317.177 Q204.015 317.177 199.309 313.508 Q194.603 309.84 194.603 304.059 M198.383 304.059 Q198.383 308.765 201.903 311.915 Q205.461 315.065 210.389 315.065 Q215.169 315.065 218.726 312.323 Q222.321 309.581 222.321 305.504 Q222.321 303.911 221.765 302.54 Q221.246 301.169 220.171 300.094 Q219.134 298.983 218.467 298.501 Q217.837 297.982 216.614 297.13 L207.276 291.238 Q198.383 296.167 198.383 304.059 M199.976 274.675 Q199.976 278.306 203.793 280.826 L213.205 286.903 Q220.727 282.493 220.727 276.268 Q220.727 272.229 217.652 269.561 Q214.576 266.856 210.315 266.856 Q206.128 266.856 203.052 269.079 Q199.976 271.266 199.976 274.675 Z" fill="#000000" fill-rule="nonzero" fill-opacity="1" /><path clip-path="url(#clip450)" d="M138.91 29.8468 L138.91 27.4752 Q148.025 27.4752 152.731 22.621 Q154.028 22.621 154.25 22.9175 Q154.473 23.2139 154.473 24.5849 L154.473 67.1612 Q154.473 69.4215 155.584 70.1256 Q156.696 70.8296 161.55 70.8296 L163.959 70.8296 L163.959 73.1641 Q161.291 72.9418 151.657 72.9418 Q142.022 72.9418 139.391 73.1641 L139.391 70.8296 L141.8 70.8296 Q146.58 70.8296 147.729 70.1626 Q148.877 69.4586 148.877 67.1612 L148.877 27.8458 Q144.913 29.8468 138.91 29.8468 Z" fill="#000000" fill-rule="nonzero" fill-opacity="1" /><path clip-path="url(#clip450)" d="M177.706 71.9413 Q176.558 70.7185 176.558 69.1251 Q176.558 67.5317 177.706 66.383 Q178.855 65.1973 180.597 65.1973 Q182.264 65.1973 183.376 66.3089 Q184.524 67.3835 184.524 69.1622 Q184.524 70.9037 183.302 72.0524 Q182.116 73.1641 180.597 73.1641 Q178.855 73.1641 177.706 71.9413 Z" fill="#000000" fill-rule="nonzero" fill-opacity="1" /><path clip-path="url(#clip450)" d="M194.159 48.893 Q194.159 37.7395 196.975 31.6625 Q200.903 22.621 210.167 22.621 Q212.13 22.621 214.168 23.1768 Q216.244 23.6956 218.837 25.7336 Q221.468 27.7717 223.062 31.1066 Q226.1 37.5542 226.1 48.893 Q226.1 59.9725 223.284 66.0125 Q219.171 74.8316 210.092 74.8316 Q206.683 74.8316 203.2 73.09 Q199.754 71.3484 197.568 67.1612 Q194.159 60.8989 194.159 48.893 M200.458 47.9667 Q200.458 59.4167 201.273 63.9744 Q202.2 68.9028 204.719 71.052 Q207.276 73.1641 210.092 73.1641 Q213.131 73.1641 215.651 70.9037 Q218.207 68.6063 218.986 63.678 Q219.838 58.8238 219.801 47.9667 Q219.801 37.406 219.06 33.1817 Q218.059 28.2534 215.391 26.2895 Q212.76 24.2885 210.092 24.2885 Q209.092 24.2885 208.017 24.5849 Q206.98 24.8814 205.461 25.7336 Q203.941 26.5859 202.756 28.698 Q201.607 30.8102 201.051 33.9969 Q200.458 38.11 200.458 47.9667 Z" fill="#000000" fill-rule="nonzero" fill-opacity="1" /><path clip-path="url(#clip450)" d="M51.5759 1177.45 Q45.0543 1177.45 40.6818 1174.12 Q36.3093 1170.78 36.3093 1166.3 Q36.3093 1163.56 38.7549 1160.85 Q44.6096 1154.7 44.5725 1146.66 Q44.5725 1137.55 37.3839 1132.25 Q36.3093 1131.32 36.3093 1130.65 Q36.3093 1130.06 36.791 1129.62 Q37.2356 1129.13 37.8285 1129.13 Q38.2732 1129.13 39.1996 1129.73 L96.3384 1168.12 Q97.4871 1168.97 97.4871 1169.64 Q97.4871 1170.23 97.0054 1170.71 Q96.5608 1171.16 95.9679 1171.16 Q95.4491 1171.16 94.4486 1170.49 L43.6832 1136.4 L43.6091 1136.47 Q46.2771 1140.4 46.24 1146.59 Q46.24 1152.44 43.0533 1158.04 Q46.9811 1156.44 51.6501 1156.44 Q58.0235 1156.44 62.4701 1159.3 Q66.8797 1162.15 66.8797 1166.3 Q66.8797 1170.78 62.5813 1174.12 Q58.2458 1177.45 51.5759 1177.45 M45.3877 1172.23 Q48.0557 1172.75 51.6501 1172.75 Q55.2073 1172.75 57.8753 1172.23 Q60.5062 1171.71 61.8772 1170.97 Q63.2483 1170.19 64.0635 1169.15 Q64.8416 1168.12 65.0269 1167.49 Q65.2122 1166.86 65.2122 1166.23 Q65.2122 1163.11 61.3585 1160.74 Q57.4677 1158.33 51.5759 1158.33 Q45.7954 1158.33 41.9046 1160.74 Q37.9767 1163.11 37.9767 1166.23 Q37.9767 1166.89 38.162 1167.56 Q38.3473 1168.19 39.1625 1169.19 Q39.9407 1170.19 41.3117 1170.97 Q42.6827 1171.71 45.3877 1172.23 M82.1463 1143.85 Q75.6247 1143.85 71.2522 1140.51 Q66.8797 1137.18 66.8797 1132.69 Q66.8797 1128.58 71.3263 1125.73 Q75.7729 1122.84 82.2205 1122.84 Q88.5939 1122.84 93.0405 1125.69 Q97.4871 1128.5 97.4871 1132.69 Q97.4871 1137.18 93.1517 1140.51 Q88.8163 1143.85 82.1463 1143.85 M75.9582 1138.62 Q78.6632 1139.14 82.2205 1139.14 Q85.7777 1139.14 88.4457 1138.62 Q91.1137 1138.06 92.4847 1137.32 Q93.8187 1136.55 94.5968 1135.55 Q95.4121 1134.51 95.5973 1133.88 Q95.8197 1133.21 95.8197 1132.62 Q95.8197 1129.51 91.9659 1127.13 Q88.0752 1124.73 82.1463 1124.73 Q76.3658 1124.73 72.475 1127.13 Q68.5471 1129.51 68.5471 1132.62 Q68.5471 1133.28 68.7695 1133.95 Q68.9548 1134.58 69.77 1135.58 Q70.5481 1136.55 71.9192 1137.32 Q73.2531 1138.06 75.9582 1138.62 Z" fill="#000000" fill-rule="nonzero" fill-opacity="1" /><path clip-path="url(#clip450)" d="M92.2253 1090.78 L82.2205 1090.78 Q81.3682 1090.78 81.0718 1090.75 Q80.7753 1090.71 80.553 1090.49 Q80.3307 1090.26 80.3307 1089.82 Q80.3307 1089.3 80.553 1089.12 Q80.7753 1088.89 81.6276 1088.74 Q86.8523 1087.6 89.6315 1085.15 Q92.3735 1082.67 92.3735 1078.18 Q92.3735 1073.92 90.4837 1071.77 Q88.5939 1069.62 85.4813 1069.62 Q79.923 1069.62 78.515 1077.52 Q77.5886 1082.07 76.9957 1083.96 Q76.3658 1085.85 74.9947 1087.52 Q72.3268 1090.78 68.5471 1090.78 Q64.7675 1090.78 61.9884 1087.93 Q59.2093 1085.04 59.2093 1078.67 Q59.2093 1074.4 61.3585 1071.51 Q60.6915 1070.66 60.1357 1070.22 Q59.2093 1069.22 59.2093 1068.7 Q59.2093 1068.11 59.6169 1067.99 Q59.9874 1067.88 61.062 1067.88 L68.6954 1067.88 Q69.5476 1067.88 69.8441 1067.92 Q70.1405 1067.96 70.3628 1068.18 Q70.5481 1068.4 70.5481 1068.88 Q70.5481 1069.74 69.8441 1069.77 Q60.6544 1070.37 60.6544 1078.67 Q60.6544 1083.15 62.396 1085.15 Q64.1005 1087.15 66.435 1087.15 Q67.7319 1087.15 68.7324 1086.56 Q69.6959 1085.93 70.2887 1085.15 Q70.8446 1084.34 71.4004 1082.85 Q71.9192 1081.37 72.1044 1080.48 Q72.2897 1079.56 72.6603 1077.81 Q73.809 1071.74 76.2917 1069.18 Q79.4784 1065.99 83.5174 1065.99 Q88.001 1065.99 91.0396 1069.03 Q94.0781 1072.07 94.0781 1078.18 Q94.0781 1083.11 90.7802 1086.56 Q91.2248 1087 91.6324 1087.34 Q92.003 1087.67 92.1512 1087.82 Q92.2994 1087.93 92.4106 1087.97 Q92.4847 1088 92.5588 1088.08 Q94.0781 1089.6 94.0781 1089.97 Q94.0781 1090.56 93.6705 1090.67 Q93.2999 1090.78 92.2253 1090.78 Z" fill="#000000" fill-rule="nonzero" fill-opacity="1" /><path clip-path="url(#clip450)" d="M89.1498 1056.32 Q84.1844 1061.32 76.9957 1061.32 Q69.77 1061.32 64.5081 1056.43 Q59.2093 1051.5 59.2093 1044.46 Q59.2093 1037.57 64.4711 1032.64 Q69.6959 1027.68 76.9957 1027.68 Q84.1473 1027.68 89.1127 1032.68 Q94.0781 1037.65 94.0781 1044.54 Q94.0781 1051.28 89.1498 1056.32 M76.3658 1055.02 Q83.7397 1055.02 87.0747 1053.1 Q92.1512 1050.13 92.1512 1044.46 Q92.1512 1041.65 90.632 1039.31 Q89.1127 1036.94 86.5559 1035.64 Q83.2209 1033.98 76.3658 1033.98 Q69.0659 1033.98 65.8421 1035.98 Q60.9138 1038.94 60.9138 1044.54 Q60.9138 1046.98 62.2107 1049.39 Q63.4706 1051.76 65.9904 1053.21 Q69.3253 1055.02 76.3658 1055.02 Z" fill="#000000" fill-rule="nonzero" fill-opacity="1" /><path clip-path="url(#clip450)" d="M93.2258 1022.97 L90.8913 1022.97 Q90.8913 1018.93 90.4096 1018.01 Q89.8909 1017.08 87.4452 1017.08 L47.9816 1017.08 Q45.1654 1017.08 44.4614 1018.08 Q43.7573 1019.04 43.7573 1022.97 L41.3858 1022.97 L40.5706 1012.08 L87.4452 1012.08 Q89.8909 1012.08 90.4096 1011.11 Q90.8913 1010.15 90.8913 1006.15 L93.2258 1006.15 Q93.2258 1007.08 93.1517 1009 Q93.0776 1010.93 93.0405 1012.34 Q93.0035 1013.75 93.0035 1014.56 Q93.0035 1015.45 93.2258 1022.97 Z" fill="#000000" fill-rule="nonzero" fill-opacity="1" /><path clip-path="url(#clip450)" d="M62.8777 1002.04 L60.5062 1002.04 L59.691 990.882 L84.8884 990.882 Q86.7041 990.882 87.7787 990.734 Q88.8163 990.586 90.0391 989.993 Q91.2619 989.363 91.8177 987.955 Q92.3735 986.51 92.3735 984.212 Q92.3735 980.099 89.0015 977.58 Q85.6295 975.023 80.6271 975.023 L67.102 975.023 Q64.2858 975.023 63.5818 976.023 Q62.8777 977.024 62.8777 980.952 L60.5062 980.952 L59.691 969.798 L86.63 969.798 Q89.4462 969.798 90.1873 968.835 Q90.8913 967.834 90.8913 963.869 L93.2258 963.869 L94.0781 974.8 L87.2229 974.8 Q94.041 977.987 94.0781 984.583 Q94.0781 987.918 93.2258 990.215 Q92.3735 992.476 91.336 993.624 Q90.2614 994.773 88.2234 995.403 Q86.1853 995.996 84.9255 996.07 Q83.6656 996.144 81.22 996.144 L69.8441 996.144 Q64.6934 996.144 63.8041 996.885 Q62.8777 997.626 62.8777 1002.04 Z" fill="#000000" fill-rule="nonzero" fill-opacity="1" /><path clip-path="url(#clip450)" d="M62.8777 960.942 L61.2103 960.942 Q61.062 957.459 58.6164 955.161 Q56.1337 952.827 53.0952 952.049 Q50.0567 951.233 46.5365 951.159 L46.5365 949.27 L60.5062 949.27 L60.5062 938.412 L62.8777 938.412 L62.8777 949.27 L83.962 949.27 Q92.1512 949.27 92.1512 944.156 Q92.1512 941.97 89.9279 940.525 Q87.6675 939.079 83.6656 939.079 L79.4784 939.079 L79.4784 937.19 L83.8138 937.19 Q87.9269 937.19 91.0025 939.079 Q94.0781 940.969 94.0781 944.712 Q94.0781 946.083 93.7075 947.454 Q93.374 948.788 92.4847 950.566 Q91.5583 952.308 89.335 953.42 Q87.0747 954.494 83.8138 954.494 L62.8777 954.494 L62.8777 960.942 Z" fill="#000000" fill-rule="nonzero" fill-opacity="1" /><path clip-path="url(#clip450)" d="M93.2258 930.446 L90.8913 930.446 Q90.8913 926.407 90.4096 925.48 Q89.8909 924.554 87.4452 924.554 L67.0279 924.554 Q64.2117 924.554 63.5447 925.517 Q62.8777 926.444 62.8777 930.149 L60.5062 930.149 L59.691 919.551 L87.5193 919.551 Q89.7797 919.551 90.3355 918.736 Q90.8913 917.921 90.8913 914.215 L93.2258 914.215 Q93.0035 921.96 93.0035 922.108 Q93.0035 923.146 93.2258 930.446 M46.4623 927.259 Q44.9431 927.259 43.7203 926.11 Q42.4604 924.924 42.4604 923.257 Q42.4604 921.589 43.6091 920.404 Q44.7208 919.218 46.4994 919.218 Q48.241 919.218 49.3897 920.404 Q50.5013 921.589 50.5013 923.257 Q50.5013 924.999 49.2785 926.147 Q48.0557 927.259 46.4623 927.259 Z" fill="#000000" fill-rule="nonzero" fill-opacity="1" /><path clip-path="url(#clip450)" d="M89.1498 904.841 Q84.1844 909.843 76.9957 909.843 Q69.77 909.843 64.5081 904.952 Q59.2093 900.023 59.2093 892.983 Q59.2093 886.091 64.4711 881.162 Q69.6959 876.197 76.9957 876.197 Q84.1473 876.197 89.1127 881.199 Q94.0781 886.165 94.0781 893.057 Q94.0781 899.801 89.1498 904.841 M76.3658 903.544 Q83.7397 903.544 87.0747 901.617 Q92.1512 898.652 92.1512 892.983 Q92.1512 890.167 90.632 887.832 Q89.1127 885.461 86.5559 884.164 Q83.2209 882.496 76.3658 882.496 Q69.0659 882.496 65.8421 884.497 Q60.9138 887.462 60.9138 893.057 Q60.9138 895.503 62.2107 897.911 Q63.4706 900.283 65.9904 901.728 Q69.3253 903.544 76.3658 903.544 Z" fill="#000000" fill-rule="nonzero" fill-opacity="1" /><path clip-path="url(#clip450)" d="M93.2258 871.565 L90.8913 871.565 Q90.8913 867.526 90.4096 866.6 Q89.8909 865.673 87.4452 865.673 L67.102 865.673 Q64.2858 865.673 63.5818 866.674 Q62.8777 867.637 62.8777 871.565 L60.5062 871.565 L59.691 860.893 L67.6578 860.893 Q59.691 857.336 59.691 849.666 Q59.691 843.959 62.5072 841.699 Q64.397 840.031 66.5091 839.698 Q68.6213 839.327 74.1054 839.327 L88.5939 839.327 Q90.1873 839.253 90.5578 838.03 Q90.8913 836.808 90.8913 833.398 L93.2258 833.398 Q93.0035 841.143 93.0035 841.921 Q93.0035 842.514 93.2258 850.481 L90.8913 850.481 Q90.8913 846.442 90.4096 845.515 Q89.8909 844.552 87.4452 844.552 L69.77 844.552 Q65.9162 844.552 63.6559 845.738 Q61.3585 846.924 61.3585 850.184 Q61.3585 854.112 64.6564 857.262 Q67.9543 860.412 73.5125 860.412 L87.4452 860.412 Q89.8909 860.412 90.4096 859.485 Q90.8913 858.522 90.8913 854.52 L93.2258 854.52 Q93.0035 862.264 93.0035 863.005 Q93.0035 863.598 93.2258 871.565 Z" fill="#000000" fill-rule="nonzero" fill-opacity="1" /><path clip-path="url(#clip450)" d="M92.2253 829.397 L82.2205 829.397 Q81.3682 829.397 81.0718 829.359 Q80.7753 829.322 80.553 829.1 Q80.3307 828.878 80.3307 828.433 Q80.3307 827.914 80.553 827.729 Q80.7753 827.507 81.6276 827.358 Q86.8523 826.21 89.6315 823.764 Q92.3735 821.281 92.3735 816.798 Q92.3735 812.536 90.4837 810.387 Q88.5939 808.238 85.4813 808.238 Q79.923 808.238 78.515 816.131 Q77.5886 820.689 76.9957 822.578 Q76.3658 824.468 74.9947 826.136 Q72.3268 829.397 68.5471 829.397 Q64.7675 829.397 61.9884 826.543 Q59.2093 823.653 59.2093 817.28 Q59.2093 813.018 61.3585 810.128 Q60.6915 809.276 60.1357 808.831 Q59.2093 807.83 59.2093 807.312 Q59.2093 806.719 59.6169 806.608 Q59.9874 806.496 61.062 806.496 L68.6954 806.496 Q69.5476 806.496 69.8441 806.534 Q70.1405 806.571 70.3628 806.793 Q70.5481 807.015 70.5481 807.497 Q70.5481 808.349 69.8441 808.386 Q60.6544 808.979 60.6544 817.28 Q60.6544 821.763 62.396 823.764 Q64.1005 825.765 66.435 825.765 Q67.7319 825.765 68.7324 825.172 Q69.6959 824.542 70.2887 823.764 Q70.8446 822.949 71.4004 821.467 Q71.9192 819.985 72.1044 819.095 Q72.2897 818.169 72.6603 816.427 Q73.809 810.35 76.2917 807.793 Q79.4784 804.607 83.5174 804.607 Q88.001 804.607 91.0396 807.645 Q94.0781 810.684 94.0781 816.798 Q94.0781 821.726 90.7802 825.172 Q91.2248 825.617 91.6324 825.95 Q92.003 826.284 92.1512 826.432 Q92.2994 826.543 92.4106 826.58 Q92.4847 826.617 92.5588 826.691 Q94.0781 828.211 94.0781 828.581 Q94.0781 829.174 93.6705 829.285 Q93.2999 829.397 92.2253 829.397 Z" fill="#000000" fill-rule="nonzero" fill-opacity="1" /><path clip-path="url(#clip450)" d="M62.8777 775.444 L60.5062 775.444 Q60.7285 771.331 60.7285 768.404 Q60.7285 766.959 60.5062 760.104 L62.8777 760.104 Q62.8777 764.587 64.9158 764.587 Q65.3604 764.587 66.2868 764.217 L86.5559 756.991 L68.1766 750.469 Q64.4711 751.84 64.0264 752.211 Q62.8777 753.137 62.8777 756.991 L60.5062 756.991 Q60.7285 753.582 60.7285 750.247 Q60.7285 748.95 60.5062 742.354 L62.8777 742.354 Q62.8777 746.838 64.9158 746.838 Q65.2122 746.838 66.3609 746.467 L87.5193 738.945 L68.1025 732.053 Q67.102 731.682 66.5091 731.645 Q64.8416 731.645 63.9153 732.831 Q62.9518 734.017 62.8777 736.055 L60.5062 736.055 Q60.7285 731.719 60.7285 729.014 Q60.7285 725.976 60.5062 723.456 L62.8777 723.456 Q63.0259 728.162 67.7319 729.83 L92.6329 738.723 Q94.004 739.575 94.0781 740.242 Q94.0781 741.243 92.6329 741.761 L71.0669 749.506 L92.5588 757.176 Q93.4852 757.473 93.7816 757.732 Q94.0781 757.991 94.0781 758.695 Q94.0781 759.362 93.6705 759.659 Q93.2999 759.955 92.3735 760.289 L65.5086 769.849 Q63.767 770.516 63.3224 771.517 Q62.8777 772.48 62.8777 775.444 Z" fill="#000000" fill-rule="nonzero" fill-opacity="1" /><path clip-path="url(#clip450)" d="M93.2258 719.528 L90.8913 719.528 Q90.8913 715.489 90.4096 714.563 Q89.8909 713.637 87.4452 713.637 L67.0279 713.637 Q64.2117 713.637 63.5447 714.6 Q62.8777 715.526 62.8777 719.232 L60.5062 719.232 L59.691 708.634 L87.5193 708.634 Q89.7797 708.634 90.3355 707.819 Q90.8913 707.004 90.8913 703.298 L93.2258 703.298 Q93.0035 711.043 93.0035 711.191 Q93.0035 712.228 93.2258 719.528 M46.4623 716.342 Q44.9431 716.342 43.7203 715.193 Q42.4604 714.007 42.4604 712.34 Q42.4604 710.672 43.6091 709.486 Q44.7208 708.301 46.4994 708.301 Q48.241 708.301 49.3897 709.486 Q50.5013 710.672 50.5013 712.34 Q50.5013 714.081 49.2785 715.23 Q48.0557 716.342 46.4623 716.342 Z" fill="#000000" fill-rule="nonzero" fill-opacity="1" /><path clip-path="url(#clip450)" d="M62.8777 699.593 L61.2103 699.593 Q61.062 696.11 58.6164 693.812 Q56.1337 691.478 53.0952 690.699 Q50.0567 689.884 46.5365 689.81 L46.5365 687.92 L60.5062 687.92 L60.5062 677.063 L62.8777 677.063 L62.8777 687.92 L83.962 687.92 Q92.1512 687.92 92.1512 682.807 Q92.1512 680.621 89.9279 679.175 Q87.6675 677.73 83.6656 677.73 L79.4784 677.73 L79.4784 675.84 L83.8138 675.84 Q87.9269 675.84 91.0025 677.73 Q94.0781 679.62 94.0781 683.363 Q94.0781 684.734 93.7075 686.105 Q93.374 687.439 92.4847 689.217 Q91.5583 690.959 89.335 692.071 Q87.0747 693.145 83.8138 693.145 L62.8777 693.145 L62.8777 699.593 Z" fill="#000000" fill-rule="nonzero" fill-opacity="1" /><path clip-path="url(#clip450)" d="M93.2258 669.171 L90.8913 669.171 Q90.8913 665.132 90.4096 664.205 Q89.8909 663.279 87.4452 663.279 L47.9816 663.279 Q45.1654 663.279 44.4614 664.279 Q43.7573 665.243 43.7573 669.171 L41.3858 669.171 L40.5706 658.276 L66.9538 658.276 L66.9538 658.202 Q64.2117 656.979 61.9514 654.237 Q59.691 651.495 59.691 647.271 Q59.691 641.565 62.5072 639.304 Q64.397 637.637 66.5091 637.303 Q68.6213 636.933 74.1054 636.933 L88.5939 636.933 Q90.1873 636.859 90.5578 635.636 Q90.8913 634.413 90.8913 631.004 L93.2258 631.004 Q93.0035 638.748 93.0035 639.526 Q93.0035 640.119 93.2258 648.086 L90.8913 648.086 Q90.8913 644.047 90.4096 643.121 Q89.8909 642.157 87.4452 642.157 L69.77 642.157 Q65.9162 642.157 63.6559 643.343 Q61.3585 644.529 61.3585 647.79 Q61.3585 651.718 64.6564 654.867 Q67.9543 658.017 73.5125 658.017 L87.4452 658.017 Q89.8909 658.017 90.4096 657.091 Q90.8913 656.127 90.8913 652.125 L93.2258 652.125 Q93.0035 659.87 93.0035 660.611 Q93.0035 661.204 93.2258 669.171 Z" fill="#000000" fill-rule="nonzero" fill-opacity="1" /><path clip-path="url(#clip450)" d="M62.8777 601.842 L60.5062 601.842 L59.691 590.688 L84.8884 590.688 Q86.7041 590.688 87.7787 590.54 Q88.8163 590.392 90.0391 589.799 Q91.2619 589.169 91.8177 587.761 Q92.3735 586.315 92.3735 584.018 Q92.3735 579.905 89.0015 577.385 Q85.6295 574.828 80.6271 574.828 L67.102 574.828 Q64.2858 574.828 63.5818 575.829 Q62.8777 576.829 62.8777 580.757 L60.5062 580.757 L59.691 569.604 L86.63 569.604 Q89.4462 569.604 90.1873 568.64 Q90.8913 567.64 90.8913 563.675 L93.2258 563.675 L94.0781 574.606 L87.2229 574.606 Q94.041 577.793 94.0781 584.389 Q94.0781 587.724 93.2258 590.021 Q92.3735 592.281 91.336 593.43 Q90.2614 594.579 88.2234 595.209 Q86.1853 595.802 84.9255 595.876 Q83.6656 595.95 81.22 595.95 L69.8441 595.95 Q64.6934 595.95 63.8041 596.691 Q62.8777 597.432 62.8777 601.842 Z" fill="#000000" fill-rule="nonzero" fill-opacity="1" /><path clip-path="url(#clip450)" d="M93.2258 559.747 L90.8913 559.747 Q90.8913 555.708 90.4096 554.782 Q89.8909 553.855 87.4452 553.855 L67.102 553.855 Q64.2858 553.855 63.5818 554.856 Q62.8777 555.819 62.8777 559.747 L60.5062 559.747 L59.691 549.075 L67.6578 549.075 Q59.691 545.518 59.691 537.847 Q59.691 532.141 62.5072 529.881 Q64.397 528.213 66.5091 527.88 Q68.6213 527.509 74.1054 527.509 L88.5939 527.509 Q90.1873 527.435 90.5578 526.212 Q90.8913 524.989 90.8913 521.58 L93.2258 521.58 Q93.0035 529.325 93.0035 530.103 Q93.0035 530.696 93.2258 538.663 L90.8913 538.663 Q90.8913 534.624 90.4096 533.697 Q89.8909 532.734 87.4452 532.734 L69.77 532.734 Q65.9162 532.734 63.6559 533.92 Q61.3585 535.105 61.3585 538.366 Q61.3585 542.294 64.6564 545.444 Q67.9543 548.593 73.5125 548.593 L87.4452 548.593 Q89.8909 548.593 90.4096 547.667 Q90.8913 546.704 90.8913 542.702 L93.2258 542.702 Q93.0035 550.446 93.0035 551.187 Q93.0035 551.78 93.2258 559.747 Z" fill="#000000" fill-rule="nonzero" fill-opacity="1" /><path clip-path="url(#clip450)" d="M93.2258 517.578 L90.8913 517.578 Q90.8913 513.539 90.4096 512.613 Q89.8909 511.687 87.4452 511.687 L67.0279 511.687 Q64.2117 511.687 63.5447 512.65 Q62.8777 513.576 62.8777 517.282 L60.5062 517.282 L59.691 506.684 L87.5193 506.684 Q89.7797 506.684 90.3355 505.869 Q90.8913 505.054 90.8913 501.348 L93.2258 501.348 Q93.0035 509.093 93.0035 509.241 Q93.0035 510.279 93.2258 517.578 M46.4623 514.392 Q44.9431 514.392 43.7203 513.243 Q42.4604 512.057 42.4604 510.39 Q42.4604 508.722 43.6091 507.536 Q44.7208 506.351 46.4994 506.351 Q48.241 506.351 49.3897 507.536 Q50.5013 508.722 50.5013 510.39 Q50.5013 512.131 49.2785 513.28 Q48.0557 514.392 46.4623 514.392 Z" fill="#000000" fill-rule="nonzero" fill-opacity="1" /><path clip-path="url(#clip450)" d="M62.8777 497.643 L61.2103 497.643 Q61.062 494.16 58.6164 491.862 Q56.1337 489.528 53.0952 488.75 Q50.0567 487.934 46.5365 487.86 L46.5365 485.97 L60.5062 485.97 L60.5062 475.113 L62.8777 475.113 L62.8777 485.97 L83.962 485.97 Q92.1512 485.97 92.1512 480.857 Q92.1512 478.671 89.9279 477.225 Q87.6675 475.78 83.6656 475.78 L79.4784 475.78 L79.4784 473.89 L83.8138 473.89 Q87.9269 473.89 91.0025 475.78 Q94.0781 477.67 94.0781 481.413 Q94.0781 482.784 93.7075 484.155 Q93.374 485.489 92.4847 487.267 Q91.5583 489.009 89.335 490.121 Q87.0747 491.195 83.8138 491.195 L62.8777 491.195 L62.8777 497.643 Z" fill="#000000" fill-rule="nonzero" fill-opacity="1" /><path clip-path="url(#clip450)" d="M62.8777 442.987 L60.5062 442.987 Q60.7285 439.577 60.7285 435.613 Q60.7285 434.167 60.5062 427.349 L62.8777 427.349 Q62.8777 431.685 64.8416 431.685 Q65.1381 431.685 66.1386 431.24 L87.297 422.717 L67.9543 414.973 Q66.6573 414.528 66.1386 414.528 Q64.8416 414.528 63.9153 415.418 Q62.9518 416.27 62.8777 418.16 L60.5062 418.16 Q60.7285 414.306 60.7285 411.564 Q60.7285 408.451 60.5062 405.894 L62.8777 405.894 Q62.8777 408.155 63.9153 409.748 Q64.9158 411.342 65.8051 411.86 Q66.6573 412.342 67.9543 412.861 L92.6329 422.792 Q94.0781 423.384 94.0781 424.385 Q94.0781 425.052 93.7816 425.348 Q93.5222 425.608 92.6329 425.978 L65.6939 436.91 Q63.8041 437.651 63.3594 438.614 Q62.8777 439.577 62.8777 442.987 Z" fill="#000000" fill-rule="nonzero" fill-opacity="1" /><path clip-path="url(#clip450)" d="M93.2258 401.93 L90.8913 401.93 Q90.8913 397.891 90.4096 396.964 Q89.8909 396.038 87.4452 396.038 L67.0279 396.038 Q64.2117 396.038 63.5447 397.001 Q62.8777 397.928 62.8777 401.633 L60.5062 401.633 L59.691 391.035 L87.5193 391.035 Q89.7797 391.035 90.3355 390.22 Q90.8913 389.405 90.8913 385.699 L93.2258 385.699 Q93.0035 393.444 93.0035 393.592 Q93.0035 394.63 93.2258 401.93 M46.4623 398.743 Q44.9431 398.743 43.7203 397.594 Q42.4604 396.408 42.4604 394.741 Q42.4604 393.073 43.6091 391.888 Q44.7208 390.702 46.4994 390.702 Q48.241 390.702 49.3897 391.888 Q50.5013 393.073 50.5013 394.741 Q50.5013 396.482 49.2785 397.631 Q48.0557 398.743 46.4623 398.743 Z" fill="#000000" fill-rule="nonzero" fill-opacity="1" /><path clip-path="url(#clip450)" d="M89.1498 376.325 Q84.1844 381.327 76.9957 381.327 Q69.77 381.327 64.5081 376.436 Q59.2093 371.507 59.2093 364.467 Q59.2093 357.575 64.4711 352.646 Q69.6959 347.681 76.9957 347.681 Q84.1473 347.681 89.1127 352.683 Q94.0781 357.649 94.0781 364.541 Q94.0781 371.285 89.1498 376.325 M76.3658 375.028 Q83.7397 375.028 87.0747 373.101 Q92.1512 370.136 92.1512 364.467 Q92.1512 361.651 90.632 359.316 Q89.1127 356.945 86.5559 355.648 Q83.2209 353.98 76.3658 353.98 Q69.0659 353.98 65.8421 355.981 Q60.9138 358.946 60.9138 364.541 Q60.9138 366.987 62.2107 369.395 Q63.4706 371.767 65.9904 373.212 Q69.3253 375.028 76.3658 375.028 Z" fill="#000000" fill-rule="nonzero" fill-opacity="1" /><path clip-path="url(#clip450)" d="M93.2258 342.975 L90.8913 342.975 Q90.8913 338.936 90.4096 338.01 Q89.8909 337.083 87.4452 337.083 L47.9816 337.083 Q45.1654 337.083 44.4614 338.084 Q43.7573 339.047 43.7573 342.975 L41.3858 342.975 L40.5706 332.081 L87.4452 332.081 Q89.8909 332.081 90.4096 331.117 Q90.8913 330.154 90.8913 326.152 L93.2258 326.152 Q93.2258 327.078 93.1517 329.005 Q93.0776 330.932 93.0405 332.34 Q93.0035 333.748 93.0035 334.564 Q93.0035 335.453 93.2258 342.975 Z" fill="#000000" fill-rule="nonzero" fill-opacity="1" /><path clip-path="url(#clip450)" d="M86.0001 321.298 Q79.5525 321.298 76.1434 313.702 Q73.9572 309.144 73.4014 299.732 L70.6222 299.732 Q65.9162 299.732 63.4336 302.214 Q60.9138 304.66 60.9138 307.773 Q60.9138 313.331 64.397 315.999 Q64.4711 313.739 65.6198 312.923 Q66.7315 312.108 67.8802 312.108 Q69.3994 312.108 70.3999 313.072 Q71.3633 313.998 71.3633 315.591 Q71.3633 317.111 70.437 318.111 Q69.4735 319.112 67.806 319.112 Q64.1005 319.112 61.6549 315.777 Q59.2093 312.405 59.2093 307.625 Q59.2093 301.399 63.3965 297.249 Q64.6934 295.952 66.3609 295.322 Q68.0284 294.655 69.14 294.581 Q70.2146 294.507 72.3638 294.507 L87.5193 294.507 Q87.964 294.507 88.7051 294.359 Q89.4462 294.211 90.4096 293.544 Q91.336 292.84 91.336 291.691 Q91.336 288.949 86.4818 288.986 L82.2205 288.986 L82.2205 287.059 L86.4818 287.059 Q90.5208 287.059 92.1142 289.208 Q93.6705 291.32 93.6705 293.284 Q93.6705 295.804 91.8177 297.397 Q89.965 298.991 87.4452 299.213 Q90.3355 300.362 92.2253 302.993 Q94.0781 305.586 94.0781 309.144 Q94.0781 311.886 93.374 314.48 Q92.707 317.036 90.8172 319.186 Q88.8904 321.298 86.0001 321.298 M85.926 315.443 Q88.7421 315.443 90.5578 313.442 Q92.3735 311.441 92.3735 308.625 Q92.3735 305.438 89.9279 302.585 Q87.4452 299.732 82.591 299.732 L74.9947 299.732 Q75.2912 308.143 78.6632 311.812 Q81.9981 315.443 85.926 315.443 Z" fill="#000000" fill-rule="nonzero" fill-opacity="1" /><path clip-path="url(#clip450)" d="M62.8777 285.095 L61.2103 285.095 Q61.062 281.612 58.6164 279.314 Q56.1337 276.98 53.0952 276.202 Q50.0567 275.387 46.5365 275.313 L46.5365 273.423 L60.5062 273.423 L60.5062 262.566 L62.8777 262.566 L62.8777 273.423 L83.962 273.423 Q92.1512 273.423 92.1512 268.309 Q92.1512 266.123 89.9279 264.678 Q87.6675 263.233 83.6656 263.233 L79.4784 263.233 L79.4784 261.343 L83.8138 261.343 Q87.9269 261.343 91.0025 263.233 Q94.0781 265.122 94.0781 268.865 Q94.0781 270.236 93.7075 271.607 Q93.374 272.941 92.4847 274.72 Q91.5583 276.461 89.335 277.573 Q87.0747 278.647 83.8138 278.647 L62.8777 278.647 L62.8777 285.095 Z" fill="#000000" fill-rule="nonzero" fill-opacity="1" /><path clip-path="url(#clip450)" d="M93.2258 254.599 L90.8913 254.599 Q90.8913 250.56 90.4096 249.633 Q89.8909 248.707 87.4452 248.707 L67.0279 248.707 Q64.2117 248.707 63.5447 249.67 Q62.8777 250.597 62.8777 254.302 L60.5062 254.302 L59.691 243.705 L87.5193 243.705 Q89.7797 243.705 90.3355 242.889 Q90.8913 242.074 90.8913 238.369 L93.2258 238.369 Q93.0035 246.113 93.0035 246.261 Q93.0035 247.299 93.2258 254.599 M46.4623 251.412 Q44.9431 251.412 43.7203 250.263 Q42.4604 249.078 42.4604 247.41 Q42.4604 245.743 43.6091 244.557 Q44.7208 243.371 46.4994 243.371 Q48.241 243.371 49.3897 244.557 Q50.5013 245.743 50.5013 247.41 Q50.5013 249.152 49.2785 250.3 Q48.0557 251.412 46.4623 251.412 Z" fill="#000000" fill-rule="nonzero" fill-opacity="1" /><path clip-path="url(#clip450)" d="M89.1498 228.994 Q84.1844 233.996 76.9957 233.996 Q69.77 233.996 64.5081 229.105 Q59.2093 224.177 59.2093 217.136 Q59.2093 210.244 64.4711 205.316 Q69.6959 200.35 76.9957 200.35 Q84.1473 200.35 89.1127 205.353 Q94.0781 210.318 94.0781 217.21 Q94.0781 223.954 89.1498 228.994 M76.3658 227.697 Q83.7397 227.697 87.0747 225.77 Q92.1512 222.806 92.1512 217.136 Q92.1512 214.32 90.632 211.985 Q89.1127 209.614 86.5559 208.317 Q83.2209 206.65 76.3658 206.65 Q69.0659 206.65 65.8421 208.65 Q60.9138 211.615 60.9138 217.21 Q60.9138 219.656 62.2107 222.064 Q63.4706 224.436 65.9904 225.881 Q69.3253 227.697 76.3658 227.697 Z" fill="#000000" fill-rule="nonzero" fill-opacity="1" /><path clip-path="url(#clip450)" d="M93.2258 195.718 L90.8913 195.718 Q90.8913 191.679 90.4096 190.753 Q89.8909 189.827 87.4452 189.827 L67.102 189.827 Q64.2858 189.827 63.5818 190.827 Q62.8777 191.79 62.8777 195.718 L60.5062 195.718 L59.691 185.046 L67.6578 185.046 Q59.691 181.489 59.691 173.819 Q59.691 168.112 62.5072 165.852 Q64.397 164.184 66.5091 163.851 Q68.6213 163.48 74.1054 163.48 L88.5939 163.48 Q90.1873 163.406 90.5578 162.183 Q90.8913 160.961 90.8913 157.552 L93.2258 157.552 Q93.0035 165.296 93.0035 166.074 Q93.0035 166.667 93.2258 174.634 L90.8913 174.634 Q90.8913 170.595 90.4096 169.669 Q89.8909 168.705 87.4452 168.705 L69.77 168.705 Q65.9162 168.705 63.6559 169.891 Q61.3585 171.077 61.3585 174.338 Q61.3585 178.265 64.6564 181.415 Q67.9543 184.565 73.5125 184.565 L87.4452 184.565 Q89.8909 184.565 90.4096 183.638 Q90.8913 182.675 90.8913 178.673 L93.2258 178.673 Q93.0035 186.417 93.0035 187.159 Q93.0035 187.751 93.2258 195.718 Z" fill="#000000" fill-rule="nonzero" fill-opacity="1" /><path clip-path="url(#clip450)" d="M92.2253 153.55 L82.2205 153.55 Q81.3682 153.55 81.0718 153.513 Q80.7753 153.476 80.553 153.253 Q80.3307 153.031 80.3307 152.586 Q80.3307 152.067 80.553 151.882 Q80.7753 151.66 81.6276 151.512 Q86.8523 150.363 89.6315 147.917 Q92.3735 145.435 92.3735 140.951 Q92.3735 136.69 90.4837 134.54 Q88.5939 132.391 85.4813 132.391 Q79.923 132.391 78.515 140.284 Q77.5886 144.842 76.9957 146.732 Q76.3658 148.621 74.9947 150.289 Q72.3268 153.55 68.5471 153.55 Q64.7675 153.55 61.9884 150.696 Q59.2093 147.806 59.2093 141.433 Q59.2093 137.171 61.3585 134.281 Q60.6915 133.429 60.1357 132.984 Q59.2093 131.984 59.2093 131.465 Q59.2093 130.872 59.6169 130.761 Q59.9874 130.65 61.062 130.65 L68.6954 130.65 Q69.5476 130.65 69.8441 130.687 Q70.1405 130.724 70.3628 130.946 Q70.5481 131.168 70.5481 131.65 Q70.5481 132.502 69.8441 132.539 Q60.6544 133.132 60.6544 141.433 Q60.6544 145.916 62.396 147.917 Q64.1005 149.918 66.435 149.918 Q67.7319 149.918 68.7324 149.325 Q69.6959 148.695 70.2887 147.917 Q70.8446 147.102 71.4004 145.62 Q71.9192 144.138 72.1044 143.248 Q72.2897 142.322 72.6603 140.58 Q73.809 134.503 76.2917 131.947 Q79.4784 128.76 83.5174 128.76 Q88.001 128.76 91.0396 131.798 Q94.0781 134.837 94.0781 140.951 Q94.0781 145.879 90.7802 149.325 Q91.2248 149.77 91.6324 150.104 Q92.003 150.437 92.1512 150.585 Q92.2994 150.696 92.4106 150.733 Q92.4847 150.771 92.5588 150.845 Q94.0781 152.364 94.0781 152.734 Q94.0781 153.327 93.6705 153.438 Q93.2999 153.55 92.2253 153.55 Z" fill="#000000" fill-rule="nonzero" fill-opacity="1" /><path clip-path="url(#clip452)" d="M330.061 338.058 L310.658 338.058 L349.464 338.058 L330.061 338.058 L330.061 262.769 L330.061 338.058  Z" fill="#eff8e8" fill-rule="evenodd" fill-opacity="1"/>
<polyline clip-path="url(#clip452)" style="stroke:#000000; stroke-linecap:round; stroke-linejoin:round; stroke-width:4; stroke-opacity:1; fill:none" points="330.061,338.058 310.658,338.058 349.464,338.058 330.061,338.058 330.061,262.769 330.061,338.058 "/>
<path clip-path="url(#clip452)" d="M368.866 262.769 L368.866 226.759 L291.256 226.759 L291.256 262.769 L368.866 262.769 L368.866 226.759 L368.866 262.769  Z" fill="#eff8e8" fill-rule="evenodd" fill-opacity="1"/>
<polyline clip-path="url(#clip452)" style="stroke:#000000; stroke-linecap:round; stroke-linejoin:round; stroke-width:4; stroke-opacity:1; fill:none" points="368.866,262.769 368.866,226.759 291.256,226.759 291.256,262.769 368.866,262.769 368.866,226.759 368.866,262.769 "/>
<path clip-path="url(#clip452)" d="M368.866 192.651 L291.256 192.651 L291.256 226.759 L368.866 226.759 L368.866 192.651 L330.061 192.651 L368.866 192.651  Z" fill="#eff8e8" fill-rule="evenodd" fill-opacity="1"/>
<polyline clip-path="url(#clip452)" style="stroke:#000000; stroke-linecap:round; stroke-linejoin:round; stroke-width:4; stroke-opacity:1; fill:none" points="368.866,192.651 291.256,192.651 291.256,226.759 368.866,226.759 368.866,192.651 330.061,192.651 368.866,192.651 "/>
<path clip-path="url(#clip452)" d="M330.061 95.7131 L310.658 95.7131 L349.464 95.7131 L330.061 95.7131 L330.061 192.651 L330.061 95.7131  Z" fill="#eff8e8" fill-rule="evenodd" fill-opacity="1"/>
<polyline clip-path="url(#clip452)" style="stroke:#000000; stroke-linecap:round; stroke-linejoin:round; stroke-width:4; stroke-opacity:1; fill:none" points="330.061,95.7131 310.658,95.7131 349.464,95.7131 330.061,95.7131 330.061,192.651 330.061,95.7131 "/>
<path clip-path="url(#clip452)" d="M822.827 912.763 L803.424 912.763 L842.23 912.763 L822.827 912.763 L822.827 748.77 L822.827 912.763  Z" fill="#eff8e8" fill-rule="evenodd" fill-opacity="1"/>
<polyline clip-path="url(#clip452)" style="stroke:#000000; stroke-linecap:round; stroke-linejoin:round; stroke-width:4; stroke-opacity:1; fill:none" points="822.827,912.763 803.424,912.763 842.23,912.763 822.827,912.763 822.827,748.77 822.827,912.763 "/>
<path clip-path="url(#clip452)" d="M861.632 748.77 L861.632 688.746 L784.022 688.746 L784.022 748.77 L861.632 748.77 L861.632 688.746 L861.632 748.77  Z" fill="#eff8e8" fill-rule="evenodd" fill-opacity="1"/>
<polyline clip-path="url(#clip452)" style="stroke:#000000; stroke-linecap:round; stroke-linejoin:round; stroke-width:4; stroke-opacity:1; fill:none" points="861.632,748.77 861.632,688.746 784.022,688.746 784.022,748.77 861.632,748.77 861.632,688.746 861.632,748.77 "/>
<path clip-path="url(#clip452)" d="M861.632 617.468 L784.022 617.468 L784.022 688.746 L861.632 688.746 L861.632 617.468 L822.827 617.468 L861.632 617.468  Z" fill="#eff8e8" fill-rule="evenodd" fill-opacity="1"/>
<polyline clip-path="url(#clip452)" style="stroke:#000000; stroke-linecap:round; stroke-linejoin:round; stroke-width:4; stroke-opacity:1; fill:none" points="861.632,617.468 784.022,617.468 784.022,688.746 861.632,688.746 861.632,617.468 822.827,617.468 861.632,617.468 "/>
<path clip-path="url(#clip452)" d="M822.827 451.153 L803.424 451.153 L842.23 451.153 L822.827 451.153 L822.827 617.468 L822.827 451.153  Z" fill="#eff8e8" fill-rule="evenodd" fill-opacity="1"/>
<polyline clip-path="url(#clip452)" style="stroke:#000000; stroke-linecap:round; stroke-linejoin:round; stroke-width:4; stroke-opacity:1; fill:none" points="822.827,451.153 803.424,451.153 842.23,451.153 822.827,451.153 822.827,617.468 822.827,451.153 "/>
<path clip-path="url(#clip452)" d="M1315.59 1067.65 L1296.19 1067.65 L1335 1067.65 L1315.59 1067.65 L1315.59 833.084 L1315.59 1067.65  Z" fill="#eff8e8" fill-rule="evenodd" fill-opacity="1"/>
<polyline clip-path="url(#clip452)" style="stroke:#000000; stroke-linecap:round; stroke-linejoin:round; stroke-width:4; stroke-opacity:1; fill:none" points="1315.59,1067.65 1296.19,1067.65 1335,1067.65 1315.59,1067.65 1315.59,833.084 1315.59,1067.65 "/>
<path clip-path="url(#clip452)" d="M1354.4 833.084 L1354.4 739.659 L1276.79 739.659 L1276.79 833.084 L1354.4 833.084 L1354.4 739.659 L1354.4 833.084  Z" fill="#eff8e8" fill-rule="evenodd" fill-opacity="1"/>
<polyline clip-path="url(#clip452)" style="stroke:#000000; stroke-linecap:round; stroke-linejoin:round; stroke-width:4; stroke-opacity:1; fill:none" points="1354.4,833.084 1354.4,739.659 1276.79,739.659 1276.79,833.084 1354.4,833.084 1354.4,739.659 1354.4,833.084 "/>
<path clip-path="url(#clip452)" d="M1354.4 622.738 L1276.79 622.738 L1276.79 739.659 L1354.4 739.659 L1354.4 622.738 L1315.59 622.738 L1354.4 622.738  Z" fill="#eff8e8" fill-rule="evenodd" fill-opacity="1"/>
<polyline clip-path="url(#clip452)" style="stroke:#000000; stroke-linecap:round; stroke-linejoin:round; stroke-width:4; stroke-opacity:1; fill:none" points="1354.4,622.738 1276.79,622.738 1276.79,739.659 1354.4,739.659 1354.4,622.738 1315.59,622.738 1354.4,622.738 "/>
<path clip-path="url(#clip452)" d="M1315.59 451.153 L1296.19 451.153 L1335 451.153 L1315.59 451.153 L1315.59 622.738 L1315.59 451.153  Z" fill="#eff8e8" fill-rule="evenodd" fill-opacity="1"/>
<polyline clip-path="url(#clip452)" style="stroke:#000000; stroke-linecap:round; stroke-linejoin:round; stroke-width:4; stroke-opacity:1; fill:none" points="1315.59,451.153 1296.19,451.153 1335,451.153 1315.59,451.153 1315.59,622.738 1315.59,451.153 "/>
<circle clip-path="url(#clip452)" cx="822.827" cy="1003.87" r="14.4" fill="#eff8e8" fill-rule="evenodd" fill-opacity="1" stroke="#000000" stroke-opacity="1" stroke-width="2.8"/>
<polyline clip-path="url(#clip452)" style="stroke:#eff8e8; stroke-linecap:round; stroke-linejoin:round; stroke-width:0; stroke-opacity:1; fill:none" points="330.061,338.058 310.658,338.058 349.464,338.058 330.061,338.058 330.061,262.769 "/>
<polyline clip-path="url(#clip452)" style="stroke:#eff8e8; stroke-linecap:round; stroke-linejoin:round; stroke-width:0; stroke-opacity:1; fill:none" points="368.866,262.769 368.866,226.759 291.256,226.759 291.256,262.769 368.866,262.769 368.866,226.759 "/>
<polyline clip-path="url(#clip452)" style="stroke:#eff8e8; stroke-linecap:round; stroke-linejoin:round; stroke-width:0; stroke-opacity:1; fill:none" points="368.866,192.651 291.256,192.651 291.256,226.759 368.866,226.759 368.866,192.651 330.061,192.651 "/>
<polyline clip-path="url(#clip452)" style="stroke:#eff8e8; stroke-linecap:round; stroke-linejoin:round; stroke-width:0; stroke-opacity:1; fill:none" points="330.061,95.7131 310.658,95.7131 349.464,95.7131 330.061,95.7131 330.061,192.651 "/>
<polyline clip-path="url(#clip452)" style="stroke:#eff8e8; stroke-linecap:round; stroke-linejoin:round; stroke-width:0; stroke-opacity:1; fill:none" points="822.827,912.763 803.424,912.763 842.23,912.763 822.827,912.763 822.827,748.77 "/>
<polyline clip-path="url(#clip452)" style="stroke:#eff8e8; stroke-linecap:round; stroke-linejoin:round; stroke-width:0; stroke-opacity:1; fill:none" points="861.632,748.77 861.632,688.746 784.022,688.746 784.022,748.77 861.632,748.77 861.632,688.746 "/>
<polyline clip-path="url(#clip452)" style="stroke:#eff8e8; stroke-linecap:round; stroke-linejoin:round; stroke-width:0; stroke-opacity:1; fill:none" points="861.632,617.468 784.022,617.468 784.022,688.746 861.632,688.746 861.632,617.468 822.827,617.468 "/>
<polyline clip-path="url(#clip452)" style="stroke:#eff8e8; stroke-linecap:round; stroke-linejoin:round; stroke-width:0; stroke-opacity:1; fill:none" points="822.827,451.153 803.424,451.153 842.23,451.153 822.827,451.153 822.827,617.468 "/>
<polyline clip-path="url(#clip452)" style="stroke:#eff8e8; stroke-linecap:round; stroke-linejoin:round; stroke-width:0; stroke-opacity:1; fill:none" points="1315.59,1067.65 1296.19,1067.65 1335,1067.65 1315.59,1067.65 1315.59,833.084 "/>
<polyline clip-path="url(#clip452)" style="stroke:#eff8e8; stroke-linecap:round; stroke-linejoin:round; stroke-width:0; stroke-opacity:1; fill:none" points="1354.4,833.084 1354.4,739.659 1276.79,739.659 1276.79,833.084 1354.4,833.084 1354.4,739.659 "/>
<polyline clip-path="url(#clip452)" style="stroke:#eff8e8; stroke-linecap:round; stroke-linejoin:round; stroke-width:0; stroke-opacity:1; fill:none" points="1354.4,622.738 1276.79,622.738 1276.79,739.659 1354.4,739.659 1354.4,622.738 1315.59,622.738 "/>
<polyline clip-path="url(#clip452)" style="stroke:#eff8e8; stroke-linecap:round; stroke-linejoin:round; stroke-width:0; stroke-opacity:1; fill:none" points="1315.59,451.153 1296.19,451.153 1335,451.153 1315.59,451.153 1315.59,622.738 "/>
<path clip-path="url(#clip452)" d="M416.295 1258.97 L396.892 1258.97 L435.698 1258.97 L416.295 1258.97 L416.295 1258.97 L416.295 1258.97  Z" fill="#b9e3bb" fill-rule="evenodd" fill-opacity="1"/>
<polyline clip-path="url(#clip452)" style="stroke:#000000; stroke-linecap:round; stroke-linejoin:round; stroke-width:4; stroke-opacity:1; fill:none" points="416.295,1258.97 396.892,1258.97 435.698,1258.97 416.295,1258.97 "/>
<path clip-path="url(#clip452)" d="M455.1 1258.97 L455.1 1258.97 L377.49 1258.97 L377.49 1258.97 L455.1 1258.97 L455.1 1258.97 L455.1 1258.97  Z" fill="#b9e3bb" fill-rule="evenodd" fill-opacity="1"/>
<polyline clip-path="url(#clip452)" style="stroke:#000000; stroke-linecap:round; stroke-linejoin:round; stroke-width:4; stroke-opacity:1; fill:none" points="455.1,1258.97 455.1,1258.97 377.49,1258.97 455.1,1258.97 "/>
<path clip-path="url(#clip452)" d="M455.1 1258.97 L377.49 1258.97 L377.49 1258.97 L455.1 1258.97 L455.1 1258.97 L416.295 1258.97 L455.1 1258.97  Z" fill="#b9e3bb" fill-rule="evenodd" fill-opacity="1"/>
<polyline clip-path="url(#clip452)" style="stroke:#000000; stroke-linecap:round; stroke-linejoin:round; stroke-width:4; stroke-opacity:1; fill:none" points="455.1,1258.97 377.49,1258.97 455.1,1258.97 416.295,1258.97 455.1,1258.97 "/>
<path clip-path="url(#clip452)" d="M416.295 1258.97 L396.892 1258.97 L435.698 1258.97 L416.295 1258.97 L416.295 1258.97 L416.295 1258.97  Z" fill="#b9e3bb" fill-rule="evenodd" fill-opacity="1"/>
<polyline clip-path="url(#clip452)" style="stroke:#000000; stroke-linecap:round; stroke-linejoin:round; stroke-width:4; stroke-opacity:1; fill:none" points="416.295,1258.97 396.892,1258.97 435.698,1258.97 416.295,1258.97 "/>
<path clip-path="url(#clip452)" d="M909.061 1258.97 L889.658 1258.97 L928.464 1258.97 L909.061 1258.97 L909.061 1258.97 L909.061 1258.97  Z" fill="#b9e3bb" fill-rule="evenodd" fill-opacity="1"/>
<polyline clip-path="url(#clip452)" style="stroke:#000000; stroke-linecap:round; stroke-linejoin:round; stroke-width:4; stroke-opacity:1; fill:none" points="909.061,1258.97 889.658,1258.97 928.464,1258.97 909.061,1258.97 "/>
<path clip-path="url(#clip452)" d="M947.866 1258.97 L947.866 1258.97 L870.256 1258.97 L870.256 1258.97 L947.866 1258.97 L947.866 1258.97 L947.866 1258.97  Z" fill="#b9e3bb" fill-rule="evenodd" fill-opacity="1"/>
<polyline clip-path="url(#clip452)" style="stroke:#000000; stroke-linecap:round; stroke-linejoin:round; stroke-width:4; stroke-opacity:1; fill:none" points="947.866,1258.97 947.866,1258.97 870.256,1258.97 947.866,1258.97 "/>
<path clip-path="url(#clip452)" d="M947.866 1258.97 L870.256 1258.97 L870.256 1258.97 L947.866 1258.97 L947.866 1258.97 L909.061 1258.97 L947.866 1258.97  Z" fill="#b9e3bb" fill-rule="evenodd" fill-opacity="1"/>
<polyline clip-path="url(#clip452)" style="stroke:#000000; stroke-linecap:round; stroke-linejoin:round; stroke-width:4; stroke-opacity:1; fill:none" points="947.866,1258.97 870.256,1258.97 947.866,1258.97 909.061,1258.97 947.866,1258.97 "/>
<path clip-path="url(#clip452)" d="M909.061 1258.97 L889.658 1258.97 L928.464 1258.97 L909.061 1258.97 L909.061 1258.97 L909.061 1258.97  Z" fill="#b9e3bb" fill-rule="evenodd" fill-opacity="1"/>
<polyline clip-path="url(#clip452)" style="stroke:#000000; stroke-linecap:round; stroke-linejoin:round; stroke-width:4; stroke-opacity:1; fill:none" points="909.061,1258.97 889.658,1258.97 928.464,1258.97 909.061,1258.97 "/>
<path clip-path="url(#clip452)" d="M1401.83 1258.97 L1382.42 1258.97 L1421.23 1258.97 L1401.83 1258.97 L1401.83 1258.97 L1401.83 1258.97  Z" fill="#b9e3bb" fill-rule="evenodd" fill-opacity="1"/>
<polyline clip-path="url(#clip452)" style="stroke:#000000; stroke-linecap:round; stroke-linejoin:round; stroke-width:4; stroke-opacity:1; fill:none" points="1401.83,1258.97 1382.42,1258.97 1421.23,1258.97 1401.83,1258.97 "/>
<path clip-path="url(#clip452)" d="M1440.63 1258.97 L1440.63 1258.97 L1363.02 1258.97 L1363.02 1258.97 L1440.63 1258.97 L1440.63 1258.97 L1440.63 1258.97  Z" fill="#b9e3bb" fill-rule="evenodd" fill-opacity="1"/>
<polyline clip-path="url(#clip452)" style="stroke:#000000; stroke-linecap:round; stroke-linejoin:round; stroke-width:4; stroke-opacity:1; fill:none" points="1440.63,1258.97 1440.63,1258.97 1363.02,1258.97 1440.63,1258.97 "/>
<path clip-path="url(#clip452)" d="M1440.63 1258.97 L1363.02 1258.97 L1363.02 1258.97 L1440.63 1258.97 L1440.63 1258.97 L1401.83 1258.97 L1440.63 1258.97  Z" fill="#b9e3bb" fill-rule="evenodd" fill-opacity="1"/>
<polyline clip-path="url(#clip452)" style="stroke:#000000; stroke-linecap:round; stroke-linejoin:round; stroke-width:4; stroke-opacity:1; fill:none" points="1440.63,1258.97 1363.02,1258.97 1440.63,1258.97 1401.83,1258.97 1440.63,1258.97 "/>
<path clip-path="url(#clip452)" d="M1401.83 1258.97 L1382.42 1258.97 L1421.23 1258.97 L1401.83 1258.97 L1401.83 1258.97 L1401.83 1258.97  Z" fill="#b9e3bb" fill-rule="evenodd" fill-opacity="1"/>
<polyline clip-path="url(#clip452)" style="stroke:#000000; stroke-linecap:round; stroke-linejoin:round; stroke-width:4; stroke-opacity:1; fill:none" points="1401.83,1258.97 1382.42,1258.97 1421.23,1258.97 1401.83,1258.97 "/>
<polyline clip-path="url(#clip452)" style="stroke:#b9e3bb; stroke-linecap:round; stroke-linejoin:round; stroke-width:0; stroke-opacity:1; fill:none" points="416.295,1258.97 396.892,1258.97 435.698,1258.97 416.295,1258.97 "/>
<polyline clip-path="url(#clip452)" style="stroke:#b9e3bb; stroke-linecap:round; stroke-linejoin:round; stroke-width:0; stroke-opacity:1; fill:none" points="455.1,1258.97 455.1,1258.97 377.49,1258.97 455.1,1258.97 "/>
<polyline clip-path="url(#clip452)" style="stroke:#b9e3bb; stroke-linecap:round; stroke-linejoin:round; stroke-width:0; stroke-opacity:1; fill:none" points="455.1,1258.97 377.49,1258.97 455.1,1258.97 416.295,1258.97 "/>
<polyline clip-path="url(#clip452)" style="stroke:#b9e3bb; stroke-linecap:round; stroke-linejoin:round; stroke-width:0; stroke-opacity:1; fill:none" points="416.295,1258.97 396.892,1258.97 435.698,1258.97 416.295,1258.97 "/>
<polyline clip-path="url(#clip452)" style="stroke:#b9e3bb; stroke-linecap:round; stroke-linejoin:round; stroke-width:0; stroke-opacity:1; fill:none" points="909.061,1258.97 889.658,1258.97 928.464,1258.97 909.061,1258.97 "/>
<polyline clip-path="url(#clip452)" style="stroke:#b9e3bb; stroke-linecap:round; stroke-linejoin:round; stroke-width:0; stroke-opacity:1; fill:none" points="947.866,1258.97 947.866,1258.97 870.256,1258.97 947.866,1258.97 "/>
<polyline clip-path="url(#clip452)" style="stroke:#b9e3bb; stroke-linecap:round; stroke-linejoin:round; stroke-width:0; stroke-opacity:1; fill:none" points="947.866,1258.97 870.256,1258.97 947.866,1258.97 909.061,1258.97 "/>
<polyline clip-path="url(#clip452)" style="stroke:#b9e3bb; stroke-linecap:round; stroke-linejoin:round; stroke-width:0; stroke-opacity:1; fill:none" points="909.061,1258.97 889.658,1258.97 928.464,1258.97 909.061,1258.97 "/>
<polyline clip-path="url(#clip452)" style="stroke:#b9e3bb; stroke-linecap:round; stroke-linejoin:round; stroke-width:0; stroke-opacity:1; fill:none" points="1401.83,1258.97 1382.42,1258.97 1421.23,1258.97 1401.83,1258.97 "/>
<polyline clip-path="url(#clip452)" style="stroke:#b9e3bb; stroke-linecap:round; stroke-linejoin:round; stroke-width:0; stroke-opacity:1; fill:none" points="1440.63,1258.97 1440.63,1258.97 1363.02,1258.97 1440.63,1258.97 "/>
<polyline clip-path="url(#clip452)" style="stroke:#b9e3bb; stroke-linecap:round; stroke-linejoin:round; stroke-width:0; stroke-opacity:1; fill:none" points="1440.63,1258.97 1363.02,1258.97 1440.63,1258.97 1401.83,1258.97 "/>
<polyline clip-path="url(#clip452)" style="stroke:#b9e3bb; stroke-linecap:round; stroke-linejoin:round; stroke-width:0; stroke-opacity:1; fill:none" points="1401.83,1258.97 1382.42,1258.97 1421.23,1258.97 1401.83,1258.97 "/>
<path clip-path="url(#clip452)" d="M502.529 1042.59 L483.126 1042.59 L521.932 1042.59 L502.529 1042.59 L502.529 978.927 L502.529 1042.59  Z" fill="#7accc4" fill-rule="evenodd" fill-opacity="1"/>
<polyline clip-path="url(#clip452)" style="stroke:#000000; stroke-linecap:round; stroke-linejoin:round; stroke-width:4; stroke-opacity:1; fill:none" points="502.529,1042.59 483.126,1042.59 521.932,1042.59 502.529,1042.59 502.529,978.927 502.529,1042.59 "/>
<path clip-path="url(#clip452)" d="M541.334 978.927 L541.334 944.819 L463.724 944.819 L463.724 978.927 L541.334 978.927 L541.334 944.819 L541.334 978.927  Z" fill="#7accc4" fill-rule="evenodd" fill-opacity="1"/>
<polyline clip-path="url(#clip452)" style="stroke:#000000; stroke-linecap:round; stroke-linejoin:round; stroke-width:4; stroke-opacity:1; fill:none" points="541.334,978.927 541.334,944.819 463.724,944.819 463.724,978.927 541.334,978.927 541.334,944.819 541.334,978.927 "/>
<path clip-path="url(#clip452)" d="M541.334 878.675 L463.724 878.675 L463.724 944.819 L541.334 944.819 L541.334 878.675 L502.529 878.675 L541.334 878.675  Z" fill="#7accc4" fill-rule="evenodd" fill-opacity="1"/>
<polyline clip-path="url(#clip452)" style="stroke:#000000; stroke-linecap:round; stroke-linejoin:round; stroke-width:4; stroke-opacity:1; fill:none" points="541.334,878.675 463.724,878.675 463.724,944.819 541.334,944.819 541.334,878.675 502.529,878.675 541.334,878.675 "/>
<path clip-path="url(#clip452)" d="M502.529 757.566 L483.126 757.566 L521.932 757.566 L502.529 757.566 L502.529 878.675 L502.529 757.566  Z" fill="#7accc4" fill-rule="evenodd" fill-opacity="1"/>
<polyline clip-path="url(#clip452)" style="stroke:#000000; stroke-linecap:round; stroke-linejoin:round; stroke-width:4; stroke-opacity:1; fill:none" points="502.529,757.566 483.126,757.566 521.932,757.566 502.529,757.566 502.529,878.675 502.529,757.566 "/>
<path clip-path="url(#clip452)" d="M995.295 1124.33 L975.892 1124.33 L1014.7 1124.33 L995.295 1124.33 L995.295 1016.63 L995.295 1124.33  Z" fill="#7accc4" fill-rule="evenodd" fill-opacity="1"/>
<polyline clip-path="url(#clip452)" style="stroke:#000000; stroke-linecap:round; stroke-linejoin:round; stroke-width:4; stroke-opacity:1; fill:none" points="995.295,1124.33 975.892,1124.33 1014.7,1124.33 995.295,1124.33 995.295,1016.63 995.295,1124.33 "/>
<path clip-path="url(#clip452)" d="M1034.1 1016.63 L1034.1 970.464 L956.49 970.464 L956.49 1016.63 L1034.1 1016.63 L1034.1 970.464 L1034.1 1016.63  Z" fill="#7accc4" fill-rule="evenodd" fill-opacity="1"/>
<polyline clip-path="url(#clip452)" style="stroke:#000000; stroke-linecap:round; stroke-linejoin:round; stroke-width:4; stroke-opacity:1; fill:none" points="1034.1,1016.63 1034.1,970.464 956.49,970.464 956.49,1016.63 1034.1,1016.63 1034.1,970.464 1034.1,1016.63 "/>
<path clip-path="url(#clip452)" d="M1034.1 912.763 L956.49 912.763 L956.49 970.464 L1034.1 970.464 L1034.1 912.763 L995.295 912.763 L1034.1 912.763  Z" fill="#7accc4" fill-rule="evenodd" fill-opacity="1"/>
<polyline clip-path="url(#clip452)" style="stroke:#000000; stroke-linecap:round; stroke-linejoin:round; stroke-width:4; stroke-opacity:1; fill:none" points="1034.1,912.763 956.49,912.763 956.49,970.464 1034.1,970.464 1034.1,912.763 995.295,912.763 1034.1,912.763 "/>
<path clip-path="url(#clip452)" d="M995.295 760.024 L975.892 760.024 L1014.7 760.024 L995.295 760.024 L995.295 912.763 L995.295 760.024  Z" fill="#7accc4" fill-rule="evenodd" fill-opacity="1"/>
<polyline clip-path="url(#clip452)" style="stroke:#000000; stroke-linecap:round; stroke-linejoin:round; stroke-width:4; stroke-opacity:1; fill:none" points="995.295,760.024 975.892,760.024 1014.7,760.024 995.295,760.024 995.295,912.763 995.295,760.024 "/>
<path clip-path="url(#clip452)" d="M1488.06 1258.97 L1468.66 1258.97 L1507.46 1258.97 L1488.06 1258.97 L1488.06 1143.31 L1488.06 1258.97  Z" fill="#7accc4" fill-rule="evenodd" fill-opacity="1"/>
<polyline clip-path="url(#clip452)" style="stroke:#000000; stroke-linecap:round; stroke-linejoin:round; stroke-width:4; stroke-opacity:1; fill:none" points="1488.06,1258.97 1468.66,1258.97 1507.46,1258.97 1488.06,1258.97 1488.06,1143.31 1488.06,1258.97 "/>
<path clip-path="url(#clip452)" d="M1526.87 1143.31 L1526.87 1085.87 L1449.26 1085.87 L1449.26 1143.31 L1526.87 1143.31 L1526.87 1085.87 L1526.87 1143.31  Z" fill="#7accc4" fill-rule="evenodd" fill-opacity="1"/>
<polyline clip-path="url(#clip452)" style="stroke:#000000; stroke-linecap:round; stroke-linejoin:round; stroke-width:4; stroke-opacity:1; fill:none" points="1526.87,1143.31 1526.87,1085.87 1449.26,1085.87 1449.26,1143.31 1526.87,1143.31 1526.87,1085.87 1526.87,1143.31 "/>
<path clip-path="url(#clip452)" d="M1526.87 1033.41 L1449.26 1033.41 L1449.26 1085.87 L1526.87 1085.87 L1526.87 1033.41 L1488.06 1033.41 L1526.87 1033.41  Z" fill="#7accc4" fill-rule="evenodd" fill-opacity="1"/>
<polyline clip-path="url(#clip452)" style="stroke:#000000; stroke-linecap:round; stroke-linejoin:round; stroke-width:4; stroke-opacity:1; fill:none" points="1526.87,1033.41 1449.26,1033.41 1449.26,1085.87 1526.87,1085.87 1526.87,1033.41 1488.06,1033.41 1526.87,1033.41 "/>
<path clip-path="url(#clip452)" d="M1488.06 912.763 L1468.66 912.763 L1507.46 912.763 L1488.06 912.763 L1488.06 1033.41 L1488.06 912.763  Z" fill="#7accc4" fill-rule="evenodd" fill-opacity="1"/>
<polyline clip-path="url(#clip452)" style="stroke:#000000; stroke-linecap:round; stroke-linejoin:round; stroke-width:4; stroke-opacity:1; fill:none" points="1488.06,912.763 1468.66,912.763 1507.46,912.763 1488.06,912.763 1488.06,1033.41 1488.06,912.763 "/>
<circle clip-path="url(#clip452)" cx="995.295" cy="1191.65" r="14.4" fill="#7accc4" fill-rule="evenodd" fill-opacity="1" stroke="#000000" stroke-opacity="1" stroke-width="2.8"/>
<polyline clip-path="url(#clip452)" style="stroke:#7accc4; stroke-linecap:round; stroke-linejoin:round; stroke-width:0; stroke-opacity:1; fill:none" points="502.529,1042.59 483.126,1042.59 521.932,1042.59 502.529,1042.59 502.529,978.927 "/>
<polyline clip-path="url(#clip452)" style="stroke:#7accc4; stroke-linecap:round; stroke-linejoin:round; stroke-width:0; stroke-opacity:1; fill:none" points="541.334,978.927 541.334,944.819 463.724,944.819 463.724,978.927 541.334,978.927 541.334,944.819 "/>
<polyline clip-path="url(#clip452)" style="stroke:#7accc4; stroke-linecap:round; stroke-linejoin:round; stroke-width:0; stroke-opacity:1; fill:none" points="541.334,878.675 463.724,878.675 463.724,944.819 541.334,944.819 541.334,878.675 502.529,878.675 "/>
<polyline clip-path="url(#clip452)" style="stroke:#7accc4; stroke-linecap:round; stroke-linejoin:round; stroke-width:0; stroke-opacity:1; fill:none" points="502.529,757.566 483.126,757.566 521.932,757.566 502.529,757.566 502.529,878.675 "/>
<polyline clip-path="url(#clip452)" style="stroke:#7accc4; stroke-linecap:round; stroke-linejoin:round; stroke-width:0; stroke-opacity:1; fill:none" points="995.295,1124.33 975.892,1124.33 1014.7,1124.33 995.295,1124.33 995.295,1016.63 "/>
<polyline clip-path="url(#clip452)" style="stroke:#7accc4; stroke-linecap:round; stroke-linejoin:round; stroke-width:0; stroke-opacity:1; fill:none" points="1034.1,1016.63 1034.1,970.464 956.49,970.464 956.49,1016.63 1034.1,1016.63 1034.1,970.464 "/>
<polyline clip-path="url(#clip452)" style="stroke:#7accc4; stroke-linecap:round; stroke-linejoin:round; stroke-width:0; stroke-opacity:1; fill:none" points="1034.1,912.763 956.49,912.763 956.49,970.464 1034.1,970.464 1034.1,912.763 995.295,912.763 "/>
<polyline clip-path="url(#clip452)" style="stroke:#7accc4; stroke-linecap:round; stroke-linejoin:round; stroke-width:0; stroke-opacity:1; fill:none" points="995.295,760.024 975.892,760.024 1014.7,760.024 995.295,760.024 995.295,912.763 "/>
<polyline clip-path="url(#clip452)" style="stroke:#7accc4; stroke-linecap:round; stroke-linejoin:round; stroke-width:0; stroke-opacity:1; fill:none" points="1488.06,1258.97 1468.66,1258.97 1507.46,1258.97 1488.06,1258.97 1488.06,1143.31 "/>
<polyline clip-path="url(#clip452)" style="stroke:#7accc4; stroke-linecap:round; stroke-linejoin:round; stroke-width:0; stroke-opacity:1; fill:none" points="1526.87,1143.31 1526.87,1085.87 1449.26,1085.87 1449.26,1143.31 1526.87,1143.31 1526.87,1085.87 "/>
<polyline clip-path="url(#clip452)" style="stroke:#7accc4; stroke-linecap:round; stroke-linejoin:round; stroke-width:0; stroke-opacity:1; fill:none" points="1526.87,1033.41 1449.26,1033.41 1449.26,1085.87 1526.87,1085.87 1526.87,1033.41 1488.06,1033.41 "/>
<polyline clip-path="url(#clip452)" style="stroke:#7accc4; stroke-linecap:round; stroke-linejoin:round; stroke-width:0; stroke-opacity:1; fill:none" points="1488.06,912.763 1468.66,912.763 1507.46,912.763 1488.06,912.763 1488.06,1033.41 "/>
<path clip-path="url(#clip452)" d="M588.763 1258.97 L569.36 1258.97 L608.166 1258.97 L588.763 1258.97 L588.763 1258.97 L588.763 1258.97  Z" fill="#43a1c9" fill-rule="evenodd" fill-opacity="1"/>
<polyline clip-path="url(#clip452)" style="stroke:#000000; stroke-linecap:round; stroke-linejoin:round; stroke-width:4; stroke-opacity:1; fill:none" points="588.763,1258.97 569.36,1258.97 608.166,1258.97 588.763,1258.97 "/>
<path clip-path="url(#clip452)" d="M627.568 1258.97 L627.568 1258.97 L549.958 1258.97 L549.958 1258.97 L627.568 1258.97 L627.568 1258.97 L627.568 1258.97  Z" fill="#43a1c9" fill-rule="evenodd" fill-opacity="1"/>
<polyline clip-path="url(#clip452)" style="stroke:#000000; stroke-linecap:round; stroke-linejoin:round; stroke-width:4; stroke-opacity:1; fill:none" points="627.568,1258.97 627.568,1258.97 549.958,1258.97 627.568,1258.97 "/>
<path clip-path="url(#clip452)" d="M627.568 1258.97 L549.958 1258.97 L549.958 1258.97 L627.568 1258.97 L627.568 1258.97 L588.763 1258.97 L627.568 1258.97  Z" fill="#43a1c9" fill-rule="evenodd" fill-opacity="1"/>
<polyline clip-path="url(#clip452)" style="stroke:#000000; stroke-linecap:round; stroke-linejoin:round; stroke-width:4; stroke-opacity:1; fill:none" points="627.568,1258.97 549.958,1258.97 627.568,1258.97 588.763,1258.97 627.568,1258.97 "/>
<path clip-path="url(#clip452)" d="M588.763 1258.97 L569.36 1258.97 L608.166 1258.97 L588.763 1258.97 L588.763 1258.97 L588.763 1258.97  Z" fill="#43a1c9" fill-rule="evenodd" fill-opacity="1"/>
<polyline clip-path="url(#clip452)" style="stroke:#000000; stroke-linecap:round; stroke-linejoin:round; stroke-width:4; stroke-opacity:1; fill:none" points="588.763,1258.97 569.36,1258.97 608.166,1258.97 588.763,1258.97 "/>
<path clip-path="url(#clip452)" d="M1081.53 1258.97 L1062.13 1258.97 L1100.93 1258.97 L1081.53 1258.97 L1081.53 1258.97 L1081.53 1258.97  Z" fill="#43a1c9" fill-rule="evenodd" fill-opacity="1"/>
<polyline clip-path="url(#clip452)" style="stroke:#000000; stroke-linecap:round; stroke-linejoin:round; stroke-width:4; stroke-opacity:1; fill:none" points="1081.53,1258.97 1062.13,1258.97 1100.93,1258.97 1081.53,1258.97 "/>
<path clip-path="url(#clip452)" d="M1120.33 1258.97 L1120.33 1258.97 L1042.72 1258.97 L1042.72 1258.97 L1120.33 1258.97 L1120.33 1258.97 L1120.33 1258.97  Z" fill="#43a1c9" fill-rule="evenodd" fill-opacity="1"/>
<polyline clip-path="url(#clip452)" style="stroke:#000000; stroke-linecap:round; stroke-linejoin:round; stroke-width:4; stroke-opacity:1; fill:none" points="1120.33,1258.97 1120.33,1258.97 1042.72,1258.97 1120.33,1258.97 "/>
<path clip-path="url(#clip452)" d="M1120.33 1258.97 L1042.72 1258.97 L1042.72 1258.97 L1120.33 1258.97 L1120.33 1258.97 L1081.53 1258.97 L1120.33 1258.97  Z" fill="#43a1c9" fill-rule="evenodd" fill-opacity="1"/>
<polyline clip-path="url(#clip452)" style="stroke:#000000; stroke-linecap:round; stroke-linejoin:round; stroke-width:4; stroke-opacity:1; fill:none" points="1120.33,1258.97 1042.72,1258.97 1120.33,1258.97 1081.53,1258.97 1120.33,1258.97 "/>
<path clip-path="url(#clip452)" d="M1081.53 1258.97 L1062.13 1258.97 L1100.93 1258.97 L1081.53 1258.97 L1081.53 1258.97 L1081.53 1258.97  Z" fill="#43a1c9" fill-rule="evenodd" fill-opacity="1"/>
<polyline clip-path="url(#clip452)" style="stroke:#000000; stroke-linecap:round; stroke-linejoin:round; stroke-width:4; stroke-opacity:1; fill:none" points="1081.53,1258.97 1062.13,1258.97 1100.93,1258.97 1081.53,1258.97 "/>
<path clip-path="url(#clip452)" d="M1574.3 1258.97 L1554.89 1258.97 L1593.7 1258.97 L1574.3 1258.97 L1574.3 1258.97 L1574.3 1258.97  Z" fill="#43a1c9" fill-rule="evenodd" fill-opacity="1"/>
<polyline clip-path="url(#clip452)" style="stroke:#000000; stroke-linecap:round; stroke-linejoin:round; stroke-width:4; stroke-opacity:1; fill:none" points="1574.3,1258.97 1554.89,1258.97 1593.7,1258.97 1574.3,1258.97 "/>
<path clip-path="url(#clip452)" d="M1613.1 1258.97 L1613.1 1258.97 L1535.49 1258.97 L1535.49 1258.97 L1613.1 1258.97 L1613.1 1258.97 L1613.1 1258.97  Z" fill="#43a1c9" fill-rule="evenodd" fill-opacity="1"/>
<polyline clip-path="url(#clip452)" style="stroke:#000000; stroke-linecap:round; stroke-linejoin:round; stroke-width:4; stroke-opacity:1; fill:none" points="1613.1,1258.97 1613.1,1258.97 1535.49,1258.97 1613.1,1258.97 "/>
<path clip-path="url(#clip452)" d="M1613.1 1258.97 L1535.49 1258.97 L1535.49 1258.97 L1613.1 1258.97 L1613.1 1258.97 L1574.3 1258.97 L1613.1 1258.97  Z" fill="#43a1c9" fill-rule="evenodd" fill-opacity="1"/>
<polyline clip-path="url(#clip452)" style="stroke:#000000; stroke-linecap:round; stroke-linejoin:round; stroke-width:4; stroke-opacity:1; fill:none" points="1613.1,1258.97 1535.49,1258.97 1613.1,1258.97 1574.3,1258.97 1613.1,1258.97 "/>
<path clip-path="url(#clip452)" d="M1574.3 1258.97 L1554.89 1258.97 L1593.7 1258.97 L1574.3 1258.97 L1574.3 1258.97 L1574.3 1258.97  Z" fill="#43a1c9" fill-rule="evenodd" fill-opacity="1"/>
<polyline clip-path="url(#clip452)" style="stroke:#000000; stroke-linecap:round; stroke-linejoin:round; stroke-width:4; stroke-opacity:1; fill:none" points="1574.3,1258.97 1554.89,1258.97 1593.7,1258.97 1574.3,1258.97 "/>
<polyline clip-path="url(#clip452)" style="stroke:#43a1c9; stroke-linecap:round; stroke-linejoin:round; stroke-width:0; stroke-opacity:1; fill:none" points="588.763,1258.97 569.36,1258.97 608.166,1258.97 588.763,1258.97 "/>
<polyline clip-path="url(#clip452)" style="stroke:#43a1c9; stroke-linecap:round; stroke-linejoin:round; stroke-width:0; stroke-opacity:1; fill:none" points="627.568,1258.97 627.568,1258.97 549.958,1258.97 627.568,1258.97 "/>
<polyline clip-path="url(#clip452)" style="stroke:#43a1c9; stroke-linecap:round; stroke-linejoin:round; stroke-width:0; stroke-opacity:1; fill:none" points="627.568,1258.97 549.958,1258.97 627.568,1258.97 588.763,1258.97 "/>
<polyline clip-path="url(#clip452)" style="stroke:#43a1c9; stroke-linecap:round; stroke-linejoin:round; stroke-width:0; stroke-opacity:1; fill:none" points="588.763,1258.97 569.36,1258.97 608.166,1258.97 588.763,1258.97 "/>
<polyline clip-path="url(#clip452)" style="stroke:#43a1c9; stroke-linecap:round; stroke-linejoin:round; stroke-width:0; stroke-opacity:1; fill:none" points="1081.53,1258.97 1062.13,1258.97 1100.93,1258.97 1081.53,1258.97 "/>
<polyline clip-path="url(#clip452)" style="stroke:#43a1c9; stroke-linecap:round; stroke-linejoin:round; stroke-width:0; stroke-opacity:1; fill:none" points="1120.33,1258.97 1120.33,1258.97 1042.72,1258.97 1120.33,1258.97 "/>
<polyline clip-path="url(#clip452)" style="stroke:#43a1c9; stroke-linecap:round; stroke-linejoin:round; stroke-width:0; stroke-opacity:1; fill:none" points="1120.33,1258.97 1042.72,1258.97 1120.33,1258.97 1081.53,1258.97 "/>
<polyline clip-path="url(#clip452)" style="stroke:#43a1c9; stroke-linecap:round; stroke-linejoin:round; stroke-width:0; stroke-opacity:1; fill:none" points="1081.53,1258.97 1062.13,1258.97 1100.93,1258.97 1081.53,1258.97 "/>
<polyline clip-path="url(#clip452)" style="stroke:#43a1c9; stroke-linecap:round; stroke-linejoin:round; stroke-width:0; stroke-opacity:1; fill:none" points="1574.3,1258.97 1554.89,1258.97 1593.7,1258.97 1574.3,1258.97 "/>
<polyline clip-path="url(#clip452)" style="stroke:#43a1c9; stroke-linecap:round; stroke-linejoin:round; stroke-width:0; stroke-opacity:1; fill:none" points="1613.1,1258.97 1613.1,1258.97 1535.49,1258.97 1613.1,1258.97 "/>
<polyline clip-path="url(#clip452)" style="stroke:#43a1c9; stroke-linecap:round; stroke-linejoin:round; stroke-width:0; stroke-opacity:1; fill:none" points="1613.1,1258.97 1535.49,1258.97 1613.1,1258.97 1574.3,1258.97 "/>
<polyline clip-path="url(#clip452)" style="stroke:#43a1c9; stroke-linecap:round; stroke-linejoin:round; stroke-width:0; stroke-opacity:1; fill:none" points="1574.3,1258.97 1554.89,1258.97 1593.7,1258.97 1574.3,1258.97 "/>
</svg>
